<?xml version="1.0" encoding="UTF-8" standalone="no"?>
<!-- Created with Inkscape (http://www.inkscape.org/) -->

<svg
   width="210mm"
   height="297mm"
   viewBox="0 0 210 297"
   version="1.1"
   id="svg5"
   inkscape:version="1.1 (c68e22c387, 2021-05-23)"
   sodipodi:docname="atlas-header.svg"
   xmlns:inkscape="http://www.inkscape.org/namespaces/inkscape"
   xmlns:sodipodi="http://sodipodi.sourceforge.net/DTD/sodipodi-0.dtd"
   xmlns="http://www.w3.org/2000/svg"
   xmlns:svg="http://www.w3.org/2000/svg">
  <sodipodi:namedview
     id="namedview7"
     pagecolor="#ffffff"
     bordercolor="#666666"
     borderopacity="1.0"
     inkscape:pageshadow="2"
     inkscape:pageopacity="0.0"
     inkscape:pagecheckerboard="0"
     inkscape:document-units="mm"
     showgrid="false"
     inkscape:zoom="1"
     inkscape:cx="546.5"
     inkscape:cy="549.5"
     inkscape:window-width="1920"
     inkscape:window-height="1017"
     inkscape:window-x="-8"
     inkscape:window-y="-8"
     inkscape:window-maximized="1"
     inkscape:current-layer="layer1" />
  <defs
     id="defs2" />
  <g
     inkscape:label="Layer 1"
     inkscape:groupmode="layer"
     id="layer1">
    <g
       id="g8699">
      <ellipse
         style="fill:#0b0b0b;stroke:#333333;stroke-width:0.925999;stroke-linejoin:round;paint-order:markers fill stroke;fill-opacity:1"
         id="path8205"
         cx="99.483337"
         cy="86.386459"
         rx="49.477081"
         ry="48.021873" />
      <g
         id="g7810"
         style="fill:#000000">
        <path
           style="color:#000000;fill:#000000;-inkscape-stroke:none"
           d="m 82.398437,155.72852 c -1.849572,-0.28024 -4.543226,0.11017 -6.787109,0.56445 -2.241831,0.45387 -4.027981,0.97561 -4.03125,0.97656 h -0.0039 c -0.02276,0.003 -1.888557,0.21836 -3.859375,0.58789 -0.991406,0.18589 -2.002319,0.40897 -2.814453,0.66406 -0.406067,0.12755 -0.761809,0.26294 -1.042969,0.40821 -0.28116,0.14526 -0.493325,0.29538 -0.599609,0.49023 -0.33933,0.62211 -1.192425,2.51952 -1.525391,4.66992 -0.332966,2.15041 -0.140249,4.56967 1.664062,6.14844 l 0.216791,-0.12891 c -1.710479,-1.49666 -1.945191,-3.87273 -1.619134,-5.97851 0.326056,-2.10578 1.1764,-3.99788 1.496093,-4.58399 0.05847,-0.10719 0.228836,-0.24876 0.488282,-0.38281 0.259445,-0.13404 0.602883,-0.26589 1,-0.39062 0.794234,-0.24947 1.799493,-0.47144 2.785156,-0.65625 1.971327,-0.36963 3.863281,-0.58985 3.863281,-0.58985 h 0.01172 l 0.0098,-0.004 c 0,0 1.779737,-0.52079 4.011718,-0.97266 2.231982,-0.45187 4.920259,-0.82949 6.695313,-0.56055 3.646306,0.55247 10.477152,0.64643 10.477152,0.64643 l -0.03729,-0.31172 c 0,0 -6.795911,-0.0505 -10.398854,-0.59642 z"
           id="path869"
           sodipodi:nodetypes="csccsssssccssssscccsscccc" />
        <path
           style="color:#000000;fill:#000000;-inkscape-stroke:none"
           d="m 63.615234,170.10937 -0.257812,0.0586 0.544922,2.40234 c 2.88e-4,0.0132 0.05603,2.52286 0.248047,5.1836 0.09626,1.33386 0.226229,2.70206 0.402343,3.81054 0.08806,0.55424 0.18712,1.04346 0.300782,1.4336 0.113662,0.39013 0.233874,0.68114 0.40625,0.85351 l 0.1875,-0.1875 c -0.102218,-0.10221 -0.231257,-0.36752 -0.339844,-0.74023 -0.108587,-0.37272 -0.205973,-0.85283 -0.292969,-1.40039 -0.173992,-1.09513 -0.304434,-2.45938 -0.400391,-3.78907 -0.191913,-2.65936 -0.246093,-5.18359 -0.246093,-5.18359 v -0.0117 z"
           id="path904"
           sodipodi:nodetypes="cccsssccsssccc" />
        <path
           style="color:#000000;fill:#000000;-inkscape-stroke:none"
           d="m 75.011719,169.26172 c -0.142652,-0.0259 -0.28435,0.0154 -0.394532,0.0957 -0.110181,0.0804 -0.195607,0.19372 -0.271484,0.32813 -0.151753,0.26882 -0.260374,0.62377 -0.341797,0.98047 -0.162844,0.71338 -0.214844,1.43945 -0.214844,1.43945 l -0.0039,0.0586 0.03906,0.043 c 2.085093,2.19202 1.96863,6.21351 1.298828,9.69922 -0.669802,3.48571 -1.875,6.41406 -1.875,6.41406 l -0.0059,0.0195 -0.664062,7.61914 0.0039,0.0195 c 0,0 0.874219,4.04947 1.210938,5.17187 0.310214,1.03404 -0.212891,2.21289 -0.212891,2.21289 l -0.02734,0.0606 0.03125,0.0566 c 0,0 1.087381,2.08858 1.19336,3.57226 0.05245,0.73426 -0.184667,1.50573 -0.595703,2.12891 -0.411036,0.62318 -0.994247,1.09378 -1.611329,1.24805 -0.631341,0.15783 -1.64549,0.18748 -2.492187,0.17383 -0.846697,-0.0137 -1.529297,-0.0684 -1.529297,-0.0684 h -0.01953 l -5.158203,1.0957 c -0.113108,-0.0872 -0.239417,-0.15489 -0.441407,-0.20508 -0.251299,-0.0624 -0.571189,-0.11273 -0.9375,-0.1543 -0.732621,-0.0831 -1.651477,-0.13068 -2.552734,-0.1582 -1.789569,-0.0546 -3.485149,-0.0297 -3.509766,-0.0293 -0.01731,-0.005 -1.252089,-0.35867 -1.972656,-0.79101 -0.181402,-0.10884 -0.327475,-0.22202 -0.408203,-0.32227 -0.08073,-0.10024 -0.09661,-0.16252 -0.06836,-0.23242 0.02826,-0.0699 0.131828,-0.17555 0.367187,-0.28125 0.235359,-0.1057 0.593841,-0.21169 1.095703,-0.30664 2.084942,-0.39445 4.721105,-2.19054 6.871094,-4.00977 1.074995,-0.90961 2.025568,-1.82663 2.716797,-2.58007 0.345614,-0.37672 0.625875,-0.71156 0.826172,-0.98828 0.200297,-0.27673 0.326904,-0.47925 0.347656,-0.66602 0.05088,-0.45793 0.380468,-1.57195 0.65625,-2.75781 0.275782,-1.18586 0.504369,-2.45081 0.330078,-3.32227 -0.159655,-0.79828 -0.465769,-3.58558 -0.726562,-6.15234 -0.260794,-2.56676 -0.517539,-5.00971 -0.517539,-5.00971 l -0.226602,0.10537 c 0,0 0.219536,2.36156 0.480469,4.92969 0.260933,2.56813 0.560613,5.32845 0.730469,6.17773 0.15522,0.77611 -0.05472,2.03726 -0.328125,3.21289 -0.273404,1.17564 -0.603151,2.2565 -0.66211,2.78711 -0.0067,0.0604 -0.10783,0.27519 -0.298828,0.53907 -0.190998,0.26387 -0.465773,0.59525 -0.806641,0.96679 -0.681735,0.74309 -1.626529,1.65199 -2.693359,2.55469 -2.13366,1.80541 -4.769013,3.57871 -6.748047,3.95312 -0.514131,0.0973 -0.888095,0.20467 -1.154297,0.32422 -0.266201,0.11956 -0.434338,0.25174 -0.503906,0.42383 -0.06957,0.17209 -0.009,0.35588 0.105469,0.49805 0.114491,0.14217 0.282352,0.26511 0.478515,0.38281 0.784654,0.47079 2.050782,0.82422 2.050782,0.82422 l 0.01953,0.006 h 0.01953 c 0,0 1.726832,-0.0275 3.521485,0.0273 0.897326,0.0274 1.811962,0.0746 2.53125,0.15625 0.359644,0.0408 0.670102,0.0907 0.902343,0.14844 0.232241,0.0577 0.385821,0.14072 0.410157,0.16992 l 0.05078,0.0606 5.226562,-1.11133 c 0.02218,0.002 0.679773,0.0548 1.521485,0.0684 0.855779,0.0138 1.873843,-0.0119 2.560547,-0.18359 0.700964,-0.17524 1.327376,-0.69198 1.767578,-1.35938 0.440202,-0.6674 0.696062,-1.4895 0.638672,-2.29297 -0.111367,-1.55912 -1.155537,-3.54233 -1.199219,-3.625 0.04406,-0.0981 0.539109,-1.22055 0.205078,-2.33398 -0.321208,-1.0707 -1.195197,-5.10719 -1.201172,-5.13477 l 0.65625,-7.54101 c 0.01457,-0.0355 1.209258,-2.94634 1.880859,-6.44141 0.670044,-3.48696 0.814973,-7.54366 -1.326171,-9.86523 0.0025,-0.0325 0.05186,-0.69598 0.205078,-1.36719 0.07846,-0.34372 0.186107,-0.68085 0.314453,-0.9082 0.06417,-0.11368 0.132308,-0.19872 0.197265,-0.2461 0.06496,-0.0474 0.118522,-0.0617 0.189454,-0.0488 0.07872,0.0143 0.298928,0.0876 0.597656,0.20118 0.298727,0.11353 0.686966,0.26772 1.138672,0.44531 0.903412,0.35517 2.068216,0.80546 3.324218,1.22656 2.512005,0.8422 5.379411,1.57503 7.302735,1.1543 l -0.0293,0.004 c 0,0 1.986332,0.0101 4.390625,-0.18945 2.404293,-0.19955 5.224019,-0.60128 6.931641,-1.45508 L 98.5,170.66992 c -1.632042,0.81601 -4.444318,1.23119 -6.835938,1.42969 -2.391619,0.1985 -4.365234,0.1875 -4.365234,0.1875 h -0.01563 l -0.01367,0.004 c -1.804673,0.39477 -4.664617,-0.30915 -7.162109,-1.14649 -1.248746,-0.41867 -2.410164,-0.86791 -3.3125,-1.22266 -0.451168,-0.17737 -0.836697,-0.3325 -1.138672,-0.44726 -0.301975,-0.11477 -0.509669,-0.18837 -0.644531,-0.21289 z"
           id="path1005"
           sodipodi:nodetypes="ccsscccsccccscccsssccccssccssssssssssssccsssssssssssscccssscccsssscsccscsssscssccsccscccssscc" />
        <path
           style="color:#000000;fill:#000000;-inkscape-stroke:none"
           d="m 95.580078,155.19727 -0.263672,0.006 c 0,0 0.05439,3.24703 0.673828,7.14258 0.618488,3.8896 1.792146,8.42722 4.072266,11.05078 l 0.004,0.004 c 0.002,0.003 0.003,0.007 0.006,0.01 0.016,0.0241 4.39076,6.60794 9.93945,8.60546 l 0.17555,-0.145 c -5.42505,-1.95341 -9.90625,-8.62109 -9.90625,-8.62109 l -0.004,-0.008 -0.006,-0.006 c -2.216307,-2.54065 -3.403292,-7.05622 -4.019527,-10.93164 -0.616234,-3.87543 -0.671875,-7.10742 -0.671875,-7.10742 z"
           id="path1048"
           sodipodi:nodetypes="ccsccccccccscc" />
        <path
           style="color:#000000;fill:#000000;-inkscape-stroke:none"
           d="m 110.1875,181.87109 -0.26172,0.0391 c 0,0 0.11051,0.72359 0.375,1.54492 0.2645,0.82132 0.69881,1.76515 1.35937,2.18551 l 0.11524,-0.23629 c -0.54764,-0.3485 -0.96542,-1.23248 -1.22266,-2.03125 -0.25723,-0.79878 -0.36523,-1.50196 -0.36523,-1.50196 z"
           id="path1083"
           sodipodi:nodetypes="ccsccscc" />
        <path
           style="color:#000000;fill:#000000;-inkscape-stroke:none"
           d="m 111.74805,185.39062 -0.0879,0.25 c 1.07316,0.37561 1.71133,0.95945 2.20117,1.4629 0.24492,0.25172 0.45148,0.48402 0.66211,0.66015 0.21063,0.17613 0.43429,0.30078 0.69531,0.30078 0.0354,0 0.17543,0.0644 0.3418,0.21875 0.16636,0.15432 0.36801,0.38252 0.59179,0.65821 0.44757,0.55138 0.98546,1.29387 1.55664,2.03711 0.57119,0.74323 1.17375,1.48784 1.75782,2.05273 0.58407,0.56489 1.14674,0.96289 1.68359,0.96289 0.20293,0 0.6815,0.0797 1.32813,0.22656 0.64662,0.14683 1.4712,0.35973 2.4082,0.62696 1.87399,0.53445 4.19762,1.28308 6.45898,2.13281 2.26136,0.84972 4.46109,1.80147 6.08008,2.74219 0.8095,0.47036 1.47408,0.93903 1.92578,1.38281 0.4517,0.44377 0.67976,0.85722 0.66797,1.21094 -0.10944,3.28351 0.31398,4.38834 -0.10547,6.74609 -0.23686,0.0546 -0.46003,0.16232 -0.64258,0.35352 -0.21626,0.2265 -0.40061,0.51257 -0.55273,0.79492 -0.30423,0.56468 -0.48242,1.11914 -0.48242,1.11914 l -0.0254,0.082 0.0644,0.0566 c 0,0 1.05341,0.93932 2.40625,0.65234 1.29368,-0.27441 2.75208,-1.02688 2.79102,-1.04687 l 3.20898,0.041 0.95898,-0.80078 3.03711,-1.59765 -0.0332,-0.10547 c 0,0 -0.76049,-2.36688 -2.05469,-5.28125 -1.29419,-2.91437 -3.11935,-6.37886 -5.27734,-8.59571 l -0.22432,0.11533 c 2.11367,2.17132 3.97321,5.68688 5.26143,8.5878 1.26335,2.84492 1.97539,5.06393 2.00391,5.15234 l -2.86133,1.50391 -0.9043,0.75586 -3.16797,-0.0391 -0.0293,0.0137 c 0,0 -1.51151,0.7715 -2.76367,1.03711 -1.13755,0.2413 -1.99309,-0.45395 -2.09961,-0.54297 0.0265,-0.08 0.15828,-0.48759 0.42383,-0.98047 0.14518,-0.26946 0.32121,-0.53875 0.51172,-0.73828 0.19052,-0.19953 0.39036,-0.32479 0.58789,-0.33789 l 0.10352,-0.006 0.0176,-0.10156 c 0.44339,-2.43864 0.004,-3.54768 0.11329,-6.83008 0.0157,-0.47006 -0.27043,-0.93896 -0.74805,-1.4082 -0.47763,-0.46925 -1.15762,-0.94489 -1.97852,-1.42188 -1.6418,-0.95397 -3.84972,-1.90897 -6.11914,-2.76172 -2.26942,-0.85275 -4.5994,-1.60221 -6.48047,-2.13867 -0.94053,-0.26823 -1.76847,-0.4825 -2.42187,-0.63086 -0.6534,-0.14836 -1.12284,-0.23242 -1.38672,-0.23242 -0.39677,0 -0.93226,-0.34146 -1.49805,-0.88867 -0.56578,-0.54721 -1.16405,-1.28583 -1.73242,-2.02539 -0.56837,-0.73957 -1.10734,-1.4803 -1.5625,-2.04102 -0.22758,-0.28036 -0.43387,-0.5155 -0.61719,-0.68555 -0.18331,-0.17004 -0.33723,-0.29101 -0.52148,-0.29101 -0.17833,0 -0.33786,-0.0815 -0.52539,-0.23828 -0.18753,-0.15682 -0.39323,-0.38435 -0.64258,-0.64063 -0.4987,-0.51255 -1.17915,-1.13604 -2.30273,-1.5293 z"
           id="path1118"
           sodipodi:nodetypes="ccsssssssssssssscsscccscccccsccscccccscsscccsssssssssssssscc" />
        <path
           style="color:#000000;fill:#000000;-inkscape-stroke:none"
           d="m 138.29883,191.56055 -0.10352,0.24218 c 2.38107,1.02599 3.61321,1.8091 4.24414,2.32618 0.31547,0.25853 0.48046,0.44898 0.56446,0.57031 0.042,0.0607 0.0634,0.1039 0.0742,0.1289 0.0108,0.025 0.01,0.0215 0.01,0.0215 l 0.25977,-0.0469 c 0,0 -0.009,-0.0376 -0.0273,-0.0801 -0.0184,-0.0425 -0.0488,-0.1004 -0.0996,-0.17383 -0.10167,-0.14686 -0.28314,-0.35444 -0.61328,-0.625 -0.66027,-0.54112 -1.91317,-1.33111 -4.30859,-2.36328 z"
           id="path1153"
           sodipodi:nodetypes="ccsssccccscc" />
        <path
           style="color:#000000;fill:#000000;-inkscape-stroke:none"
           d="m 126.62109,181.2207 c -2.59622,-0.20612 -4.68554,0.47071 -4.68554,0.47071 l -0.0704,0.19921 c 0,0 2.19691,-0.60787 4.73638,-0.40625 2.53948,0.20163 5.55448,1.25443 7.53125,4.70899 l 0.22852,-0.13086 c -2.02306,-3.53545 -5.14401,-4.63567 -7.74024,-4.8418 z"
           id="path1188"
           sodipodi:nodetypes="sccsccss" />
        <path
           style="color:#000000;fill:#000000;-inkscape-stroke:none"
           d="m 134.35352,186.04883 -0.2129,0.1582 c 0,0 0.84071,1.11924 2.00196,3.90625 l 0.20703,-0.15234 c -1.16875,-2.80499 -1.99609,-3.91211 -1.99609,-3.91211 z"
           id="path1223"
           sodipodi:nodetypes="ccccc" />
        <path
           style="color:#000000;fill:#000000;-inkscape-stroke:none"
           d="m 136.3125,189.91016 -0.16992,0.20312 2.05273,1.68945 0.13477,-0.22265 z"
           id="path1324"
           sodipodi:nodetypes="ccccc" />
        <path
           style="color:#000000;fill:#000000;-inkscape-stroke:none"
           d="m 117.91406,173.84766 c -0.12994,0.17326 -0.10926,0.41142 -0.043,0.70117 0.0663,0.28975 0.19538,0.64045 0.36719,1.03515 0.34363,0.78942 0.86154,1.74998 1.39844,2.6836 1.0738,1.86724 2.22851,3.62304 2.22851,3.62304 l 0.22071,-0.14648 c 0,0 -1.15207,-1.74915 -2.22071,-3.60742 -0.53432,-0.92913 -1.04658,-1.88579 -1.38281,-2.6582 -0.16811,-0.38621 -0.2936,-0.72835 -0.35351,-0.99024 -0.0599,-0.26189 -0.0368,-0.436 -0.002,-0.48242 z"
           id="path1359"
           sodipodi:nodetypes="csssccssscc" />
        <path
           style="color:#000000;fill:#000000;-inkscape-stroke:none"
           d="m 114.6582,160.49414 -0.19531,0.17773 c 0,0 2.65333,2.93513 2.4375,6.65821 -0.22152,3.82112 0.99805,6.65039 0.99805,6.65039 l 0.22844,0.0254 c 0,0 -1.18066,-2.90251 -0.96282,-6.66016 0.22352,-3.85567 -2.50586,-6.85156 -2.50586,-6.85156 z"
           id="path1394"
           sodipodi:nodetypes="ccsccsc" />
        <path
           style="color:#000000;fill:#000000;-inkscape-stroke:none"
           d="m 113.82813,152.30469 -0.1836,0.18945 c 0.78633,0.75967 1.13959,1.66545 1.23242,2.61133 0.0928,0.94588 -0.0789,1.93074 -0.35351,2.82226 -0.54915,1.78304 -1.5,3.1836 -1.5,3.1836 l 0.21875,0.14844 c 0,0 0.97025,-1.42605 1.5332,-3.25391 0.28148,-0.91393 0.4629,-1.93064 0.36524,-2.92578 -0.0977,-0.99515 -0.47874,-1.96989 -1.3125,-2.77539 z"
           id="path1429"
           sodipodi:nodetypes="ccscccscc" />
        <path
           style="color:#000000;fill:#000000;-inkscape-stroke:none"
           d="m 114.30469,159.01172 -0.2082,0.17189 0.3664,1.48826 0.22656,-0.12114 z"
           id="path1464"
           sodipodi:nodetypes="ccccc" />
        <path
           style="color:#000000;fill:#000000;-inkscape-stroke:none"
           d="m 109.25195,147.78711 -0.14843,0.21875 c 3.05253,2.07136 4.54101,4.48828 4.54101,4.48828 l 0.20508,-0.16406 c 0,0 -1.4993,-2.44051 -4.59766,-4.54297 z"
           id="path1499"
           sodipodi:nodetypes="ccccc" />
        <path
           style="color:#000000;fill:#000000;-inkscape-stroke:none"
           d="m 106.7832,130.58789 -0.26367,0.0176 c 0.005,0.0786 -0.008,0.26313 -0.041,0.5039 -0.0333,0.24078 -0.0856,0.54292 -0.14844,0.88282 -0.1257,0.6798 -0.29777,1.51249 -0.47266,2.31836 -0.34978,1.61174 -0.70703,3.12109 -0.70703,3.12109 l -0.008,0.0352 2.39062,7.73047 0.0625,0.0215 c 0,0 0.39541,0.14151 0.7793,0.54492 0.38389,0.40341 0.80846,1.17853 0.7287,2.24211 l 0.20685,-0.0996 c 0.085,-1.13316 -0.31799,-1.87835 -0.74414,-2.32617 -0.3921,-0.41204 -0.74633,-0.53596 -0.81055,-0.56055 l -2.33984,-7.56445 c 0.008,-0.0351 0.35293,-1.49422 0.69921,-3.08985 0.17522,-0.80736 0.34803,-1.63963 0.47461,-2.32421 0.0633,-0.34229 0.11616,-0.64727 0.15039,-0.89454 0.0342,-0.24726 0.0515,-0.43128 0.043,-0.55859 z"
           id="path1534"
           sodipodi:nodetypes="cccssccccsccsccssscc" />
        <path
           style="color:#000000;fill:#000000;-inkscape-stroke:none"
           d="m 105.625,126.82227 -0.22715,0.045 1.12754,3.76745 0.25781,-0.0468 z"
           id="path1590"
           sodipodi:nodetypes="ccccc" />
        <path
           style="color:#000000;fill:#000000;-inkscape-stroke:none"
           d="m 100.00586,124.5918 c -0.169777,0.0614 -0.309216,0.19161 -0.462891,0.34179 -0.307352,0.30037 -0.660788,0.69026 -1.171875,0.86914 -0.183924,0.0644 -0.335553,0.22224 -0.484375,0.4336 -0.148823,0.21136 -0.292457,0.48259 -0.433594,0.79492 -0.282275,0.62466 -0.550823,1.41213 -0.785156,2.1875 -0.448896,1.48532 -0.739268,2.80507 -0.765625,2.92383 l -0.46875,-0.10547 -0.63086,1.20312 -3.429687,1.52539 -4.964844,3.5293 -2.480469,2.70117 0.195313,0.17969 2.460937,-2.68164 4.921875,-3.49805 3.490235,-1.55078 0.578125,-1.10547 0.523437,0.11719 0.0293,-0.12891 c 0,0 0.328019,-1.49281 0.792969,-3.03125 0.232475,-0.76921 0.499661,-1.55039 0.773437,-2.15624 0.136888,-0.30293 0.276663,-0.56237 0.410157,-0.75196 0.133493,-0.18959 0.262846,-0.3042 0.353515,-0.33594 0.587285,-0.20555 0.974732,-0.63967 1.271485,-0.92968 0.148376,-0.14501 0.276101,-0.25025 0.367181,-0.28321 0.0911,-0.033 0.16147,-0.0143 0.27539,0.0996 l 0.16797,-0.20311 c -0.16068,-0.16069 -0.36342,-0.20596 -0.5332,-0.14453 z"
           id="path1625"
           sodipodi:nodetypes="sssssscccccccccccccssscssccss" />
        <path
           style="color:#000000;fill:#000000;-inkscape-stroke:none"
           d="m 100.52148,124.7207 -0.15039,0.21875 c 0,0 0.73841,0.50762 2.1836,0.88282 1.44518,0.37519 3.66114,0.60304 6.53517,0.10561 l -0.0996,-0.24038 c -2.83751,0.49111 -4.95855,0.24511 -6.36914,-0.12109 -1.41058,-0.36621 -2.09961,-0.84571 -2.09961,-0.84571 z"
           id="path1693"
           sodipodi:nodetypes="ccsccscc" />
        <path
           style="color:#000000;fill:#000000;-inkscape-stroke:none"
           d="m 134.11133,103.57617 c -0.64641,0.0646 -1.41694,0.36617 -1.82227,1.26367 -0.78617,1.74083 -0.67187,3.6875 -0.67187,3.6875 l 0.002,0.01 0.41797,1.9375 -0.28125,0.125 -1.35352,-2.65234 -0.1289,0.16015 c 0,0 -1.20769,1.47001 -0.62305,2.93164 0.54446,1.36114 1.23057,2.73455 1.25,2.77344 l -0.27148,2.49023 0.26367,0.0293 0.27929,-2.56445 -0.0176,-0.0352 c 0,0 -0.71156,-1.4254 -1.25782,-2.79101 -0.45552,-1.13884 0.2849,-2.21343 0.47461,-2.47461 l 1.26368,2.47656 0.70703,-0.31445 -0.45899,-2.11719 v -0.002 c -1.7e-4,-0.003 -0.10442,-1.89782 0.64649,-3.56055 0.36353,-0.80497 1.02011,-1.0524 1.60937,-1.11133 0.54913,-0.0549 0.9539,0.0633 1.01563,0.0801 0.026,0.11423 0.97608,4.28081 1.46289,6.71484 0.47897,2.39484 -1.33985,4.38672 -1.33985,4.38672 l -0.0117,0.0117 -2.19335,4.05859 c -0.0267,0.0193 -0.98131,0.70983 -1.96485,1.69336 -0.48128,0.48128 -0.85805,0.6569 -1.10547,0.71875 -0.1237,0.0309 -0.2167,0.0335 -0.27539,0.0293 -0.0587,-0.004 -0.0742,-0.0117 -0.0742,-0.0117 l -0.0352,-0.0117 -4.38086,0.94141 -1.17383,0.33594 -1.27344,0.77539 c 0,0 -0.9462,0.52142 -1.98047,1.04883 -0.51713,0.2637 -1.0558,0.52872 -1.50781,0.73046 -0.45201,0.20175 -0.83741,0.33816 -0.96094,0.34766 -0.30628,0.0236 -0.85693,-0.13152 -1.31054,-0.30078 -0.45361,-0.16926 -0.81836,-0.3457 -0.81836,-0.3457 l -0.0664,-0.0332 -0.0625,0.041 c 0,0 -1.30169,0.84502 -3.11523,0.0449 -1.95131,-0.86086 -4.0293,0.61719 -4.0293,0.61719 l 0.15234,0.21679 c 0,0 1.98639,-1.37847 3.76954,-0.59179 1.84098,0.8122 3.17157,0.0332 3.28515,-0.0352 0.0404,0.0193 0.35393,0.16821 0.79297,0.33203 0.46628,0.17399 1.01421,0.34972 1.42188,0.31836 0.23344,-0.0179 0.58953,-0.16414 1.04882,-0.36914 0.4593,-0.205 1.00203,-0.47144 1.52149,-0.73633 1.03891,-0.52978 1.98633,-1.05273 1.98633,-1.05273 l 0.004,-0.002 1.25,-0.76172 1.13086,-0.32227 4.3125,-0.92773 c 0.0245,0.007 0.04,0.0116 0.0957,0.0156 0.0855,0.006 0.20654,0.003 0.35743,-0.0352 0.30177,-0.0755 0.72125,-0.28376 1.22851,-0.79102 0.97987,-0.97987 1.96094,-1.6875 1.96094,-1.6875 l 0.0234,-0.0176 2.20898,-4.08789 0.002,-0.004 c 0.0376,-0.0409 1.89119,-2.0695 1.38672,-4.5918 -0.49508,-2.4754 -1.48242,-6.8125 -1.48242,-6.8125 l -0.0176,-0.0762 -0.0762,-0.0215 c 0,0 -0.54304,-0.15839 -1.18945,-0.0937 z"
           id="path1728"
           sodipodi:nodetypes="csccccccscccccscccccsscscccssccccccsscsccccccscscsscccccccsccccsccccc" />
        <path
           style="color:#000000;fill:#000000;-inkscape-stroke:none"
           d="m 116.57031,117.67188 c -0.43496,2.99038 -1.68613,4.40152 -2.82031,5.08203 -1.13418,0.6805 -2.14844,0.62695 -2.14844,0.62695 l -0.0137,0.26367 c 0,0 1.09897,0.0559 2.29883,-0.66406 1.19986,-0.71992 2.50353,-2.22082 2.94726,-5.27149 z"
           id="path1862" />
        <path
           style="color:#000000;fill:#000000;-inkscape-stroke:none"
           d="m 129.33984,116.12695 c -1.41384,1.80196 -1.59164,2.9446 -1.375,3.6543 0.21665,0.7097 0.82813,0.94336 0.82813,0.94336 l 0.0918,-0.24805 c 0,0 -0.48646,-0.17686 -0.66797,-0.77148 -0.18152,-0.59462 -0.0569,-1.64827 1.33007,-3.41602 z"
           id="path1897" />
        <path
           style="color:#000000;fill:#000000;-inkscape-stroke:none"
           d="m 117.17773,115.4707 -2.93164,0.94141 0.0801,0.25195 2.88672,-0.92578 c 0.0205,7.2e-4 1.18157,0.0403 2.44141,0.17578 0.63546,0.0683 1.29042,0.15969 1.82226,0.28125 0.53185,0.12157 0.94177,0.29372 1.05664,0.42774 0.1927,0.22481 0.47438,0.33648 0.77539,0.38476 0.30102,0.0483 0.62786,0.0347 0.92969,-0.002 0.59618,-0.0724 1.09291,-0.23608 1.10547,-0.24023 l 0.0137,-0.004 3.16211,-0.71289 c 0.0133,-10e-4 1.51105,-0.21335 2.37305,0.28357 l -0.0645,-0.12927 c -0.97876,-0.56423 -2.34179,-0.41797 -2.34179,-0.41797 l -0.008,0.002 -3.19922,0.7207 -0.006,0.002 c 0,0 -0.49584,0.1648 -1.06836,0.23437 -0.28626,0.0348 -0.5899,0.0442 -0.85352,0.002 -0.26362,-0.0423 -0.48037,-0.1353 -0.61718,-0.29492 -0.21464,-0.25041 -0.64986,-0.3881 -1.19922,-0.51367 -0.54937,-0.12557 -1.21213,-0.21814 -1.85352,-0.28711 -1.28278,-0.13793 -2.48047,-0.17969 -2.48047,-0.17969 z"
           id="path1998"
           sodipodi:nodetypes="cccccsssccccccccccscssscc" />
        <path
           style="color:#000000;fill:#000000;-inkscape-stroke:none"
           d="m 105.30664,112.94727 -0.0273,0.008 c 0,0 -0.70327,0.20244 -1.54102,0.36133 -0.83774,0.15888 -1.82144,0.26079 -2.30469,0.10547 -1.17168,-0.37662 -2.187496,0.57226 -2.187496,0.57226 l 0.179687,0.19531 c 0,0 0.924759,-0.83801 1.927739,-0.51562 0.60409,0.19417 1.58209,0.0638 2.43359,-0.0977 0.82919,-0.15726 1.48935,-0.3471 1.52539,-0.35742 0.0116,0.002 0.5962,0.0923 1.78906,0.57422 1.20291,0.48597 3.00037,1.36564 5.35742,2.92969 6.8e-4,5e-4 0.001,-5e-4 0.002,0 0.0688,0.0509 0.11958,0.0481 0.18554,0.0547 0.0666,0.007 0.14405,0.009 0.23243,0.008 0.17675,-0.002 0.3932,-0.0159 0.60351,-0.0332 0.42063,-0.0346 0.84369,-0.0882 0.84369,-0.0882 l -0.0566,-0.25747 c 0,0 -0.39668,0.048 -0.81055,0.082 -0.20693,0.017 -0.41867,0.0313 -0.58398,0.0332 -0.0827,9.5e-4 -0.15297,-8.7e-4 -0.20312,-0.006 -0.0502,-0.005 -0.0838,-0.0292 -0.0527,-0.006 l -0.004,-0.002 -0.004,-0.002 c -2.37562,-1.57726 -4.1877,-2.46511 -5.41016,-2.95898 -1.22246,-0.49388 -1.86523,-0.59571 -1.86523,-0.59571 z"
           id="path2099"
           sodipodi:nodetypes="ccscccsscscccssccssccccscc" />
        <path
           style="color:#000000;fill:#000000;-inkscape-stroke:none"
           d="m 90.957031,112.61914 0.09375,0.24414 c 1.152397,-0.22304 3.23308,0.10716 5.003906,0.50391 1.770827,0.39674 3.371134,0.82245 3.371134,0.82245 L 99.375,113.9668 c 0,0 -1.479298,-0.45808 -3.261719,-0.85742 -1.78242,-0.39935 -3.900982,-0.7332 -5.15625,-0.49024 z"
           id="path2134"
           sodipodi:nodetypes="ccsccsc" />
        <path
           style="color:#000000;fill:#000000;-inkscape-stroke:none"
           d="m 90.957031,112.61914 -1.394531,0.83008 -0.677734,-0.11328 -0.02539,0.006 c 0,0 -0.301215,0.0734 -0.777344,0.3164 -0.476128,0.24303 -1.137831,0.65774 -1.884765,1.34571 -1.459456,1.34423 -2.632813,1.75976 -2.632813,1.75976 l 0.08789,0.25 c 0,0 1.23273,-0.44035 2.724609,-1.81445 0.72873,-0.6712 1.368349,-1.072 1.824219,-1.30469 0.443527,-0.22638 0.685435,-0.28375 0.699219,-0.28711 l 0.714843,0.11914 1.478516,-0.8789 z"
           id="path2169"
           sodipodi:nodetypes="ccccssccsscccc" />
        <path
           style="color:#000000;fill:#000000;-inkscape-stroke:none"
           d="m 82.488281,114.48047 -3.796875,0.66016 -3.246094,-0.21875 -0.01953,0.004 c 0,0 -1.248514,0.32556 -2.708984,0.27149 l -0.0098,0.26367 c 1.505137,0.0557 2.785157,-0.2793 2.785156,-0.2793 l -0.04297,0.006 3.255859,0.2207 3.78125,-0.6582 3.579635,0.64467 0.289501,-0.19545 z"
           id="path2384"
           sodipodi:nodetypes="ccccccccccccc" />
        <path
           style="color:#000000;fill:#000000;-inkscape-stroke:none"
           d="m 92.154297,151.89453 c -0.164175,0.073 -0.271474,0.22263 -0.330078,0.39844 -0.0586,0.17581 -0.07568,0.38257 -0.07031,0.61328 0.01073,0.46142 0.119196,1.01799 0.257813,1.55859 0.277234,1.08122 0.660572,2.03979 0.660572,2.03979 l 0.162321,0.13193 c 0,0 -0.295084,-1.1775 -0.567034,-2.23811 -0.135975,-0.53031 -0.240136,-1.0739 -0.25,-1.49805 -0.0049,-0.21207 0.01508,-0.39291 0.05859,-0.52344 0.04351,-0.13053 -0.0048,-0.44556 0.07813,-0.48243 z"
           id="path2419"
           sodipodi:nodetypes="csssccssscc" />
        <path
           style="color:#000000;fill:#000000;-inkscape-stroke:none"
           d="m 88.908202,147.04879 -0.124999,0.16215 c 0.282786,1.27253 1.120627,2.49074 1.882813,3.39843 0.762185,0.9077 1.457031,1.50586 1.457031,1.50586 l 0.171875,-0.20117 c 0,0 -0.679659,-0.58372 -1.427735,-1.47461 -0.748075,-0.89089 -1.692585,-2.19186 -1.958985,-3.39066 z"
           id="path2421"
           sodipodi:nodetypes="ccsccsc" />
        <path
           style="color:#000000;fill:#000000;-inkscape-stroke:none"
           d="m 83.421875,142.49414 -0.242206,0.0724 c 1.601575,2.37475 3.038864,3.62029 4.062518,4.19522 0.511828,0.28746 0.926251,0.42586 1.214844,0.49219 0.288593,0.0663 0.462891,0.0605 0.462891,0.0605 l -0.01172,-0.26562 c 0,0 -0.128552,0.008 -0.392578,-0.0527 -0.264026,-0.0607 -0.654094,-0.18939 -1.144531,-0.46484 -0.980874,-0.5509 -2.365518,-1.68886 -3.949218,-4.03711 z"
           id="path2667"
           sodipodi:nodetypes="ccssccssc" />
        <path
           style="color:#000000;fill:#000000;-inkscape-stroke:none"
           d="m 74.027344,134.9707 -0.07617,0.25192 c 0.719889,0.13456 0.976972,0.32468 1.023436,0.40433 0.02323,0.0398 0.01748,0.056 0.01172,0.0742 -0.0058,0.0182 -0.0098,0.0234 -0.0098,0.0234 l -0.04687,0.0508 0.01563,0.0664 c 0,0 0.303804,1.35616 0.927735,2.77734 0.311965,0.71059 0.703466,1.43906 1.183594,2.02734 0.480127,0.58829 1.052549,1.04196 1.726562,1.17383 0.03831,0.0151 1.930552,0.75517 3.416016,0.26953 l -0.0625,0.006 1.046875,0.16602 -0.0039,0.30469 0.263672,0.004 0.0098,-0.5332 -1.304688,-0.20899 -0.03125,0.0117 c -1.355229,0.44306 -3.261718,-0.27343 -3.261718,-0.27343 l -0.0098,-0.004 -0.01172,-0.002 c -0.589114,-0.11527 -1.115345,-0.52023 -1.572265,-1.08008 -0.456921,-0.55986 -0.840616,-1.2701 -1.146485,-1.9668 -0.603463,-1.37455 -0.892378,-2.65601 -0.90039,-2.6914 0.01024,-0.0183 0.01558,-0.0162 0.02344,-0.041 0.02299,-0.0727 0.02571,-0.18473 -0.03516,-0.28906 -0.121724,-0.20867 -0.426598,-0.38145 -1.175781,-0.52149 z"
           id="path2702"
           sodipodi:nodetypes="ccsccccssccccccccccccssccscc" />
        <path
           style="color:#000000;fill:#000000;-inkscape-stroke:none"
           d="m 70.208984,130.90625 -0.04687,0.25977 c 0.130125,0.0237 0.270822,0.15012 0.398438,0.35742 0.127616,0.2073 0.237755,0.48415 0.324219,0.75781 0.172927,0.54733 0.255859,1.08203 0.255859,1.08203 l 0.0039,0.0273 0.601563,0.91016 2.205078,0.92188 0.103515,-0.24414 -2.132812,-0.89063 -0.527344,-0.79687 c -0.0045,-0.0295 -0.08225,-0.53419 -0.257812,-1.08985 -0.09031,-0.28582 -0.203062,-0.57835 -0.34961,-0.8164 -0.146548,-0.23806 -0.330684,-0.43353 -0.578125,-0.47852 z"
           id="path2737"
           sodipodi:nodetypes="ccsscccccccsscc" />
        <path
           style="color:#000000;fill:#000000;-inkscape-stroke:none"
           d="m 70.208984,130.90625 c 0,0 -0.384221,-9.5e-4 -0.814453,0.20508 -0.430232,0.206 -0.94005,0.62169 -1.253906,1.42773 l 0.232424,0.12309 c 0.290248,-0.74541 0.754946,-1.13069 1.134763,-1.31255 0.379818,-0.18186 0.677735,-0.18164 0.677735,-0.18164 z"
           id="path2739"
           sodipodi:nodetypes="csccscc" />
        <path
           style="color:#000000;fill:#000000;-inkscape-stroke:none"
           d="m 68.154297,132.51367 -2.138672,3.16602 c -0.03129,0.0102 -0.389683,0.13047 -0.824219,0.0957 -0.45306,-0.0362 -0.928971,-0.21941 -1.146484,-0.9082 l -0.251953,0.0801 c 0.248486,0.78687 0.861134,1.05037 1.378906,1.09179 0.517772,0.0414 0.964844,-0.11328 0.964844,-0.11328 l 0.04297,-0.0156 2.19336,-3.24805 z"
           id="path2743"
           sodipodi:nodetypes="cccccscccc" />
        <path
           style="color:#000000;fill:#000000;-inkscape-stroke:none"
           d="m 53.654297,113.66211 c -0.353661,0.0786 -0.633993,0.33098 -0.857422,0.64648 -0.223429,0.31551 -0.394138,0.69951 -0.525391,1.07227 -0.258937,0.73538 -0.35853,1.41476 -0.361328,1.43359 l -0.634765,1.69141 -0.002,0.0117 c 0,0 -0.09635,0.51022 -0.324218,1.13476 -0.227872,0.62454 -0.589216,1.35549 -1.085938,1.78125 -0.294339,0.2523 -0.379668,0.57847 -0.320312,0.87891 0.05936,0.30044 0.241587,0.58019 0.451172,0.82813 0.41917,0.49586 0.964843,0.86523 0.964843,0.86523 l 0.01367,0.01 0.01758,0.006 c 0,0 0.302841,0.10689 0.632813,0.1504 0.164986,0.0217 0.3371,0.0295 0.49414,-0.008 0.157041,-0.0373 0.312649,-0.1392 0.361329,-0.31445 0.05705,-0.20539 0.180423,-0.29033 0.300781,-0.33789 0.08997,-0.0356 0.132915,-0.0316 0.167969,-0.0332 l 1.904296,2.68164 0.08398,-0.0156 c 0.659607,-0.12826 0.931106,0.10033 1.083984,0.35938 0.151253,0.25628 0.154207,0.54646 0.154297,0.55273 -0.08306,0.0905 -0.16705,0.18566 -0.179687,0.30664 -0.017,0.16272 0.01879,0.33594 0.08398,0.51758 0.13039,0.36328 0.385226,0.76153 0.675781,1.11914 0.290555,0.35761 0.615159,0.67226 0.896485,0.85937 0.140662,0.0936 0.268542,0.15879 0.40039,0.17188 0.06592,0.007 0.135419,-0.001 0.197266,-0.0391 0.06185,-0.0378 0.107165,-0.10303 0.128906,-0.17188 0.09055,-0.28674 0.53705,-0.57164 0.935547,-0.69531 0.199249,-0.0618 0.386712,-0.0826 0.474609,-0.0703 0.02076,0.003 0.01189,-0.002 0.01758,0 -0.178742,0.30641 -0.05134,0.68907 0.08594,0.99414 0.137283,0.30507 0.310547,0.54687 0.310547,0.54687 l 0.05273,0.0742 0.884766,-0.23047 0.398437,0.66211 0.03906,0.88281 0.04883,0.0371 c 0,0 0.159671,0.12265 0.445312,0.21094 0.285642,0.0883 0.706599,0.14787 1.251954,0.0469 0.102352,-0.019 0.167605,-0.002 0.228515,0.041 0.06091,0.0427 0.118579,0.12032 0.166016,0.23047 0.09488,0.2203 0.140485,0.56151 0.152344,0.91016 0.02372,0.69729 -0.07612,1.48619 -0.07612,1.48619 l 0.257755,-0.0214 c 0,0 0.108809,-0.74477 0.08398,-1.47461 -0.01241,-0.36492 -0.05586,-0.72544 -0.175782,-1.0039 -0.05996,-0.13924 -0.141393,-0.26219 -0.257812,-0.34375 -0.116419,-0.0816 -0.267962,-0.11358 -0.427735,-0.084 -0.503144,0.0932 -0.876683,0.0377 -1.125,-0.0391 -0.216182,-0.0668 -0.288879,-0.12767 -0.314453,-0.14649 l -0.03516,-0.81054 -0.535156,-0.89063 -0.890625,0.23242 c -0.0375,-0.0551 -0.134648,-0.19114 -0.240235,-0.42578 -0.124842,-0.27742 -0.192698,-0.59237 -0.09961,-0.75195 0.04716,-0.0808 0.06831,-0.19138 0.01367,-0.27539 -0.05464,-0.084 -0.141004,-0.1077 -0.222656,-0.11914 -0.163305,-0.0229 -0.366781,0.0109 -0.589844,0.0801 -0.446127,0.13845 -0.968874,0.41606 -1.111328,0.86718 -0.0074,0.0234 -0.01029,0.0245 -0.01172,0.0254 -0.0014,8.8e-4 -0.0094,0.005 -0.03516,0.002 -0.05155,-0.005 -0.157228,-0.0477 -0.279297,-0.12891 -0.244137,-0.16238 -0.560509,-0.46329 -0.837891,-0.80469 -0.277382,-0.34139 -0.519281,-0.7247 -0.632812,-1.04101 -0.05677,-0.15815 -0.07912,-0.2993 -0.06836,-0.40234 0.01076,-0.10305 0.04455,-0.16561 0.123047,-0.2168 l 0.06055,-0.0391 v -0.0723 c 0,0 0.0033,-0.3602 -0.193359,-0.69336 -0.185549,-0.3144 -0.599685,-0.5666 -1.263672,-0.47656 l -1.90625,-2.6875 -0.06641,-0.002 c 0,0 -0.156601,-0.006 -0.330078,0.0625 -0.173477,0.0686 -0.376787,0.22478 -0.457032,0.51367 -0.01997,0.0719 -0.065,0.10248 -0.167968,0.12695 -0.102965,0.0245 -0.251074,0.0233 -0.398438,0.004 -0.284922,-0.0376 -0.544367,-0.12857 -0.5625,-0.13477 -0.01387,-0.01 -0.518182,-0.35254 -0.900391,-0.80469 -0.193723,-0.22917 -0.347673,-0.48364 -0.392578,-0.71093 -0.0449,-0.2273 -0.0018,-0.42422 0.232422,-0.625 0.560461,-0.4804 0.926606,-1.24517 1.16211,-1.89063 0.231221,-0.63372 0.326447,-1.1374 0.330078,-1.15625 l 0.636718,-1.70117 0.002,-0.0137 c 0,0 0.103113,-0.68761 0.355468,-1.4043 0.126178,-0.35835 0.288903,-0.72156 0.490235,-1.00586 0.201331,-0.2843 0.499486,-0.51733 0.763659,-0.57604 z"
           id="path2745"
           sodipodi:nodetypes="csscccsssscccccsccccscssscccscccsccccccsccssccsscccccccsssscssccsssccccccccscccsscscccsscc" />
        <path
           style="color:#000000;fill:#000000;-inkscape-stroke:none"
           d="m 61.664062,107.83789 c -1.682061,0.1103 -2.407524,0.28681 -2.748046,0.46094 -0.170261,0.0871 -0.259154,0.18669 -0.277344,0.29492 -0.0024,0.0143 0.0074,0.012 0.0078,0.0254 -0.0848,0.0254 -0.318319,0.0853 -0.654297,0.29492 -0.392049,0.24458 -0.82183,0.64424 -0.912109,1.2461 -0.0344,0.22933 -0.211619,0.5353 -0.470703,0.8457 -0.259084,0.3104 -0.594546,0.62869 -0.925781,0.91406 -0.66247,0.57075 -1.306641,1.00586 -1.306641,1.00586 l -0.0098,0.008 -0.777343,0.76368 0.185547,0.18945 0.767578,-0.75391 0.002,-0.002 c 0.01905,-0.0129 0.644445,-0.43589 1.310547,-1.00977 0.338085,-0.29127 0.683234,-0.61728 0.957031,-0.94531 0.273797,-0.32803 0.481319,-0.65671 0.529297,-0.97656 0.07448,-0.49651 0.434799,-0.83832 0.791015,-1.06055 0.356217,-0.22222 0.691407,-0.3125 0.691407,-0.3125 l 0.210937,-0.0586 -0.125,-0.13672 c 2.84e-4,-1.2e-4 0.002,-0.0348 0.125,-0.0977 0.263582,-0.13478 0.999991,-0.32431 2.667964,-0.43369 z"
           id="path2780"
           sodipodi:nodetypes="ccscssssccccccsssscccscc" />
        <path
           style="color:#000000;fill:#000000;-inkscape-stroke:none"
           d="m 64.632812,107.43164 c -0.416461,0.004 -0.886247,0.0508 -1.328125,0.11133 -0.883754,0.12106 -1.660156,0.29883 -1.660156,0.29883 l 0.05859,0.25781 c 0,0 0.768464,-0.17376 1.638672,-0.29297 0.435104,-0.0596 0.894661,-0.1056 1.292969,-0.10937 0.398307,-0.004 0.737348,0.0413 0.904296,0.1289 0.849133,0.44545 1.652683,0.69481 1.654297,0.69531 0,0 1.835803,0.59085 2.982422,2.97852 1.146877,2.3882 0.935547,5.19141 0.935547,5.19141 l 0.263672,0.0215 c 0,0 0.228181,-2.85408 -0.958984,-5.32617 -1.187421,-2.47263 -3.140625,-3.11719 -3.140625,-3.11719 h -0.002 c 0,0 -0.786296,-0.24493 -1.611328,-0.67773 -0.251805,-0.1321 -0.612835,-0.16411 -1.029297,-0.16016 z"
           id="path2782"
           sodipodi:nodetypes="csccscccsccsccscc" />
        <path
           style="color:#000000;fill:#000000;-inkscape-stroke:none"
           d="m 71.228516,114.72266 -0.08008,0.25195 1.558562,0.48643 0.04496,-0.25791 z"
           id="path2784"
           sodipodi:nodetypes="ccccc" />
        <path
           style="fill:#000000;stroke:#000000;stroke-width:0.264583px;stroke-linecap:butt;stroke-linejoin:miter;stroke-opacity:1"
           d="m 105.51338,126.95043 c 0.10428,-0.18695 -0.3395,-0.5545 -0.0772,-0.86436"
           id="path6022"
           sodipodi:nodetypes="cc" />
      </g>
      <path
         style="fill:#000000;stroke:#000000;stroke-width:3.49984;stroke-linejoin:round;paint-order:markers fill stroke"
         d="m 525.6557,799.11739 c -1.11273,-0.70522 -1.07604,-1.37076 0.21301,-3.86351 0.85653,-1.65633 2.24896,-3.27693 3.0943,-3.60131 1.28596,-0.49347 1.53699,-2.98473 1.53699,-15.25311 v -14.66331 l -3.3642,-3.17284 C 518.99466,750.88522 488.238,738.40869 464,732.95208 c -8.95746,-2.01656 -10.37664,-3.00593 -18.11779,-12.63058 -4.16628,-5.17998 -9.21917,-10.46304 -11.22863,-11.74012 -2.00947,-1.27708 -4.47361,-3.23921 -5.47587,-4.3603 -1.00227,-1.12108 -3.05401,-2.54852 -4.55943,-3.17209 -3.19122,-1.32184 -5.66245,-5.0963 -6.59558,-10.07382 -0.58266,-3.10801 -1.4377,-3.92764 -7.23058,-6.93111 -12.46902,-6.46487 -32.03502,-27.58405 -38.24594,-41.28195 -4.98805,-11.00091 -8.67668,-28.39842 -10.60359,-50.01211 -0.33098,-3.7125 -1.04321,-6.75 -1.58274,-6.75 -1.01052,0 -0.59927,7.32535 1.26316,22.5 1.17157,9.54569 4.02792,22.13421 6.83347,30.1165 1.11955,3.18531 1.69984,6.09532 1.28953,6.46669 -3.03023,2.74263 -20.31337,5.13315 -38.24601,5.28999 -16.12697,0.14105 -17.70345,-0.1671 -36.87475,-7.20779 -14.06189,-5.16425 -14.41456,-5.08745 -15.68986,3.41691 -0.50896,3.39394 -0.22782,4.90911 1.32017,7.11498 6.46731,9.21588 6.00657,27.14696 -1.29067,50.23049 -1.80533,5.71082 -3.08199,13.02936 -3.9601,22.70154 -1.26847,13.97171 -1.24393,14.49171 1.15934,24.57223 1.35037,5.66415 2.26631,11.87346 2.03542,13.79846 -0.24928,2.07827 0.59066,6.60981 2.06774,11.15567 2.47654,7.62177 2.47924,7.67241 0.61013,11.43547 -2.9794,5.99839 -5.75835,7.44716 -14.3968,7.50563 -4.11434,0.0278 -11.40361,0.91529 -16.19837,1.9721 -7.44702,1.6414 -10.07075,1.77894 -18,0.94363 -5.10524,-0.53781 -12.1092,-0.98564 -15.56437,-0.99517 -6.3228,-0.0174 -13.21788,-2.05947 -13.21788,-3.91456 0,-0.54961 2.75805,-1.77316 6.129,-2.719 3.37095,-0.94584 9.4315,-3.87561 13.46788,-6.51059 7.38789,-4.82286 22.66367,-18.623 24.58194,-22.2073 1.48774,-2.77987 4.81854,-17.22895 4.83612,-20.97923 0.0312,-6.65674 -4.19092,-43.42862 -5.59019,-48.68665 -1.81111,-6.80562 -3.40565,-21.13397 -3.41655,-30.70078 -0.0105,-9.26332 -1.69239,-17.00086 -4.51962,-20.79318 -5.27859,-7.08046 -5.74951,-18.06125 -1.30827,-30.50604 2.9274,-8.20286 5.01603,-9.33616 23.10534,-12.53704 7.26789,-1.28604 17.26435,-3.3365 22.21435,-4.55658 10.36348,-2.55438 21.49873,-2.88087 50.36863,-1.47682 17.83273,0.86728 18.3519,0.83758 17.79522,-1.01811 -1.90322,-6.34431 -2.83683,-11.72626 -2.41602,-13.92757 0.36752,-1.92255 -0.44152,-3.53578 -3.38756,-6.75482 -2.12872,-2.32598 -5.10266,-6.57986 -6.60875,-9.45307 -2.04416,-3.89968 -3.44675,-5.3796 -5.53272,-5.83775 -3.48935,-0.76639 -13.67355,-10.08213 -16.24784,-14.8623 -1.89744,-3.52334 -2.02172,-3.57706 -8.44836,-3.65202 -3.58743,-0.0418 -8.0976,-0.64155 -10.0226,-1.33268 -4.75062,-1.70561 -9.40035,-8.0875 -12.17965,-16.71692 -1.26093,-3.91507 -2.97384,-7.33551 -3.80648,-7.60097 C 273.21611,507.309 269.5,504.27848 269.5,499.66044 c 0,-0.79138 -0.8532,-2.49253 -1.896,-3.78034 -1.78775,-2.20777 -2.06712,-2.25692 -4.89294,-0.86078 -1.75814,0.86864 -5.2304,4.78551 -8.40027,9.4759 -2.97184,4.39737 -6.1154,8.13234 -6.98569,8.29995 -2.88165,0.55495 -4.8251,-2.6262 -4.8251,-7.89798 0,-5.06962 -0.11593,-5.21414 -5.03664,-6.27917 -1.76201,-0.38136 -2.92452,-1.62169 -3.80682,-4.06166 -0.97876,-2.70672 -1.77338,-3.4603 -3.46336,-3.2845 -1.71892,0.1788 -2.2616,-0.36653 -2.5096,-2.52186 -0.3855,-3.35029 -2.80456,-3.62258 -6.48231,-0.72966 l -2.56845,2.02034 -2.56641,-3.36473 c -1.52212,-1.99559 -2.56641,-4.66954 -2.56641,-6.57137 0,-2.66237 -0.55163,-3.44552 -3.25,-4.61407 -1.82385,-0.78984 -4.56645,-3.39938 -6.25,-5.9468 -3.193,-4.8314 -4.50607,-5.44625 -6.5,-3.04371 -1.76588,2.12775 -2.7607,1.89315 -6.09007,-1.43622 l -2.93622,-2.93622 2.56615,-3.78143 c 1.41138,-2.07979 3.98473,-8.41618 5.71857,-14.08087 l 3.15243,-10.29945 7.67956,-6.48065 c 4.22376,-3.56436 8.42454,-8.0506 9.33508,-9.96941 0.91053,-1.91881 2.64979,-4.01219 3.86501,-4.65195 1.21522,-0.63977 2.43677,-1.50656 2.71456,-1.92622 C 224.10375,410.03316 237.97303,408 243.54384,408 c 5.62308,0 14.03194,4.05541 17.74231,8.55673 3.83331,4.65047 5.97083,10.61494 6.83822,19.08112 0.64472,6.29287 2.37553,8.92444 2.37574,3.61215 l 1.1e-4,-2.75 13.24989,0.0205 c 7.28744,0.0113 16.66861,-0.51811 20.84704,-1.1764 5.89862,-0.9293 8.80257,-0.92921 12.98874,3.9e-4 l 5.3916,1.19729 -3.73875,2.31067 C 315.72037,441.02692 314.37449,443 316.40962,443 c 0.50029,0 4.83296,-2.925 9.62814,-6.5 5.65407,-4.21533 9.66077,-6.5 11.39925,-6.5 1.4744,0 3.55424,-0.66069 4.62186,-1.4682 2.73774,-2.07072 8.94946,-1.87592 20.74883,0.65067 5.60577,1.20037 11.0923,2.10613 12.1923,2.01282 1.1,-0.0933 6.5,-0.64009 12,-1.21505 5.5,-0.57497 10.84254,-1.05455 11.87232,-1.06575 2.27761,-0.0248 15.41162,6.11352 21.71523,10.14878 5.46255,3.49686 7.54933,3.60155 16.52564,0.82905 8.21556,-2.53752 18.38098,-1.99071 25.12708,1.35163 4.18571,2.07381 4.34653,2.07838 12.5,0.35509 4.54285,-0.96016 9.26934,-1.98579 10.5033,-2.27918 l 2.24357,-0.53345 -2.53184,5.53025 c -2.64134,5.76945 -2.58851,9.49797 0.16698,11.78482 2.21475,1.83808 2.72216,0.35383 0.85383,-2.4976 -1.91773,-2.92683 -1.14393,-6.45291 2.55657,-11.64977 1.61298,-2.26523 2.64023,-2.82333 4.38886,-2.38445 2.09751,0.52644 2.33089,0.16852 2.87262,-4.40556 0.48473,-4.09281 0.0739,-6.20605 -2.3092,-11.87799 C 490.84535,417.00364 490.39304,412 492.46476,412 c 0.40232,0 1.54318,1.8 2.53524,4 1.91385,4.24416 2.22074,4.46313 4.35754,3.1092 1.06169,-0.6727 1.14611,-1.85151 0.38738,-5.40897 -1.02169,-4.79037 -0.16668,-13.1094 1.70722,-16.61081 C 502.75395,394.65697 505.583,393 508.43426,393 c 1.13616,0 2.06574,0.13733 2.06574,0.30518 0,0.16785 1.3561,6.50962 3.01355,14.09283 3.44377,15.75603 3.29426,17.3362 -2.55385,26.99126 -1.96194,3.2391 -4.63604,7.9641 -5.94246,10.5 -1.30642,2.5359 -4.69454,6.58033 -7.52917,8.98761 -4.73159,4.01828 -6.0861,4.57366 -16.53171,6.77849 -8.63053,1.82171 -13.10932,3.38277 -18.54866,6.46505 -12.50362,7.08534 -14.92085,7.86433 -19.47208,6.27511 -2.85267,-0.9961 -4.7377,-1.10051 -6.85053,-0.37942 -2.15965,0.73706 -4.42117,0.57219 -8.72829,-0.63633 -5.41585,-1.51961 -6.13969,-1.51466 -10.58509,0.0724 -11.43016,4.08059 -24.178,3.89464 -34.1072,-0.49752 l -4.3685,-1.93239 -4.34719,3.12191 c -4.9857,3.58046 -6.54093,6.42621 -9.68957,17.72992 -1.24259,4.46093 -2.74952,8.1142 -3.34873,8.11836 -0.59922,0.004 -1.56985,1.02008 -2.15695,2.25758 -0.64264,1.35457 -3.3928,3.21441 -6.91051,4.67335 -7.67057,3.18128 -24.59593,15.19982 -30.75956,21.84206 -7.07519,7.62458 -4.77062,7.69913 3.16517,0.1024 8.10416,-7.75791 20.60022,-16.59276 28.54117,-20.17893 8.27925,-3.73894 11.02515,-6.89563 13.05959,-15.01334 2.42409,-9.67246 5.13361,-14.82938 9.16099,-17.43568 l 3.49247,-2.26014 5.96701,2.01014 c 3.28185,1.10557 7.47317,2.01014 9.31403,2.01014 h 3.34703 l 2.52302,8.75 2.52301,8.75 -2.6547,12.55914 -2.65471,12.55915 4.40454,14.37215 c 3.47303,11.33264 5.02031,14.94738 7.3162,17.09207 1.90375,1.77836 2.91168,3.71063 2.91168,5.58187 0,2.28339 1.11729,3.73458 5.52675,7.17841 5.94655,4.64432 15.14808,16.01346 16.13147,19.93158 1.11667,4.44918 -0.46388,12.9461 -3.5743,19.2152 -3.44689,6.94725 -3.46596,7.01043 -2.11586,7.01043 0.53244,0 1.54494,-1.09357 2.25,-2.43015 1.265,-2.39804 1.33381,-2.34374 5.20654,4.10838 4.86214,8.10051 6.5754,14.49724 6.5754,24.55029 0,9.88874 3.15492,24.15442 7.04699,31.86458 2.32326,4.60234 10.25559,18.29209 11.36971,19.62202 0.0991,0.11832 3.29177,-0.26929 7.09477,-0.86137 8.51448,-1.32558 18.46891,0.0891 25.42318,3.61314 6.43171,3.25919 12.77044,10.55831 17.94872,20.66817 4.87167,9.51122 7.3391,11.84748 18.75515,17.75811 11.19037,5.79379 19.37763,15.86364 28.54351,35.10683 3.18192,6.68023 9.81797,22.65922 9.81797,23.64074 0,0.10251 -3.18953,2.02527 -7.08784,4.27282 -5.79038,3.3384 -8.03281,4.08653 -12.25,4.08694 -2.83919,2.8e-4 -7.52949,0.90028 -10.42289,2 -5.57946,2.12065 -9.87355,2.51755 -12.08357,1.11689 z M 431.23211,464.82162 c 1.77766,-1.07944 4.20019,-3.32217 5.38341,-4.98385 2.19032,-3.07602 6.29175,-14.76383 5.46942,-15.58616 -0.96759,-0.96759 -2.58494,0.97895 -2.58494,3.11106 0,1.23455 -1.18031,4.61321 -2.62291,7.50813 -2.69776,5.41371 -7.42484,9.41065 -12.62709,10.67674 -1.5125,0.3681 -2.75,1.10625 -2.75,1.64032 0,1.39779 5.89299,-0.035 9.73211,-2.36624 z"
         id="path7867"
         transform="scale(0.26458333)" />
    </g>
  </g>
</svg>
