<?xml version="1.0" encoding="UTF-8" standalone="no"?>
<!-- Created with Inkscape (http://www.inkscape.org/) -->

<svg
   width="29.562862"
   height="28.879637"
   viewBox="0 0 29.562862 28.879637"
   version="1.1"
   id="SVGRoot"
   sodipodi:docname="favicon.svg"
   inkscape:version="1.1 (c68e22c387, 2021-05-23)"
   xmlns:inkscape="http://www.inkscape.org/namespaces/inkscape"
   xmlns:sodipodi="http://sodipodi.sourceforge.net/DTD/sodipodi-0.dtd"
   xmlns="http://www.w3.org/2000/svg"
   xmlns:svg="http://www.w3.org/2000/svg">
  <sodipodi:namedview
     id="namedview1034"
     pagecolor="#ffffff"
     bordercolor="#666666"
     borderopacity="1.0"
     inkscape:pageshadow="2"
     inkscape:pageopacity="0.0"
     inkscape:pagecheckerboard="0"
     inkscape:document-units="px"
     showgrid="true"
     inkscape:zoom="19.270931"
     inkscape:cx="18.914498"
     inkscape:cy="15.333976"
     inkscape:window-width="1920"
     inkscape:window-height="1017"
     inkscape:window-x="-8"
     inkscape:window-y="-8"
     inkscape:window-maximized="1"
     inkscape:current-layer="layer1"
     fit-margin-top="0"
     fit-margin-left="0"
     fit-margin-right="0"
     fit-margin-bottom="0">
    <inkscape:grid
       type="xygrid"
       id="grid1097"
       originx="406.87711"
       originy="407.0184" />
  </sodipodi:namedview>
  <defs
     id="defs1029">
    <filter
       inkscape:collect="always"
       style="color-interpolation-filters:sRGB"
       id="filter15745"
       x="-0.044548879"
       y="-0.04192653"
       width="1.0890978"
       height="1.0838531">
      <feGaussianBlur
         inkscape:collect="always"
         stdDeviation="3.6260986"
         id="feGaussianBlur15747" />
    </filter>
  </defs>
  <g
     inkscape:label="Layer 1"
     inkscape:groupmode="layer"
     id="layer1"
     transform="translate(406.87711,407.0184)">
    <g
       id="g15769"
       transform="matrix(0.13895222,0,0,0.12836876,-406.85659,-407.92474)"
       style="fill:#2ec782;stroke:none;fill-opacity:1">
      <g
         id="g15257"
         transform="translate(260.97337,-158.16568)"
         style="opacity:0.589286;mix-blend-mode:normal;fill:#2ec782;stroke:none;filter:url(#filter15745);fill-opacity:1">
        <path
           style="fill:#2ec782;stroke:none;stroke-width:1.065;stroke-linecap:butt;stroke-linejoin:miter;stroke-miterlimit:4;stroke-dasharray:none;stroke-opacity:1;fill-opacity:1"
           d="m -58.206313,269.43147 c 0,0 -2.1418,-4.47587 -4.33854,-4.83284"
           id="path15239" />
        <path
           style="fill:#2ec782;fill-opacity:1;stroke:none;stroke-width:3.503;stroke-miterlimit:4;stroke-dasharray:none;paint-order:markers fill stroke"
           d="m -171.93985,378.20003 c -0.96228,-10.77583 -2.7215,-18.52362 -4.67916,-20.60744 -0.6501,-0.69201 -1.47653,-1.05026 -2.42276,-1.05026 -2.61887,0 -8.16721,5.88703 -15.73475,16.69527 -2.11486,3.02052 -3.92034,5.56863 -4.01219,5.66246 -0.0918,0.0938 -0.15297,-1.81462 -0.13586,-4.24099 0.0468,-6.63865 -1.54999,-11.12546 -4.50286,-12.65245 -2.05554,-1.06297 -5.53205,-0.65907 -6.731,0.78198 -0.49736,0.59777 -1.91848,2.28537 -3.15806,3.75021 l -2.25377,2.66336 0.23178,-5.71469 c 0.26094,-6.43377 0.23755,-6.48778 -2.81498,-6.49907 -2.27833,-0.008 -3.0229,0.60648 -6.0685,5.01169 l -2.40643,3.48069 -1.38109,-3.04134 c -9.28499,-20.44683 -12.31055,-31.91378 -11.00365,-41.70408 0.61168,-4.58228 1.13985,-6.34844 2.49616,-8.34708 0.6126,-0.90271 1.01043,-1.74468 0.88407,-1.87103 -0.34975,-0.34975 -5.01516,3.28626 -7.61776,5.93693 -4.07414,4.14942 -6.06348,8.79917 -4.98014,11.64028 0.4623,1.21244 0.25865,1.47305 -0.6814,0.87198 -0.58163,-0.3719 -2.59208,-14.73749 -3.24247,-23.16895 -0.5812,-7.53444 -0.2306,-11.08689 1.33835,-13.56086 2.19495,-3.46108 5.21488,-12.10266 8.27321,-23.67397 0.47224,-1.78672 0.2309,-1.9872 -1.38983,-1.15453 -1.98287,1.01872 -3.38981,2.8194 -4.52588,5.79247 -0.64455,1.68676 -1.74715,3.68103 -2.45022,4.43171 l -1.27832,1.36489 0.29674,-2.85577 c 0.37395,-3.59878 1.32561,-7.29606 2.31773,-9.00456 0.84757,-1.45956 2.13592,-2.20429 17.9956,-10.40235 5.63192,-2.91121 10.13105,-5.40192 9.99805,-5.53491 -0.39602,-0.39602 -6.26419,-0.0959 -11.6706,0.59685 -5.45142,0.69853 -12.13454,2.31308 -15.21508,3.67575 -1.05574,0.467 -1.91954,0.73853 -1.91954,0.60338 0,-0.13515 0.87258,-1.55741 1.93907,-3.16058 2.34079,-3.51875 7.48146,-8.67821 11.29984,-11.34115 8.05218,-5.61559 19.41491,-10.24479 25.31398,-10.31299 1.51026,-0.0174 2.74593,-0.0979 2.74593,-0.17882 0,-0.0809 -0.50097,-1.08928 -1.11326,-2.24085 -1.86196,-3.50186 -2.50198,-6.41773 -2.33398,-10.63332 0.12847,-3.22359 0.37059,-4.26064 1.55705,-6.66912 0.7727,-1.56858 2.29955,-3.78566 3.39299,-4.92683 3.02,-3.15185 2.77232,-3.36366 -5.00607,-4.2813 -2.04761,-0.24156 -4.78256,-0.4392 -6.07766,-0.4392 -2.88716,0 -2.85601,-0.5627 0.13371,-2.41524 1.92157,-1.19067 2.42343,-1.30406 5.23704,-1.18325 9.59957,0.41218 10.85629,0.315 14.16894,-1.09561 3.46712,-1.4764 8.55744,-4.70034 10.21805,-6.47159 l 1.06512,-1.13608 -1.72415,-0.01 c -2.14567,-0.012 -4.86713,-1.24069 -6.42457,-2.90056 l -1.18563,-1.26361 h 6.23815 c 5.09478,0 7.02328,-0.19279 10.5218,-1.05188 2.35601,-0.57853 4.28365,-1.1837 4.28365,-1.34482 0,-0.16113 -1.00895,-0.55154 -2.24211,-0.86759 -2.3075,-0.5914 -8.50523,-3.48911 -8.17306,-3.82128 0.10247,-0.10246 1.94411,0.012 4.09253,0.25432 8.75864,0.98798 20.9629,1.7942 26.75238,1.76727 8.31527,-0.0387 13.29289,1.29377 16.48308,4.41228 1.03215,1.00896 1.74196,1.31072 3.0831,1.31072 1.45645,0 1.74225,0.14593 1.74225,0.88957 0,1.1528 -1.57796,1.74653 -4.64177,1.74653 -4.66344,0 -2.2847,0.74168 4.75161,1.48154 3.92668,0.41289 7.71193,0.86361 8.41168,1.00161 1.33089,0.26246 1.38549,0.025 0.49247,-2.14193 -0.27488,-0.66701 0.0683,-0.62779 2.88288,0.32952 3.57509,1.21596 3.9197,1.27287 3.9197,0.6473 0,-0.24164 -0.24925,-0.43934 -0.55388,-0.43934 -1.37329,0 -7.17704,-4.57398 -12.36271,-9.74314 -3.11703,-3.1071 -5.55687,-5.75973 -5.42188,-5.89473 0.135,-0.135 1.59791,0.34633 3.25091,1.06963 10.6192,4.6466 17.37108,6.81416 24.25603,7.78691 10.129943,1.43122 20.190493,6.43606 24.585183,12.23042 1.96048,2.58487 1.43497,0.60994 -0.96608,-3.63066 -1.35987,-2.40172 -2.47249,-4.48938 -2.47249,-4.63925 0,-0.48874 3.6342,1.55011 8.65221,4.85404 8.73509,5.7513 11.96733,9.85634 12.70541,16.13618 0.25804,2.1956 -0.50674,8.63089 -1.02571,8.63089 -0.13097,0 -1.47273,-1.30968 -2.9817,-2.9104 -2.88245,-3.05772 -4.06418,-3.44382 -3.79639,-1.24035 0.14524,1.19507 -0.0156,1.10475 -2.93167,-1.64611 -5.3629,-5.0591 -12.2764,-8.5056 -19.63634,-9.78906 -5.429923,-0.9469 -5.562573,-0.933 -5.008323,0.52477 0.62331,1.63945 4.839593,7.44845 8.428133,11.61192 2.5261,2.93082 2.82877,3.44923 2.01373,3.44923 -0.52756,0 -3.05162,-1.35797 -5.60902,-3.01772 -6.809983,-4.41965 -13.588333,-8.27743 -17.238893,-9.81124 -2.97178,-1.24861 -3.6612,-1.35884 -9.36856,-1.49796 -6.33499,-0.15441 -8.20528,0.19905 -8.47541,1.60174 -0.0692,0.35909 1.45935,3.29297 3.39667,6.51974 3.00463,5.00445 3.37774,5.83412 2.53826,5.64421 -0.54128,-0.12245 -3.35662,-0.86373 -6.25633,-1.64728 -6.098,-1.64779 -12.16904,-2.0611 -12.41452,-0.84517 -0.0926,0.45863 0.73494,1.09775 2.53587,1.95851 1.47032,0.70275 2.91006,1.56299 3.19942,1.91166 0.45115,0.54359 0.22886,0.58936 -1.55967,0.32115 -2.20088,-0.33004 -2.67113,0.0428 -1.2071,0.95714 1.24393,0.77685 1.08907,1.42001 -0.34191,1.42001 -0.67133,0 -2.68977,0.70409 -4.48543,1.56463 -2.48198,1.18946 -4.05922,2.37833 -6.57784,4.95815 -2.94211,3.01361 -7.41735,9.50973 -6.90459,10.02249 0.10639,0.10639 0.91363,-0.29531 1.79387,-0.89265 1.3206,-0.89619 4.88642,-2.0328 6.37737,-2.0328 0.19943,0 -0.0574,0.84026 -0.57081,1.86724 -0.8385,1.67736 -0.93342,2.60441 -0.93342,9.11649 0,3.9871 0.1612,7.82939 0.35821,8.53844 l 0.3582,1.28917 1.10093,-1.9482 c 1.06401,-1.88285 3.13978,-4.36626 3.64689,-4.36305 0.13602,7.9e-4 0.24731,1.9285 0.24731,4.28365 0,4.01526 1.1646,10.22052 1.91603,10.20901 0.15439,-0.002 0.73101,-0.74377 1.28137,-1.64756 l 1.00065,-1.64326 -0.27638,3.18528 c -0.15201,1.7519 -0.10803,3.18278 0.0977,3.17974 0.20576,-0.003 1.31242,-1.07551 2.45925,-2.38324 2.93316,-3.34471 6.02374,-4.80283 9.66676,-4.56073 2.28596,0.15191 3.17031,0.46569 5.27287,1.87082 1.38944,0.92857 2.52626,1.77719 2.52626,1.88583 0,0.10864 -1.79294,2.10715 -3.98431,4.44113 -4.14407,4.41375 -6.6843,7.82031 -6.42347,8.61413 0.33239,1.01162 2.23966,0.69661 4.62902,-0.76454 4.36959,-2.67211 6.22947,-3.45593 6.21075,-2.61746 -0.004,0.18123 -1.68455,1.40308 -3.73447,2.71523 -2.0912,1.33857 -3.72562,2.68844 -3.72373,3.07544 0.006,1.17576 3.46486,2.80404 6.53617,3.07675 l 2.80509,0.24908 -3.06951,3.14033 c -1.68823,1.72719 -3.71464,3.47395 -4.50313,3.8817 -0.95773,0.49526 -1.28747,0.88749 -0.99334,1.18162 0.51401,0.51401 6.72836,0.6181 8.86642,0.1485 1.34986,-0.29648 1.44705,-0.24683 1.21959,0.623 -0.27604,1.05555 2.01038,7.25075 3.80812,10.31835 1.44703,2.46918 4.16599,4.8037 6.36052,5.4612 0.93974,0.28155 1.95398,0.80756 2.25387,1.16891 1.30951,1.57786 5.13486,0.24402 11.503743,-4.01117 l 4.86506,-3.25046 -0.30356,3.08062 c -0.16695,1.69434 -0.1433,3.07927 0.0526,3.07762 0.19586,-0.002 0.81893,-0.68267 1.38459,-1.51337 0.56567,-0.8307 1.4812,-1.80699 2.03452,-2.16954 1.00024,-0.65538 1.00717,-0.64542 1.20437,1.73253 0.10909,1.31544 0.34402,2.53739 0.52207,2.71545 0.17806,0.17805 1.16554,-0.64662 2.19442,-1.83261 2.17233,-2.50406 2.46215,-2.26876 2.46215,1.99896 0,1.68709 0.19474,2.68786 0.54919,2.8224 0.30205,0.11464 1.84512,-0.16313 3.42903,-0.61728 7.02952,-2.01554 11.85967,-5.65706 14.35464,-10.82215 l 1.48558,-3.07545 -0.202,2.41643 c -0.1111,1.32903 -0.90596,4.28486 -1.76637,6.56852 -0.8604,2.28365 -1.48914,4.22731 -1.39721,4.31924 0.0919,0.0919 0.5795,-0.0535 1.08348,-0.32325 0.50398,-0.26972 0.91633,-0.39589 0.91633,-0.28038 0,0.11551 -0.71147,2.21067 -1.58104,4.6559 -1.80255,5.06879 -1.79971,4.45874 -0.0932,19.98823 1.23757,11.26201 1.29282,19.28424 0.15885,23.06582 -0.74014,2.46824 -1.24691,3.23184 -3.73446,5.62709 -2.8902,2.78294 -6.43774,5.23859 -6.90004,4.77629 -0.13627,-0.13627 0.1765,-0.84356 0.69502,-1.57177 2.0558,-2.88711 2.72308,-5.19442 2.97447,-10.28511 0.16917,-3.42558 0.10297,-4.78379 -0.21824,-4.47771 -0.25359,0.24164 -1.78788,2.81183 -3.40954,5.71154 -3.16744,5.66372 -4.51522,7.30883 -9.014,11.0026 -4.71148,3.8684 -11.07472,6.35969 -16.204983,6.34446 l -2.43395,-0.007 1.74374,-0.98763 c 4.728663,-2.67823 7.839403,-10.41153 8.831033,-21.95391 0.21281,-2.47714 0.15217,-3.40496 -0.22255,-3.40496 -0.2833,0 -1.65395,0.7734 -3.04592,1.71866 -2.08206,1.41391 -2.63086,2.05663 -3.09495,3.62463 -1.525153,5.15302 -7.007053,11.173 -13.010813,14.28789 -6.27451,3.25538 -10.09332,4.02686 -22.39432,4.52417 -12.4551,0.50354 -17.42914,1.66288 -20.26555,4.72341 l -1.04289,1.12529 v -1.97566 c 0,-4.28474 2.17296,-7.74991 7.06808,-11.27134 4.89044,-3.51806 4.64695,-4.59491 -0.56053,-2.47893 -1.48572,0.6037 -2.75965,1.03931 -2.83095,0.968 -0.0713,-0.0713 0.73018,-1.80091 1.78108,-3.84357 3.98875,-7.75307 6.90213,-17.23179 5.67388,-18.46005 -0.60513,-0.60513 -5.40371,2.59278 -8.83578,5.88842 -6.46863,6.2115 -10.99771,14.33039 -13.50258,24.20492 -0.80104,3.15775 -3.79838,11.37476 -4.38531,12.02201 -0.0646,0.0713 -0.25514,-1.41153 -0.42334,-3.29512 z"
           id="path15241" />
        <path
           style="fill:#2ec782;stroke:none;stroke-width:0;stroke-miterlimit:4;stroke-dasharray:none;paint-order:markers fill stroke;fill-opacity:1"
           d="m -96.328009,234.24938 c -0.42716,-0.11918 -1.56304,-0.45053 -2.52417,-0.73633 -6.147041,-1.82787 -10.237051,-2.38852 -13.303121,-1.82358 -0.42624,0.0785 -0.56419,0.0695 -1.13166,-0.074 -1.81175,-0.45815 -4.78143,-1.94765 -8.47736,-4.25199 -1.13804,-0.70954 -1.47396,-0.96378 -1.27341,-0.96378 0.0255,0 0.73328,-0.13921 1.57275,-0.30936 3.03482,-0.6151 5.60866,-0.79924 7.39832,-0.52927 0.74784,0.1128 1.08022,0.0788 1.07796,-0.11028 -0.002,-0.17193 -0.0966,-0.26012 -0.81431,-0.75931 -1.03886,-0.7226 -1.62386,-1.21576 -1.9026,-1.60391 -0.24484,-0.34092 -0.39361,-0.89925 -0.26139,-0.98097 0.091,-0.0563 5.2092,2.23859 5.89199,2.64179 0.53852,0.31802 1.65424,0.79698 1.85651,0.79698 0.0577,0 0.14879,-0.0528 0.20234,-0.11733 0.0838,-0.10103 -0.0726,-0.19884 -1.12685,-0.70428 -0.98162,-0.47065 -1.29822,-0.66294 -1.59767,-0.97038 -0.6074,-0.62359 -1.00417,-1.60574 -1.00417,-2.4857 0,-0.39234 0.0856,-0.42545 0.35704,-0.13815 0.82038,0.86831 5.33833,3.81301 5.66049,3.68938 0.19999,-0.0767 0.13176,-0.24056 -0.16721,-0.40147 -0.74067,-0.39863 -1.25363,-1.75569 -1.69025,-4.47166 -0.17889,-1.1128 -0.36042,-2.7517 -0.46799,-4.22525 l -0.0453,-0.62133 0.43405,1.0485 c 2.39458,5.78431 5.4941,10.4101 8.700231,12.98438 1.20686,0.96902 2.56486,1.73624 3.823116,2.15992 l 0.67671,0.22786 0.0525,-0.32716 c 0.0289,-0.17994 0.0586,-0.51939 0.066,-0.75433 0.007,-0.23495 0.0389,-0.51454 0.0699,-0.62134 0.0542,-0.18658 0.0841,-0.16662 0.76652,0.51135 0.72204,0.71739 1.10086,1.31801 1.10248,1.748 2.6e-4,0.11065 -0.10503,0.41287 -0.23432,0.6716 -0.38469,0.76983 -1.1575,1.37533 -2.05299,1.60852 -0.60316,0.15706 -0.71304,0.14985 -1.634096,-0.10714 z"
           id="path15243" />
        <path
           style="fill:#2ec782;stroke:none;stroke-width:4.15134;paint-order:markers fill stroke;fill-opacity:1"
           d="m -70.354801,232.21715 c -0.71285,-0.34668 -1.78031,-0.75443 -2.37213,-0.90611 -1.05046,-0.26922 -1.07448,-0.29396 -1.0105,-1.04077 0.0759,-0.88564 0.11834,-0.90325 3.57023,-1.48044 1.66454,-0.27833 2.2805,-0.4765 2.57456,-0.82828 l 0.38654,-0.46241 0.007,0.49008 c 0.005,0.33767 0.17973,0.53336 0.56173,0.62924 0.60625,0.15215 0.6062,0.14428 0.0177,2.7946 -0.20047,0.90277 -0.35478,1.14976 -0.79485,1.27228 -0.98308,0.27369 -1.62537,0.17143 -2.94054,-0.46819 z"
           id="path15245" />
        <path
           style="fill:#2ec782;stroke:none;stroke-width:2.351;stroke-miterlimit:4;stroke-dasharray:none;paint-order:markers fill stroke;fill-opacity:1"
           d="m -104.63615,298.55968 c -1.60252,-0.80079 -3.97646,-3.20797 -5.568,-5.64596 -1.06327,-1.62878 -1.24649,-2.22416 -0.47672,-1.54915 0.70456,0.61783 1.76214,1.04042 2.94803,1.17798 1.26539,0.14679 1.23145,0.15711 5.71394,-1.73827 4.439891,-1.87736 10.037196,-3.5174 20.332826,-5.95762 l 5.98254,-1.41795 1.92953,-1.38322 c 1.06124,-0.76077 2.5448,-1.77863 3.29679,-2.26191 0.75199,-0.48329 1.36812,-0.93595 1.36918,-1.00591 0.001,-0.07 -0.48956,-0.3574 -1.09026,-0.63876 l -1.09219,-0.51155 3.79149,-1.25364 c 2.08531,-0.6895 4.10412,-1.4153 4.48623,-1.6129 0.92791,-0.47985 1.15551,-0.45331 1.15806,0.135 0.003,0.61663 0.8624,2.44535 1.61953,3.4449 0.31407,0.41464 1.16613,1.3762 1.89346,2.13681 1.20698,1.26219 1.26948,1.37324 0.71596,1.27214 -0.33356,-0.0609 -0.75475,-0.0106 -0.93598,0.11183 -0.27785,0.18771 -0.23214,0.30117 0.29156,0.72373 0.45048,0.36348 0.70597,0.86211 0.93018,1.81534 0.51683,2.19729 0.40745,2.20965 -1.30854,0.1479 -2.41135,-2.8972 -4.75739,-4.3141 -6.44707,-3.89374 -0.37114,0.0923 -2.05118,1.57049 -4.34002,3.81848 -2.05395,2.0173 -3.9816,3.88207 -4.28365,4.14392 l -0.54919,0.4761 v -1.61543 c 0,-0.88849 -0.0653,-1.68099 -0.14511,-1.76111 -0.37898,-0.38045 -9.59394,1.78403 -13.95547,3.27797 -5.35816,1.83531 -9.084015,3.88587 -11.320015,6.23008 -1.266821,1.32813 -2.148561,2.7858 -2.148561,3.55193 0,0.67591 -1.19747,0.58306 -2.79853,-0.21699 z"
           id="path15247" />
        <path
           style="fill:#2ec782;stroke:none;stroke-width:0.651;stroke-miterlimit:4;stroke-dasharray:none;paint-order:markers fill stroke;fill-opacity:1"
           d="m -72.109412,270.41742 c -2.54227,-3.24763 -3.70717,-4.16813 -8.69704,-6.87239 -4.66318,-2.52722 -6.7687,-3.79049 -7.63602,-4.58148 -1.11359,-1.01557 -2.66878,-4.89216 -2.66878,-6.65239 0,-0.75127 0.49429,-1.4331 0.93997,-1.2966 0.14753,0.0452 0.51861,0.13634 0.82463,0.20256 0.30602,0.0662 1.44283,0.81789 2.52626,1.67038 2.46901,1.94276 3.43304,2.41973 4.89054,2.41973 1.55642,0 2.7815,-0.53055 3.31569,-1.43595 0.46017,-0.77992 1.40024,-1.3468 3.22007,-1.94177 0.98988,-0.32362 1.2219,-0.32847 2.16315,-0.0452 0.57988,0.17452 1.4382,0.57134 1.90737,0.88183 0.82103,0.54332 1.74042,1.93908 1.74042,2.64218 0,0.52838 0.30861,0.39921 0.72326,-0.30271 0.63704,-1.07844 1.68745,-1.83191 2.3358,-1.6755 1.20833,0.29148 5.84475,0.95215 6.00163,0.85519 0.88766,-0.5486 -1.33368,-4.05575 -5.76351,-9.09965 -1.39916,-1.59311 -1.3552,-1.59249 0.98648,0.014 3.93586,2.7001 5.32963,4.75238 5.54837,8.1698 l 0.10796,1.68681 -1.25406,2.37717 c -2.48441,4.70938 -5.12417,8.15479 -6.97073,9.09818 -1.47946,0.75584 -2.31188,2.22219 -2.55869,4.50728 l -0.14505,1.34293 z"
           id="path15249" />
        <path
           style="fill:#2ec782;stroke:none;stroke-width:0.876867;stroke-linecap:butt;stroke-linejoin:miter;stroke-miterlimit:4;stroke-dasharray:none;stroke-opacity:1;fill-opacity:1"
           d="m -95.320743,262.40037 c 0,0 -14.583317,5.59393 -15.365797,13.6436"
           id="path15251" />
        <path
           style="fill:#2ec782;stroke:none;stroke-width:0.876867;stroke-linecap:butt;stroke-linejoin:miter;stroke-miterlimit:4;stroke-dasharray:none;stroke-opacity:1;fill-opacity:1"
           d="m -98.897989,257.5363 c 0,0 -14.583321,5.59394 -15.365801,13.64361"
           id="path15253" />
        <path
           style="fill:#2ec782;stroke:none;stroke-width:0.876867;stroke-linecap:butt;stroke-linejoin:miter;stroke-miterlimit:4;stroke-dasharray:none;stroke-opacity:1;fill-opacity:1"
           d="m -88.748808,265.20016 c 0,0 -14.583322,5.59393 -15.365802,13.6436"
           id="path15255" />
      </g>
      <g
         id="g15237"
         transform="translate(257.45858,-164.31657)"
         style="fill:#2ec782;stroke:none;fill-opacity:1">
        <path
           style="fill:#2ec782;stroke:none;stroke-width:1.065;stroke-linecap:butt;stroke-linejoin:miter;stroke-miterlimit:4;stroke-dasharray:none;stroke-opacity:1;fill-opacity:1"
           d="m -58.206313,269.43147 c 0,0 -2.1418,-4.47587 -4.33854,-4.83284"
           id="path885" />
        <path
           style="fill:#2ec782;fill-opacity:1;stroke:none;stroke-width:3.503;stroke-miterlimit:4;stroke-dasharray:none;paint-order:markers fill stroke"
           d="m -171.93985,378.20003 c -0.96228,-10.77583 -2.7215,-18.52362 -4.67916,-20.60744 -0.6501,-0.69201 -1.47653,-1.05026 -2.42276,-1.05026 -2.61887,0 -8.16721,5.88703 -15.73475,16.69527 -2.11486,3.02052 -3.92034,5.56863 -4.01219,5.66246 -0.0918,0.0938 -0.15297,-1.81462 -0.13586,-4.24099 0.0468,-6.63865 -1.54999,-11.12546 -4.50286,-12.65245 -2.05554,-1.06297 -5.53205,-0.65907 -6.731,0.78198 -0.49736,0.59777 -1.91848,2.28537 -3.15806,3.75021 l -2.25377,2.66336 0.23178,-5.71469 c 0.26094,-6.43377 0.23755,-6.48778 -2.81498,-6.49907 -2.27833,-0.008 -3.0229,0.60648 -6.0685,5.01169 l -2.40643,3.48069 -1.38109,-3.04134 c -9.28499,-20.44683 -12.31055,-31.91378 -11.00365,-41.70408 0.61168,-4.58228 1.13985,-6.34844 2.49616,-8.34708 0.6126,-0.90271 1.01043,-1.74468 0.88407,-1.87103 -0.34975,-0.34975 -5.01516,3.28626 -7.61776,5.93693 -4.07414,4.14942 -6.06348,8.79917 -4.98014,11.64028 0.4623,1.21244 0.25865,1.47305 -0.6814,0.87198 -0.58163,-0.3719 -2.59208,-14.73749 -3.24247,-23.16895 -0.5812,-7.53444 -0.2306,-11.08689 1.33835,-13.56086 2.19495,-3.46108 5.21488,-12.10266 8.27321,-23.67397 0.47224,-1.78672 0.2309,-1.9872 -1.38983,-1.15453 -1.98287,1.01872 -3.38981,2.8194 -4.52588,5.79247 -0.64455,1.68676 -1.74715,3.68103 -2.45022,4.43171 l -1.27832,1.36489 0.29674,-2.85577 c 0.37395,-3.59878 1.32561,-7.29606 2.31773,-9.00456 0.84757,-1.45956 2.13592,-2.20429 17.9956,-10.40235 5.63192,-2.91121 10.13105,-5.40192 9.99805,-5.53491 -0.39602,-0.39602 -6.26419,-0.0959 -11.6706,0.59685 -5.45142,0.69853 -12.13454,2.31308 -15.21508,3.67575 -1.05574,0.467 -1.91954,0.73853 -1.91954,0.60338 0,-0.13515 0.87258,-1.55741 1.93907,-3.16058 2.34079,-3.51875 7.48146,-8.67821 11.29984,-11.34115 8.05218,-5.61559 19.41491,-10.24479 25.31398,-10.31299 1.51026,-0.0174 2.74593,-0.0979 2.74593,-0.17882 0,-0.0809 -0.50097,-1.08928 -1.11326,-2.24085 -1.86196,-3.50186 -2.50198,-6.41773 -2.33398,-10.63332 0.12847,-3.22359 0.37059,-4.26064 1.55705,-6.66912 0.7727,-1.56858 2.29955,-3.78566 3.39299,-4.92683 3.02,-3.15185 2.77232,-3.36366 -5.00607,-4.2813 -2.04761,-0.24156 -4.78256,-0.4392 -6.07766,-0.4392 -2.88716,0 -2.85601,-0.5627 0.13371,-2.41524 1.92157,-1.19067 2.42343,-1.30406 5.23704,-1.18325 9.59957,0.41218 10.85629,0.315 14.16894,-1.09561 3.46712,-1.4764 8.55744,-4.70034 10.21805,-6.47159 l 1.06512,-1.13608 -1.72415,-0.01 c -2.14567,-0.012 -4.86713,-1.24069 -6.42457,-2.90056 l -1.18563,-1.26361 h 6.23815 c 5.09478,0 7.02328,-0.19279 10.5218,-1.05188 2.35601,-0.57853 4.28365,-1.1837 4.28365,-1.34482 0,-0.16113 -1.00895,-0.55154 -2.24211,-0.86759 -2.3075,-0.5914 -8.50523,-3.48911 -8.17306,-3.82128 0.10247,-0.10246 1.94411,0.012 4.09253,0.25432 8.75864,0.98798 20.9629,1.7942 26.75238,1.76727 8.31527,-0.0387 13.29289,1.29377 16.48308,4.41228 1.03215,1.00896 1.74196,1.31072 3.0831,1.31072 1.45645,0 1.74225,0.14593 1.74225,0.88957 0,1.1528 -1.57796,1.74653 -4.64177,1.74653 -4.66344,0 -2.2847,0.74168 4.75161,1.48154 3.92668,0.41289 7.71193,0.86361 8.41168,1.00161 1.33089,0.26246 1.38549,0.025 0.49247,-2.14193 -0.27488,-0.66701 0.0683,-0.62779 2.88288,0.32952 3.57509,1.21596 3.9197,1.27287 3.9197,0.6473 0,-0.24164 -0.24925,-0.43934 -0.55388,-0.43934 -1.37329,0 -7.17704,-4.57398 -12.36271,-9.74314 -3.11703,-3.1071 -5.55687,-5.75973 -5.42188,-5.89473 0.135,-0.135 1.59791,0.34633 3.25091,1.06963 10.6192,4.6466 17.37108,6.81416 24.25603,7.78691 10.129943,1.43122 20.190493,6.43606 24.585183,12.23042 1.96048,2.58487 1.43497,0.60994 -0.96608,-3.63066 -1.35987,-2.40172 -2.47249,-4.48938 -2.47249,-4.63925 0,-0.48874 3.6342,1.55011 8.65221,4.85404 8.73509,5.7513 11.96733,9.85634 12.70541,16.13618 0.25804,2.1956 -0.50674,8.63089 -1.02571,8.63089 -0.13097,0 -1.47273,-1.30968 -2.9817,-2.9104 -2.88245,-3.05772 -4.06418,-3.44382 -3.79639,-1.24035 0.14524,1.19507 -0.0156,1.10475 -2.93167,-1.64611 -5.3629,-5.0591 -12.2764,-8.5056 -19.63634,-9.78906 -5.429923,-0.9469 -5.562573,-0.933 -5.008323,0.52477 0.62331,1.63945 4.839593,7.44845 8.428133,11.61192 2.5261,2.93082 2.82877,3.44923 2.01373,3.44923 -0.52756,0 -3.05162,-1.35797 -5.60902,-3.01772 -6.809983,-4.41965 -13.588333,-8.27743 -17.238893,-9.81124 -2.97178,-1.24861 -3.6612,-1.35884 -9.36856,-1.49796 -6.33499,-0.15441 -8.20528,0.19905 -8.47541,1.60174 -0.0692,0.35909 1.45935,3.29297 3.39667,6.51974 3.00463,5.00445 3.37774,5.83412 2.53826,5.64421 -0.54128,-0.12245 -3.35662,-0.86373 -6.25633,-1.64728 -6.098,-1.64779 -12.16904,-2.0611 -12.41452,-0.84517 -0.0926,0.45863 0.73494,1.09775 2.53587,1.95851 1.47032,0.70275 2.91006,1.56299 3.19942,1.91166 0.45115,0.54359 0.22886,0.58936 -1.55967,0.32115 -2.20088,-0.33004 -2.67113,0.0428 -1.2071,0.95714 1.24393,0.77685 1.08907,1.42001 -0.34191,1.42001 -0.67133,0 -2.68977,0.70409 -4.48543,1.56463 -2.48198,1.18946 -4.05922,2.37833 -6.57784,4.95815 -2.94211,3.01361 -7.41735,9.50973 -6.90459,10.02249 0.10639,0.10639 0.91363,-0.29531 1.79387,-0.89265 1.3206,-0.89619 4.88642,-2.0328 6.37737,-2.0328 0.19943,0 -0.0574,0.84026 -0.57081,1.86724 -0.8385,1.67736 -0.93342,2.60441 -0.93342,9.11649 0,3.9871 0.1612,7.82939 0.35821,8.53844 l 0.3582,1.28917 1.10093,-1.9482 c 1.06401,-1.88285 3.13978,-4.36626 3.64689,-4.36305 0.13602,7.9e-4 0.24731,1.9285 0.24731,4.28365 0,4.01526 1.1646,10.22052 1.91603,10.20901 0.15439,-0.002 0.73101,-0.74377 1.28137,-1.64756 l 1.00065,-1.64326 -0.27638,3.18528 c -0.15201,1.7519 -0.10803,3.18278 0.0977,3.17974 0.20576,-0.003 1.31242,-1.07551 2.45925,-2.38324 2.93316,-3.34471 6.02374,-4.80283 9.66676,-4.56073 2.28596,0.15191 3.17031,0.46569 5.27287,1.87082 1.38944,0.92857 2.52626,1.77719 2.52626,1.88583 0,0.10864 -1.79294,2.10715 -3.98431,4.44113 -4.14407,4.41375 -6.6843,7.82031 -6.42347,8.61413 0.33239,1.01162 2.23966,0.69661 4.62902,-0.76454 4.36959,-2.67211 6.22947,-3.45593 6.21075,-2.61746 -0.004,0.18123 -1.68455,1.40308 -3.73447,2.71523 -2.0912,1.33857 -3.72562,2.68844 -3.72373,3.07544 0.006,1.17576 3.46486,2.80404 6.53617,3.07675 l 2.80509,0.24908 -3.06951,3.14033 c -1.68823,1.72719 -3.71464,3.47395 -4.50313,3.8817 -0.95773,0.49526 -1.28747,0.88749 -0.99334,1.18162 0.51401,0.51401 6.72836,0.6181 8.86642,0.1485 1.34986,-0.29648 1.44705,-0.24683 1.21959,0.623 -0.27604,1.05555 2.01038,7.25075 3.80812,10.31835 1.44703,2.46918 4.16599,4.8037 6.36052,5.4612 0.93974,0.28155 1.95398,0.80756 2.25387,1.16891 1.30951,1.57786 5.13486,0.24402 11.503743,-4.01117 l 4.86506,-3.25046 -0.30356,3.08062 c -0.16695,1.69434 -0.1433,3.07927 0.0526,3.07762 0.19586,-0.002 0.81893,-0.68267 1.38459,-1.51337 0.56567,-0.8307 1.4812,-1.80699 2.03452,-2.16954 1.00024,-0.65538 1.00717,-0.64542 1.20437,1.73253 0.10909,1.31544 0.34402,2.53739 0.52207,2.71545 0.17806,0.17805 1.16554,-0.64662 2.19442,-1.83261 2.17233,-2.50406 2.46215,-2.26876 2.46215,1.99896 0,1.68709 0.19474,2.68786 0.54919,2.8224 0.30205,0.11464 1.84512,-0.16313 3.42903,-0.61728 7.02952,-2.01554 11.85967,-5.65706 14.35464,-10.82215 l 1.48558,-3.07545 -0.202,2.41643 c -0.1111,1.32903 -0.90596,4.28486 -1.76637,6.56852 -0.8604,2.28365 -1.48914,4.22731 -1.39721,4.31924 0.0919,0.0919 0.5795,-0.0535 1.08348,-0.32325 0.50398,-0.26972 0.91633,-0.39589 0.91633,-0.28038 0,0.11551 -0.71147,2.21067 -1.58104,4.6559 -1.80255,5.06879 -1.79971,4.45874 -0.0932,19.98823 1.23757,11.26201 1.29282,19.28424 0.15885,23.06582 -0.74014,2.46824 -1.24691,3.23184 -3.73446,5.62709 -2.8902,2.78294 -6.43774,5.23859 -6.90004,4.77629 -0.13627,-0.13627 0.1765,-0.84356 0.69502,-1.57177 2.0558,-2.88711 2.72308,-5.19442 2.97447,-10.28511 0.16917,-3.42558 0.10297,-4.78379 -0.21824,-4.47771 -0.25359,0.24164 -1.78788,2.81183 -3.40954,5.71154 -3.16744,5.66372 -4.51522,7.30883 -9.014,11.0026 -4.71148,3.8684 -11.07472,6.35969 -16.204983,6.34446 l -2.43395,-0.007 1.74374,-0.98763 c 4.728663,-2.67823 7.839403,-10.41153 8.831033,-21.95391 0.21281,-2.47714 0.15217,-3.40496 -0.22255,-3.40496 -0.2833,0 -1.65395,0.7734 -3.04592,1.71866 -2.08206,1.41391 -2.63086,2.05663 -3.09495,3.62463 -1.525153,5.15302 -7.007053,11.173 -13.010813,14.28789 -6.27451,3.25538 -10.09332,4.02686 -22.39432,4.52417 -12.4551,0.50354 -17.42914,1.66288 -20.26555,4.72341 l -1.04289,1.12529 v -1.97566 c 0,-4.28474 2.17296,-7.74991 7.06808,-11.27134 4.89044,-3.51806 4.64695,-4.59491 -0.56053,-2.47893 -1.48572,0.6037 -2.75965,1.03931 -2.83095,0.968 -0.0713,-0.0713 0.73018,-1.80091 1.78108,-3.84357 3.98875,-7.75307 6.90213,-17.23179 5.67388,-18.46005 -0.60513,-0.60513 -5.40371,2.59278 -8.83578,5.88842 -6.46863,6.2115 -10.99771,14.33039 -13.50258,24.20492 -0.80104,3.15775 -3.79838,11.37476 -4.38531,12.02201 -0.0646,0.0713 -0.25514,-1.41153 -0.42334,-3.29512 z"
           id="path2889" />
        <path
           style="fill:#2ec782;stroke:none;stroke-width:0;stroke-miterlimit:4;stroke-dasharray:none;paint-order:markers fill stroke;fill-opacity:1"
           d="m -96.328009,234.24938 c -0.42716,-0.11918 -1.56304,-0.45053 -2.52417,-0.73633 -6.147041,-1.82787 -10.237051,-2.38852 -13.303121,-1.82358 -0.42624,0.0785 -0.56419,0.0695 -1.13166,-0.074 -1.81175,-0.45815 -4.78143,-1.94765 -8.47736,-4.25199 -1.13804,-0.70954 -1.47396,-0.96378 -1.27341,-0.96378 0.0255,0 0.73328,-0.13921 1.57275,-0.30936 3.03482,-0.6151 5.60866,-0.79924 7.39832,-0.52927 0.74784,0.1128 1.08022,0.0788 1.07796,-0.11028 -0.002,-0.17193 -0.0966,-0.26012 -0.81431,-0.75931 -1.03886,-0.7226 -1.62386,-1.21576 -1.9026,-1.60391 -0.24484,-0.34092 -0.39361,-0.89925 -0.26139,-0.98097 0.091,-0.0563 5.2092,2.23859 5.89199,2.64179 0.53852,0.31802 1.65424,0.79698 1.85651,0.79698 0.0577,0 0.14879,-0.0528 0.20234,-0.11733 0.0838,-0.10103 -0.0726,-0.19884 -1.12685,-0.70428 -0.98162,-0.47065 -1.29822,-0.66294 -1.59767,-0.97038 -0.6074,-0.62359 -1.00417,-1.60574 -1.00417,-2.4857 0,-0.39234 0.0856,-0.42545 0.35704,-0.13815 0.82038,0.86831 5.33833,3.81301 5.66049,3.68938 0.19999,-0.0767 0.13176,-0.24056 -0.16721,-0.40147 -0.74067,-0.39863 -1.25363,-1.75569 -1.69025,-4.47166 -0.17889,-1.1128 -0.36042,-2.7517 -0.46799,-4.22525 l -0.0453,-0.62133 0.43405,1.0485 c 2.39458,5.78431 5.4941,10.4101 8.700231,12.98438 1.20686,0.96902 2.56486,1.73624 3.823116,2.15992 l 0.67671,0.22786 0.0525,-0.32716 c 0.0289,-0.17994 0.0586,-0.51939 0.066,-0.75433 0.007,-0.23495 0.0389,-0.51454 0.0699,-0.62134 0.0542,-0.18658 0.0841,-0.16662 0.76652,0.51135 0.72204,0.71739 1.10086,1.31801 1.10248,1.748 2.6e-4,0.11065 -0.10503,0.41287 -0.23432,0.6716 -0.38469,0.76983 -1.1575,1.37533 -2.05299,1.60852 -0.60316,0.15706 -0.71304,0.14985 -1.634096,-0.10714 z"
           id="path3199" />
        <path
           style="fill:#2ec782;stroke:none;stroke-width:4.15134;paint-order:markers fill stroke;fill-opacity:1"
           d="m -70.354801,232.21715 c -0.71285,-0.34668 -1.78031,-0.75443 -2.37213,-0.90611 -1.05046,-0.26922 -1.07448,-0.29396 -1.0105,-1.04077 0.0759,-0.88564 0.11834,-0.90325 3.57023,-1.48044 1.66454,-0.27833 2.2805,-0.4765 2.57456,-0.82828 l 0.38654,-0.46241 0.007,0.49008 c 0.005,0.33767 0.17973,0.53336 0.56173,0.62924 0.60625,0.15215 0.6062,0.14428 0.0177,2.7946 -0.20047,0.90277 -0.35478,1.14976 -0.79485,1.27228 -0.98308,0.27369 -1.62537,0.17143 -2.94054,-0.46819 z"
           id="path4031" />
        <path
           style="fill:#2ec782;stroke:none;stroke-width:2.351;stroke-miterlimit:4;stroke-dasharray:none;paint-order:markers fill stroke;fill-opacity:1"
           d="m -104.63615,298.55968 c -1.60252,-0.80079 -3.97646,-3.20797 -5.568,-5.64596 -1.06327,-1.62878 -1.24649,-2.22416 -0.47672,-1.54915 0.70456,0.61783 1.76214,1.04042 2.94803,1.17798 1.26539,0.14679 1.23145,0.15711 5.71394,-1.73827 4.439891,-1.87736 10.037196,-3.5174 20.332826,-5.95762 l 5.98254,-1.41795 1.92953,-1.38322 c 1.06124,-0.76077 2.5448,-1.77863 3.29679,-2.26191 0.75199,-0.48329 1.36812,-0.93595 1.36918,-1.00591 0.001,-0.07 -0.48956,-0.3574 -1.09026,-0.63876 l -1.09219,-0.51155 3.79149,-1.25364 c 2.08531,-0.6895 4.10412,-1.4153 4.48623,-1.6129 0.92791,-0.47985 1.15551,-0.45331 1.15806,0.135 0.003,0.61663 0.8624,2.44535 1.61953,3.4449 0.31407,0.41464 1.16613,1.3762 1.89346,2.13681 1.20698,1.26219 1.26948,1.37324 0.71596,1.27214 -0.33356,-0.0609 -0.75475,-0.0106 -0.93598,0.11183 -0.27785,0.18771 -0.23214,0.30117 0.29156,0.72373 0.45048,0.36348 0.70597,0.86211 0.93018,1.81534 0.51683,2.19729 0.40745,2.20965 -1.30854,0.1479 -2.41135,-2.8972 -4.75739,-4.3141 -6.44707,-3.89374 -0.37114,0.0923 -2.05118,1.57049 -4.34002,3.81848 -2.05395,2.0173 -3.9816,3.88207 -4.28365,4.14392 l -0.54919,0.4761 v -1.61543 c 0,-0.88849 -0.0653,-1.68099 -0.14511,-1.76111 -0.37898,-0.38045 -9.59394,1.78403 -13.95547,3.27797 -5.35816,1.83531 -9.084015,3.88587 -11.320015,6.23008 -1.266821,1.32813 -2.148561,2.7858 -2.148561,3.55193 0,0.67591 -1.19747,0.58306 -2.79853,-0.21699 z"
           id="path4107" />
        <path
           style="fill:#2ec782;stroke:none;stroke-width:0.651;stroke-miterlimit:4;stroke-dasharray:none;paint-order:markers fill stroke;fill-opacity:1"
           d="m -72.109412,270.41742 c -2.54227,-3.24763 -3.70717,-4.16813 -8.69704,-6.87239 -4.66318,-2.52722 -6.7687,-3.79049 -7.63602,-4.58148 -1.11359,-1.01557 -2.66878,-4.89216 -2.66878,-6.65239 0,-0.75127 0.49429,-1.4331 0.93997,-1.2966 0.14753,0.0452 0.51861,0.13634 0.82463,0.20256 0.30602,0.0662 1.44283,0.81789 2.52626,1.67038 2.46901,1.94276 3.43304,2.41973 4.89054,2.41973 1.55642,0 2.7815,-0.53055 3.31569,-1.43595 0.46017,-0.77992 1.40024,-1.3468 3.22007,-1.94177 0.98988,-0.32362 1.2219,-0.32847 2.16315,-0.0452 0.57988,0.17452 1.4382,0.57134 1.90737,0.88183 0.82103,0.54332 1.74042,1.93908 1.74042,2.64218 0,0.52838 0.30861,0.39921 0.72326,-0.30271 0.63704,-1.07844 1.68745,-1.83191 2.3358,-1.6755 1.20833,0.29148 5.84475,0.95215 6.00163,0.85519 0.88766,-0.5486 -1.33368,-4.05575 -5.76351,-9.09965 -1.39916,-1.59311 -1.3552,-1.59249 0.98648,0.014 3.93586,2.7001 5.32963,4.75238 5.54837,8.1698 l 0.10796,1.68681 -1.25406,2.37717 c -2.48441,4.70938 -5.12417,8.15479 -6.97073,9.09818 -1.47946,0.75584 -2.31188,2.22219 -2.55869,4.50728 l -0.14505,1.34293 z"
           id="path4146" />
        <path
           style="fill:#2ec782;stroke:none;stroke-width:0.876867;stroke-linecap:butt;stroke-linejoin:miter;stroke-miterlimit:4;stroke-dasharray:none;stroke-opacity:1;fill-opacity:1"
           d="m -95.320743,262.40037 c 0,0 -14.583317,5.59393 -15.365797,13.6436"
           id="path5048" />
        <path
           style="fill:#2ec782;stroke:none;stroke-width:0.876867;stroke-linecap:butt;stroke-linejoin:miter;stroke-miterlimit:4;stroke-dasharray:none;stroke-opacity:1;fill-opacity:1"
           d="m -98.897989,257.5363 c 0,0 -14.583321,5.59394 -15.365801,13.64361"
           id="path5052" />
        <path
           style="fill:#2ec782;stroke:none;stroke-width:0.876867;stroke-linecap:butt;stroke-linejoin:miter;stroke-miterlimit:4;stroke-dasharray:none;stroke-opacity:1;fill-opacity:1"
           d="m -88.748808,265.20016 c 0,0 -14.583322,5.59393 -15.365802,13.6436"
           id="path5044" />
      </g>
    </g>
  </g>
</svg>
