<?xml version="1.0" encoding="UTF-8" standalone="no"?>
<!-- Created with Inkscape (http://www.inkscape.org/) -->

<svg
   width="324.64301mm"
   height="11.49241mm"
   viewBox="0 0 324.64298 11.49241"
   version="1.1"
   id="svg9603"
   inkscape:version="1.1 (c68e22c387, 2021-05-23)"
   sodipodi:docname="grab-banner-pic.svg"
   xmlns:inkscape="http://www.inkscape.org/namespaces/inkscape"
   xmlns:sodipodi="http://sodipodi.sourceforge.net/DTD/sodipodi-0.dtd"
   xmlns="http://www.w3.org/2000/svg"
   xmlns:svg="http://www.w3.org/2000/svg">
  <sodipodi:namedview
     id="namedview9605"
     pagecolor="#ffffff"
     bordercolor="#666666"
     borderopacity="1.0"
     inkscape:pageshadow="2"
     inkscape:pageopacity="0.0"
     inkscape:pagecheckerboard="0"
     inkscape:document-units="mm"
     showgrid="false"
     inkscape:zoom="0.60221661"
     inkscape:cx="618.5482"
     inkscape:cy="93.820063"
     inkscape:window-width="1920"
     inkscape:window-height="1017"
     inkscape:window-x="-8"
     inkscape:window-y="-8"
     inkscape:window-maximized="1"
     inkscape:current-layer="layer1"
     fit-margin-top="0"
     fit-margin-left="0"
     fit-margin-right="0"
     fit-margin-bottom="0" />
  <defs
     id="defs9600" />
  <g
     inkscape:label="Layer 1"
     inkscape:groupmode="layer"
     id="layer1"
     transform="translate(108.76199,7.2481524)">
    <g
       id="g18864"
       transform="translate(0,-0.87869443)">
      <g
         id="g18848"
         transform="translate(-31.193787,-42.616864)">
        <path
           style="color:#000000;font-weight:bold;font-size:10.5833px;font-family:Consolas;-inkscape-font-specification:'Consolas, Bold';fill:#2dc885;fill-opacity:1;stroke-width:0.317717;-inkscape-stroke:none"
           d="m -71.846825,42.682418 q 0,0.663977 -0.248216,1.154205 -0.242011,0.490226 -0.682594,0.812907 -0.440584,0.316476 -1.048713,0.471611 -0.60813,0.155134 -1.327956,0.155134 -0.639157,0 -1.234875,-0.07446 -0.595718,-0.07446 -1.179026,-0.248216 v -1.507913 q 0.285449,0.09928 0.595718,0.186162 0.31027,0.08688 0.620541,0.155136 0.316475,0.06206 0.626745,0.09928 0.31027,0.03724 0.601924,0.03724 0.434378,0 0.738442,-0.07446 0.304065,-0.07446 0.496432,-0.204778 0.192368,-0.130314 0.279244,-0.31027 0.08688,-0.179956 0.08688,-0.397146 0,-0.297859 -0.17375,-0.496431 -0.167546,-0.204779 -0.446789,-0.359914 -0.279243,-0.155135 -0.639157,-0.279243 -0.353708,-0.124108 -0.726031,-0.266833 -0.366119,-0.142723 -0.726032,-0.32268 -0.353708,-0.179957 -0.632951,-0.446788 -0.279244,-0.266833 -0.452994,-0.632951 -0.167546,-0.372325 -0.167546,-0.893579 0,-0.477816 0.17375,-0.905988 0.173752,-0.428172 0.546077,-0.744648 0.372323,-0.322681 0.955631,-0.508843 0.583308,-0.192367 1.408625,-0.192367 0.242012,0 0.502638,0.02482 0.266833,0.01861 0.521254,0.05585 0.260627,0.03103 0.496432,0.08067 0.24201,0.04343 0.440583,0.09308 v 1.396215 q -0.198573,-0.07446 -0.434377,-0.136518 -0.235805,-0.06206 -0.490227,-0.105492 -0.248216,-0.04964 -0.502638,-0.07446 -0.254421,-0.02482 -0.484021,-0.02482 -0.403351,0 -0.682595,0.06825 -0.279242,0.06206 -0.459199,0.179956 -0.179956,0.111701 -0.260626,0.279243 -0.08067,0.167546 -0.08067,0.372324 0,0.254422 0.167546,0.440583 0.17375,0.179958 0.452993,0.328887 0.285449,0.142724 0.639157,0.273037 0.359913,0.124109 0.732237,0.273039 0.378529,0.142723 0.732237,0.328886 0.359913,0.186162 0.639156,0.452994 0.285449,0.266832 0.452995,0.632951 0.173751,0.359913 0.173751,0.856345 z"
           id="path43896" />
        <path
           style="color:#000000;font-weight:bold;font-size:10.5833px;font-family:Consolas;-inkscape-font-specification:'Consolas, Bold';fill:#2dc885;fill-opacity:1;stroke-width:0.317717;-inkscape-stroke:none"
           d="m -64.834722,41.497186 q 0,0.155135 -0.01242,0.403351 -0.0062,0.248216 -0.02482,0.465405 h -4.145203 q 0,0.415762 0.124108,0.732238 0.130313,0.316475 0.359913,0.533664 0.235806,0.210983 0.558487,0.322681 0.328886,0.111701 0.726031,0.111701 0.4592,0 0.980454,-0.06826 0.527458,-0.07446 1.09215,-0.235805 v 1.203848 q -0.24201,0.06826 -0.527459,0.124107 -0.285449,0.05585 -0.583308,0.09928 -0.297859,0.04343 -0.601924,0.06206 -0.304064,0.02482 -0.589512,0.02482 -0.719827,0 -1.290724,-0.204779 -0.570897,-0.204777 -0.968042,-0.601923 -0.397147,-0.403351 -0.60813,-0.992865 -0.210983,-0.589512 -0.210983,-1.365187 0,-0.76947 0.210983,-1.396216 0.210983,-0.63295 0.595718,-1.07974 0.384735,-0.452993 0.93081,-0.695005 0.552281,-0.248216 1.22867,-0.248216 0.670183,0 1.185232,0.210984 0.515048,0.204778 0.86255,0.577103 0.347503,0.372323 0.52746,0.887371 0.179957,0.515049 0.179957,1.129383 z m -1.538941,-0.217188 q 0.0062,-0.372325 -0.09308,-0.645363 -0.09928,-0.279243 -0.273038,-0.459199 -0.167546,-0.179956 -0.397146,-0.266832 -0.223394,-0.08688 -0.484021,-0.08688 -0.570896,0 -0.937015,0.384735 -0.366119,0.378529 -0.434378,1.073535 z"
           id="path43898" />
        <path
           style="color:#000000;font-weight:bold;font-size:10.5833px;font-family:Consolas;-inkscape-font-specification:'Consolas, Bold';fill:#2dc885;fill-opacity:1;stroke-width:0.317717;-inkscape-stroke:none"
           d="M -61.30385,37.544346 H -63.0848 V 36.36532 h 3.332301 v 7.589205 h 1.818181 v 1.179027 h -5.367671 v -1.179027 h 1.998139 z"
           id="path43900" />
        <path
           style="color:#000000;font-weight:bold;font-size:10.5833px;font-family:Consolas;-inkscape-font-specification:'Consolas, Bold';fill:#2dc885;fill-opacity:1;stroke-width:0.317717;-inkscape-stroke:none"
           d="m -50.692615,37.649838 q -0.273039,-0.08688 -0.651568,-0.142725 -0.372324,-0.06206 -0.763264,-0.06206 -0.266832,0 -0.496432,0.07446 -0.229601,0.06826 -0.397145,0.223394 -0.167546,0.155136 -0.266833,0.397146 -0.09307,0.235805 -0.09307,0.577103 v 1.017685 h 2.475954 v 1.179027 h -2.475954 v 4.219672 h -1.526529 v -4.219672 h -1.830593 v -1.179027 h 1.830593 V 38.77921 q 0,-0.670184 0.192367,-1.148 0.198573,-0.484021 0.552281,-0.788086 0.359914,-0.31027 0.862551,-0.452993 0.502637,-0.142725 1.123178,-0.142725 0.409556,0 0.775675,0.05585 0.372324,0.04964 0.6888,0.124107 z m -6.521877,1.179026 z"
           id="path43902" />
        <path
           style="color:#000000;font-weight:bold;font-size:10.5833px;font-family:Consolas;-inkscape-font-specification:'Consolas, Bold';fill:#2dc885;fill-opacity:1;stroke-width:0.317717;-inkscape-stroke:none"
           d="m -48.663449,42.427996 v -1.346572 h 3.859759 v 1.346572 z"
           id="path43904" />
        <path
           style="color:#000000;font-weight:bold;font-size:10.5833px;font-family:Consolas;-inkscape-font-specification:'Consolas, Bold';fill:#2dc885;fill-opacity:1;stroke-width:0.317717;-inkscape-stroke:none"
           d="m -38.964406,38.295199 v 6.838353 h -1.563761 v -6.838353 h -2.221534 v -1.272106 h 6.006828 v 1.272106 z"
           id="path43906" />
        <path
           style="color:#000000;font-weight:bold;font-size:10.5833px;font-family:Consolas;-inkscape-font-specification:'Consolas, Bold';fill:#2dc885;fill-opacity:1;stroke-width:0.317717;-inkscape-stroke:none"
           d="m -31.437258,45.133552 -0.03724,-0.82532 q -0.198573,0.210985 -0.415762,0.390941 -0.217189,0.173751 -0.477815,0.304065 -0.260627,0.130314 -0.570898,0.198573 -0.304064,0.07446 -0.670182,0.07446 -0.484022,0 -0.85014,-0.142724 -0.366119,-0.142725 -0.614335,-0.397145 -0.248216,-0.254422 -0.37853,-0.614335 -0.124108,-0.359914 -0.124108,-0.794292 0,-0.446789 0.186163,-0.825318 0.192367,-0.378529 0.577102,-0.651567 0.390939,-0.273037 0.968042,-0.428173 0.583308,-0.155135 1.365189,-0.155135 h 0.825318 v -0.378529 q 0,-0.24201 -0.06826,-0.434378 -0.06826,-0.198573 -0.223394,-0.335092 -0.148931,-0.136518 -0.390941,-0.210984 -0.24201,-0.07446 -0.595718,-0.07446 -0.558487,0 -1.104562,0.130315 -0.539869,0.124107 -1.048713,0.353707 v -1.210053 q 0.452995,-0.179956 1.042508,-0.297859 0.595719,-0.117909 1.234874,-0.117909 0.701211,0 1.203849,0.136519 0.502637,0.130313 0.825317,0.397146 0.328888,0.266832 0.484022,0.670183 0.155135,0.397146 0.155135,0.93081 v 4.306549 z m -0.21719,-2.786226 h -0.924604 q -0.384735,0 -0.651567,0.07446 -0.266833,0.07446 -0.434378,0.204778 -0.167546,0.130314 -0.248216,0.304064 -0.07446,0.167546 -0.07446,0.359914 0,0.384734 0.248216,0.589513 0.248216,0.198572 0.676389,0.198572 0.316476,0 0.657772,-0.229599 0.341298,-0.2296 0.750854,-0.657772 z"
           id="path43908" />
        <path
           style="color:#000000;font-weight:bold;font-size:10.5833px;font-family:Consolas;-inkscape-font-specification:'Consolas, Bold';fill:#2dc885;fill-opacity:1;stroke-width:0.317717;-inkscape-stroke:none"
           d="m -26.901109,38.828864 v 4.107975 q 0,0.515049 0.192367,0.781881 0.192368,0.260626 0.583307,0.260626 0.378529,0 0.726033,-0.310269 0.353707,-0.316476 0.744648,-0.85014 v -3.990073 h 1.514118 v 6.304688 h -1.309341 l -0.03724,-0.930811 q -0.198573,0.242011 -0.403352,0.440583 -0.204778,0.198573 -0.446788,0.341298 -0.235806,0.136519 -0.521254,0.210983 -0.279243,0.08067 -0.620541,0.08067 -0.48402,0 -0.850139,-0.155134 -0.359914,-0.161341 -0.601924,-0.452994 -0.242011,-0.291655 -0.366119,-0.695005 -0.117908,-0.409557 -0.117908,-0.912195 v -4.232083 z"
           id="path43910" />
        <path
           style="color:#000000;font-weight:bold;font-size:10.5833px;font-family:Consolas;-inkscape-font-specification:'Consolas, Bold';fill:#2dc885;fill-opacity:1;stroke-width:0.317717;-inkscape-stroke:none"
           d="m -16.687019,39.933426 q 0.173752,0.217188 0.242011,0.459199 0.07446,0.235805 0.07446,0.484021 0,0.527459 -0.186162,0.930811 -0.179956,0.403351 -0.515048,0.676388 -0.328886,0.273038 -0.794291,0.415762 -0.4592,0.136519 -1.017686,0.136519 -0.328886,0 -0.608129,-0.06206 -0.279243,-0.06825 -0.421968,-0.155135 -0.105492,0.105492 -0.179956,0.235805 -0.07446,0.124108 -0.07446,0.285449 0,0.09928 0.04964,0.198573 0.04964,0.09928 0.142723,0.179956 0.09928,0.07446 0.2296,0.124108 0.136519,0.04964 0.304065,0.05585 l 1.495502,0.05585 q 0.502637,0.01242 0.905989,0.130313 0.409556,0.111701 0.701209,0.32268 0.291655,0.210985 0.446789,0.515049 0.161341,0.29786 0.161341,0.682594 0,0.440584 -0.198573,0.831524 -0.198572,0.39094 -0.601924,0.676389 -0.397145,0.291653 -0.992864,0.459199 -0.595719,0.167546 -1.383804,0.167546 -0.763265,0 -1.315545,-0.124108 -0.546076,-0.117897 -0.899784,-0.335091 -0.347502,-0.217189 -0.515048,-0.521254 -0.167546,-0.297859 -0.167546,-0.657772 0,-0.217189 0.05585,-0.403351 0.05585,-0.186163 0.167546,-0.359914 0.111701,-0.167545 0.279243,-0.328886 0.167546,-0.161341 0.397146,-0.322681 -0.304065,-0.173751 -0.465406,-0.446788 -0.155135,-0.273038 -0.155135,-0.583308 0,-0.210985 0.05585,-0.390941 0.05585,-0.186162 0.142724,-0.353708 0.09308,-0.167546 0.210984,-0.32268 0.117909,-0.155136 0.248216,-0.304065 -0.229599,-0.2296 -0.384735,-0.552281 -0.148929,-0.328886 -0.148929,-0.819112 0,-0.52746 0.186162,-0.937016 0.192367,-0.415762 0.527459,-0.695005 0.335092,-0.285449 0.794291,-0.428173 0.465405,-0.14893 1.01148,-0.14893 0.279244,0 0.533665,0.03103 0.260627,0.02482 0.471611,0.09308 h 2.184301 v 1.104562 z m -3.568105,6.037854 q 0,0.366119 0.366119,0.53987 0.372323,0.173751 1.042507,0.173751 0.428172,0 0.719826,-0.08067 0.29786,-0.08067 0.484022,-0.210984 0.186162,-0.130313 0.266832,-0.304065 0.08067,-0.17375 0.08067,-0.359912 0,-0.167546 -0.08067,-0.285449 -0.07446,-0.1117 -0.217189,-0.192367 -0.136519,-0.07446 -0.328887,-0.117909 -0.186161,-0.03724 -0.415761,-0.04964 l -1.334161,-0.02482 q -0.179957,0.124109 -0.297859,0.235806 -0.111701,0.1117 -0.179958,0.217189 -0.06206,0.1117 -0.08688,0.223395 -0.01861,0.1117 -0.01861,0.235804 z m 0.254422,-5.057401 q 0,0.502637 0.291653,0.800496 0.297859,0.291654 0.825318,0.291654 0.279244,0 0.484021,-0.09309 0.210985,-0.09308 0.347503,-0.248216 0.136519,-0.155135 0.204778,-0.359913 0.06826,-0.204779 0.06826,-0.428173 0,-0.527458 -0.297859,-0.819113 -0.291655,-0.297859 -0.819113,-0.297859 -0.279243,0 -0.490226,0.09308 -0.204779,0.09309 -0.341298,0.254422 -0.136519,0.155135 -0.204779,0.366118 -0.06826,0.210984 -0.06826,0.440584 z"
           id="path43912" />
        <path
           style="color:#000000;font-weight:bold;font-size:10.5833px;font-family:Consolas;-inkscape-font-specification:'Consolas, Bold';fill:#2dc885;fill-opacity:1;stroke-width:0.317717;-inkscape-stroke:none"
           d="m -10.667779,45.133552 v -4.107976 q 0,-1.036302 -0.76947,-1.036302 -0.384735,0 -0.738442,0.310269 -0.347502,0.310271 -0.738443,0.843936 v 3.990073 h -1.514118 V 36.36532 h 1.514118 v 2.159479 l -0.07446,1.141795 q 0.192367,-0.229601 0.39094,-0.409558 0.198572,-0.186162 0.428172,-0.310269 0.2296,-0.124109 0.496432,-0.186163 0.266832,-0.06825 0.589513,-0.06825 0.484022,0 0.843935,0.16134 0.3599137,0.155135 0.6019238,0.44679 0.2420101,0.285447 0.3599129,0.695004 0.1241085,0.403352 0.1241085,0.905988 v 4.232084 z"
           id="path43914" />
        <path
           style="color:#000000;font-weight:bold;font-size:10.5833px;font-family:Consolas;-inkscape-font-specification:'Consolas, Bold';fill:#2dc885;fill-opacity:1;stroke-width:0.317717;-inkscape-stroke:none"
           d="m -2.2408458,45.071497 q -0.4095524,0.09307 -0.8253131,0.14893 -0.4157606,0.05585 -0.7880876,0.05585 -0.6205369,0 -1.073535,-0.130314 -0.4467899,-0.130313 -0.7446539,-0.397145 -0.2916437,-0.266832 -0.4343734,-0.676388 -0.1365215,-0.415762 -0.1365215,-0.98666 v -3.077879 h -1.6940719 v -1.179026 h 1.6940719 v -1.613404 l 1.5513542,-0.403351 v 2.016755 h 2.4511303 v 1.179026 h -2.4511303 v 2.966183 q 0,0.539869 0.24821,0.819112 0.2482219,0.273038 0.8315333,0.273038 0.372315,0 0.7260291,-0.06206 0.3537022,-0.06206 0.6453579,-0.142725 z"
           id="path43916" />
      </g>
      <text
         xml:space="preserve"
         style="font-style:normal;font-variant:normal;font-weight:bold;font-stretch:normal;font-size:13.0528px;line-height:1.25;font-family:Consolas;-inkscape-font-specification:'Consolas, Bold';font-variant-ligatures:normal;font-variant-caps:normal;font-variant-numeric:normal;font-variant-east-asian:normal;fill:#2dc885;fill-opacity:1;stroke:none;stroke-width:0.416057"
         x="-32.770226"
         y="3.1510139"
         id="text1911"><tspan
           sodipodi:role="line"
           id="tspan1909"
           style="font-style:normal;font-variant:normal;font-weight:bold;font-stretch:normal;font-size:13.0528px;font-family:Consolas;-inkscape-font-specification:'Consolas, Bold';font-variant-ligatures:normal;font-variant-caps:normal;font-variant-numeric:normal;font-variant-east-asian:normal;fill:#2dc885;fill-opacity:1;stroke-width:0.416057"
           x="-32.770226"
           y="3.1510139">.</tspan></text>
    </g>
    <text
       xml:space="preserve"
       style="font-style:normal;font-variant:normal;font-weight:bold;font-stretch:normal;font-size:12.7087px;line-height:1.25;font-family:Consolas;-inkscape-font-specification:'Consolas, Bold';font-variant-ligatures:normal;font-variant-caps:normal;font-variant-numeric:normal;font-variant-east-asian:normal;fill:#2dc885;fill-opacity:1;stroke:none;stroke-width:0.317717"
       x="113.37989"
       y="1.7745283"
       id="text42132"><tspan
         sodipodi:role="line"
         id="tspan875"
         x="113.37989"
         y="1.7745283">Self-Motivated.</tspan></text>
    <text
       xml:space="preserve"
       style="font-style:normal;font-variant:normal;font-weight:bold;font-stretch:normal;font-size:12.7087px;line-height:1.25;font-family:Consolas;-inkscape-font-specification:'Consolas, Bold';font-variant-ligatures:normal;font-variant-caps:normal;font-variant-numeric:normal;font-variant-east-asian:normal;fill:#2dc885;fill-opacity:1;stroke:none;stroke-width:0.317717"
       x="-15.530251"
       y="1.7745283"
       id="text41216"><tspan
         sodipodi:role="line"
         id="tspan855"
         x="-15.530251"
         y="1.7745283">Self-Disciplined.</tspan></text>
  </g>
</svg>
