<?xml version="1.0" encoding="UTF-8" standalone="no"?>
<!-- Created with Inkscape (http://www.inkscape.org/) -->

<svg
   width="324.64301mm"
   height="11.49241mm"
   viewBox="0 0 324.64298 11.49241"
   version="1.1"
   id="svg9603"
   inkscape:version="1.1 (c68e22c387, 2021-05-23)"
   sodipodi:docname="grab-banner-pic.svg"
   xmlns:inkscape="http://www.inkscape.org/namespaces/inkscape"
   xmlns:sodipodi="http://sodipodi.sourceforge.net/DTD/sodipodi-0.dtd"
   xmlns="http://www.w3.org/2000/svg"
   xmlns:svg="http://www.w3.org/2000/svg">
  <sodipodi:namedview
     id="namedview9605"
     pagecolor="#ffffff"
     bordercolor="#666666"
     borderopacity="1.0"
     inkscape:pageshadow="2"
     inkscape:pageopacity="0.0"
     inkscape:pagecheckerboard="0"
     inkscape:document-units="mm"
     showgrid="false"
     inkscape:zoom="0.60221661"
     inkscape:cx="619.37847"
     inkscape:cy="93.820063"
     inkscape:window-width="1920"
     inkscape:window-height="1017"
     inkscape:window-x="-8"
     inkscape:window-y="-8"
     inkscape:window-maximized="1"
     inkscape:current-layer="layer1"
     fit-margin-top="0"
     fit-margin-left="0"
     fit-margin-right="0"
     fit-margin-bottom="0" />
  <defs
     id="defs9600" />
  <g
     inkscape:label="Layer 1"
     inkscape:groupmode="layer"
     id="layer1"
     transform="translate(108.76199,7.2481524)">
    <g
       id="g18864"
       transform="translate(0,-0.87869443)">
      <g
         id="g18848"
         transform="translate(-31.193787,-42.616864)">
        <path
           style="color:#000000;font-weight:bold;font-size:10.5833px;font-family:Consolas;-inkscape-font-specification:'Consolas, Bold';fill:#2dc885;fill-opacity:1;stroke-width:0.317717;-inkscape-stroke:none"
           d="m -71.846825,42.682418 q 0,0.663977 -0.248216,1.154205 -0.242011,0.490226 -0.682594,0.812907 -0.440584,0.316476 -1.048713,0.471611 -0.60813,0.155134 -1.327956,0.155134 -0.639157,0 -1.234875,-0.07446 -0.595718,-0.07446 -1.179026,-0.248216 v -1.507913 q 0.285449,0.09928 0.595718,0.186162 0.31027,0.08688 0.620541,0.155136 0.316475,0.06206 0.626745,0.09928 0.31027,0.03724 0.601924,0.03724 0.434378,0 0.738442,-0.07446 0.304065,-0.07446 0.496432,-0.204778 0.192368,-0.130314 0.279244,-0.31027 0.08688,-0.179956 0.08688,-0.397146 0,-0.297859 -0.17375,-0.496431 -0.167546,-0.204779 -0.446789,-0.359914 -0.279243,-0.155135 -0.639157,-0.279243 -0.353708,-0.124108 -0.726031,-0.266833 -0.366119,-0.142723 -0.726032,-0.32268 -0.353708,-0.179957 -0.632951,-0.446788 -0.279244,-0.266833 -0.452994,-0.632951 -0.167546,-0.372325 -0.167546,-0.893579 0,-0.477816 0.17375,-0.905988 0.173752,-0.428172 0.546077,-0.744648 0.372323,-0.322681 0.955631,-0.508843 0.583308,-0.192367 1.408625,-0.192367 0.242012,0 0.502638,0.02482 0.266833,0.01861 0.521254,0.05585 0.260627,0.03103 0.496432,0.08067 0.24201,0.04343 0.440583,0.09308 v 1.396215 q -0.198573,-0.07446 -0.434377,-0.136518 -0.235805,-0.06206 -0.490227,-0.105492 -0.248216,-0.04964 -0.502638,-0.07446 -0.254421,-0.02482 -0.484021,-0.02482 -0.403351,0 -0.682595,0.06825 -0.279242,0.06206 -0.459199,0.179956 -0.179956,0.111701 -0.260626,0.279243 -0.08067,0.167546 -0.08067,0.372324 0,0.254422 0.167546,0.440583 0.17375,0.179958 0.452993,0.328887 0.285449,0.142724 0.639157,0.273037 0.359913,0.124109 0.732237,0.273039 0.378529,0.142723 0.732237,0.328886 0.359913,0.186162 0.639156,0.452994 0.285449,0.266832 0.452995,0.632951 0.173751,0.359913 0.173751,0.856345 z"
           id="path43896" />
        <path
           style="color:#000000;font-weight:bold;font-size:10.5833px;font-family:Consolas;-inkscape-font-specification:'Consolas, Bold';fill:#2dc885;fill-opacity:1;stroke-width:0.317717;-inkscape-stroke:none"
           d="m -64.834722,41.497186 q 0,0.155135 -0.01242,0.403351 -0.0062,0.248216 -0.02482,0.465405 h -4.145203 q 0,0.415762 0.124108,0.732238 0.130313,0.316475 0.359913,0.533664 0.235806,0.210983 0.558487,0.322681 0.328886,0.111701 0.726031,0.111701 0.4592,0 0.980454,-0.06826 0.527458,-0.07446 1.09215,-0.235805 v 1.203848 q -0.24201,0.06826 -0.527459,0.124107 -0.285449,0.05585 -0.583308,0.09928 -0.297859,0.04343 -0.601924,0.06206 -0.304064,0.02482 -0.589512,0.02482 -0.719827,0 -1.290724,-0.204779 -0.570897,-0.204777 -0.968042,-0.601923 -0.397147,-0.403351 -0.60813,-0.992865 -0.210983,-0.589512 -0.210983,-1.365187 0,-0.76947 0.210983,-1.396216 0.210983,-0.63295 0.595718,-1.07974 0.384735,-0.452993 0.93081,-0.695005 0.552281,-0.248216 1.22867,-0.248216 0.670183,0 1.185232,0.210984 0.515048,0.204778 0.86255,0.577103 0.347503,0.372323 0.52746,0.887371 0.179957,0.515049 0.179957,1.129383 z m -1.538941,-0.217188 q 0.0062,-0.372325 -0.09308,-0.645363 -0.09928,-0.279243 -0.273038,-0.459199 -0.167546,-0.179956 -0.397146,-0.266832 -0.223394,-0.08688 -0.484021,-0.08688 -0.570896,0 -0.937015,0.384735 -0.366119,0.378529 -0.434378,1.073535 z"
           id="path43898" />
        <path
           style="color:#000000;font-weight:bold;font-size:10.5833px;font-family:Consolas;-inkscape-font-specification:'Consolas, Bold';fill:#2dc885;fill-opacity:1;stroke-width:0.317717;-inkscape-stroke:none"
           d="M -61.30385,37.544346 H -63.0848 V 36.36532 h 3.332301 v 7.589205 h 1.818181 v 1.179027 h -5.367671 v -1.179027 h 1.998139 z"
           id="path43900" />
        <path
           style="color:#000000;font-weight:bold;font-size:10.5833px;font-family:Consolas;-inkscape-font-specification:'Consolas, Bold';fill:#2dc885;fill-opacity:1;stroke-width:0.317717;-inkscape-stroke:none"
           d="m -50.692615,37.649838 q -0.273039,-0.08688 -0.651568,-0.142725 -0.372324,-0.06206 -0.763264,-0.06206 -0.266832,0 -0.496432,0.07446 -0.229601,0.06826 -0.397145,0.223394 -0.167546,0.155136 -0.266833,0.397146 -0.09307,0.235805 -0.09307,0.577103 v 1.017685 h 2.475954 v 1.179027 h -2.475954 v 4.219672 h -1.526529 v -4.219672 h -1.830593 v -1.179027 h 1.830593 V 38.77921 q 0,-0.670184 0.192367,-1.148 0.198573,-0.484021 0.552281,-0.788086 0.359914,-0.31027 0.862551,-0.452993 0.502637,-0.142725 1.123178,-0.142725 0.409556,0 0.775675,0.05585 0.372324,0.04964 0.6888,0.124107 z m -6.521877,1.179026 z"
           id="path43902" />
        <path
           style="color:#000000;font-weight:bold;font-size:10.5833px;font-family:Consolas;-inkscape-font-specification:'Consolas, Bold';fill:#2dc885;fill-opacity:1;stroke-width:0.317717;-inkscape-stroke:none"
           d="m -48.663449,42.427996 v -1.346572 h 3.859759 v 1.346572 z"
           id="path43904" />
        <path
           style="color:#000000;font-weight:bold;font-size:10.5833px;font-family:Consolas;-inkscape-font-specification:'Consolas, Bold';fill:#2dc885;fill-opacity:1;stroke-width:0.317717;-inkscape-stroke:none"
           d="m -38.964406,38.295199 v 6.838353 h -1.563761 v -6.838353 h -2.221534 v -1.272106 h 6.006828 v 1.272106 z"
           id="path43906" />
        <path
           style="color:#000000;font-weight:bold;font-size:10.5833px;font-family:Consolas;-inkscape-font-specification:'Consolas, Bold';fill:#2dc885;fill-opacity:1;stroke-width:0.317717;-inkscape-stroke:none"
           d="m -31.437258,45.133552 -0.03724,-0.82532 q -0.198573,0.210985 -0.415762,0.390941 -0.217189,0.173751 -0.477815,0.304065 -0.260627,0.130314 -0.570898,0.198573 -0.304064,0.07446 -0.670182,0.07446 -0.484022,0 -0.85014,-0.142724 -0.366119,-0.142725 -0.614335,-0.397145 -0.248216,-0.254422 -0.37853,-0.614335 -0.124108,-0.359914 -0.124108,-0.794292 0,-0.446789 0.186163,-0.825318 0.192367,-0.378529 0.577102,-0.651567 0.390939,-0.273037 0.968042,-0.428173 0.583308,-0.155135 1.365189,-0.155135 h 0.825318 v -0.378529 q 0,-0.24201 -0.06826,-0.434378 -0.06826,-0.198573 -0.223394,-0.335092 -0.148931,-0.136518 -0.390941,-0.210984 -0.24201,-0.07446 -0.595718,-0.07446 -0.558487,0 -1.104562,0.130315 -0.539869,0.124107 -1.048713,0.353707 v -1.210053 q 0.452995,-0.179956 1.042508,-0.297859 0.595719,-0.117909 1.234874,-0.117909 0.701211,0 1.203849,0.136519 0.502637,0.130313 0.825317,0.397146 0.328888,0.266832 0.484022,0.670183 0.155135,0.397146 0.155135,0.93081 v 4.306549 z m -0.21719,-2.786226 h -0.924604 q -0.384735,0 -0.651567,0.07446 -0.266833,0.07446 -0.434378,0.204778 -0.167546,0.130314 -0.248216,0.304064 -0.07446,0.167546 -0.07446,0.359914 0,0.384734 0.248216,0.589513 0.248216,0.198572 0.676389,0.198572 0.316476,0 0.657772,-0.229599 0.341298,-0.2296 0.750854,-0.657772 z"
           id="path43908" />
        <path
           style="color:#000000;font-weight:bold;font-size:10.5833px;font-family:Consolas;-inkscape-font-specification:'Consolas, Bold';fill:#2dc885;fill-opacity:1;stroke-width:0.317717;-inkscape-stroke:none"
           d="m -26.901109,38.828864 v 4.107975 q 0,0.515049 0.192367,0.781881 0.192368,0.260626 0.583307,0.260626 0.378529,0 0.726033,-0.310269 0.353707,-0.316476 0.744648,-0.85014 v -3.990073 h 1.514118 v 6.304688 h -1.309341 l -0.03724,-0.930811 q -0.198573,0.242011 -0.403352,0.440583 -0.204778,0.198573 -0.446788,0.341298 -0.235806,0.136519 -0.521254,0.210983 -0.279243,0.08067 -0.620541,0.08067 -0.48402,0 -0.850139,-0.155134 -0.359914,-0.161341 -0.601924,-0.452994 -0.242011,-0.291655 -0.366119,-0.695005 -0.117908,-0.409557 -0.117908,-0.912195 v -4.232083 z"
           id="path43910" />
        <path
           style="color:#000000;font-weight:bold;font-size:10.5833px;font-family:Consolas;-inkscape-font-specification:'Consolas, Bold';fill:#2dc885;fill-opacity:1;stroke-width:0.317717;-inkscape-stroke:none"
           d="m -16.687019,39.933426 q 0.173752,0.217188 0.242011,0.459199 0.07446,0.235805 0.07446,0.484021 0,0.527459 -0.186162,0.930811 -0.179956,0.403351 -0.515048,0.676388 -0.328886,0.273038 -0.794291,0.415762 -0.4592,0.136519 -1.017686,0.136519 -0.328886,0 -0.608129,-0.06206 -0.279243,-0.06825 -0.421968,-0.155135 -0.105492,0.105492 -0.179956,0.235805 -0.07446,0.124108 -0.07446,0.285449 0,0.09928 0.04964,0.198573 0.04964,0.09928 0.142723,0.179956 0.09928,0.07446 0.2296,0.124108 0.136519,0.04964 0.304065,0.05585 l 1.495502,0.05585 q 0.502637,0.01242 0.905989,0.130313 0.409556,0.111701 0.701209,0.32268 0.291655,0.210985 0.446789,0.515049 0.161341,0.29786 0.161341,0.682594 0,0.440584 -0.198573,0.831524 -0.198572,0.39094 -0.601924,0.676389 -0.397145,0.291653 -0.992864,0.459199 -0.595719,0.167546 -1.383804,0.167546 -0.763265,0 -1.315545,-0.124108 -0.546076,-0.117897 -0.899784,-0.335091 -0.347502,-0.217189 -0.515048,-0.521254 -0.167546,-0.297859 -0.167546,-0.657772 0,-0.217189 0.05585,-0.403351 0.05585,-0.186163 0.167546,-0.359914 0.111701,-0.167545 0.279243,-0.328886 0.167546,-0.161341 0.397146,-0.322681 -0.304065,-0.173751 -0.465406,-0.446788 -0.155135,-0.273038 -0.155135,-0.583308 0,-0.210985 0.05585,-0.390941 0.05585,-0.186162 0.142724,-0.353708 0.09308,-0.167546 0.210984,-0.32268 0.117909,-0.155136 0.248216,-0.304065 -0.229599,-0.2296 -0.384735,-0.552281 -0.148929,-0.328886 -0.148929,-0.819112 0,-0.52746 0.186162,-0.937016 0.192367,-0.415762 0.527459,-0.695005 0.335092,-0.285449 0.794291,-0.428173 0.465405,-0.14893 1.01148,-0.14893 0.279244,0 0.533665,0.03103 0.260627,0.02482 0.471611,0.09308 h 2.184301 v 1.104562 z m -3.568105,6.037854 q 0,0.366119 0.366119,0.53987 0.372323,0.173751 1.042507,0.173751 0.428172,0 0.719826,-0.08067 0.29786,-0.08067 0.484022,-0.210984 0.186162,-0.130313 0.266832,-0.304065 0.08067,-0.17375 0.08067,-0.359912 0,-0.167546 -0.08067,-0.285449 -0.07446,-0.1117 -0.217189,-0.192367 -0.136519,-0.07446 -0.328887,-0.117909 -0.186161,-0.03724 -0.415761,-0.04964 l -1.334161,-0.02482 q -0.179957,0.124109 -0.297859,0.235806 -0.111701,0.1117 -0.179958,0.217189 -0.06206,0.1117 -0.08688,0.223395 -0.01861,0.1117 -0.01861,0.235804 z m 0.254422,-5.057401 q 0,0.502637 0.291653,0.800496 0.297859,0.291654 0.825318,0.291654 0.279244,0 0.484021,-0.09309 0.210985,-0.09308 0.347503,-0.248216 0.136519,-0.155135 0.204778,-0.359913 0.06826,-0.204779 0.06826,-0.428173 0,-0.527458 -0.297859,-0.819113 -0.291655,-0.297859 -0.819113,-0.297859 -0.279243,0 -0.490226,0.09308 -0.204779,0.09309 -0.341298,0.254422 -0.136519,0.155135 -0.204779,0.366118 -0.06826,0.210984 -0.06826,0.440584 z"
           id="path43912" />
        <path
           style="color:#000000;font-weight:bold;font-size:10.5833px;font-family:Consolas;-inkscape-font-specification:'Consolas, Bold';fill:#2dc885;fill-opacity:1;stroke-width:0.317717;-inkscape-stroke:none"
           d="m -10.667779,45.133552 v -4.107976 q 0,-1.036302 -0.76947,-1.036302 -0.384735,0 -0.738442,0.310269 -0.347502,0.310271 -0.738443,0.843936 v 3.990073 h -1.514118 V 36.36532 h 1.514118 v 2.159479 l -0.07446,1.141795 q 0.192367,-0.229601 0.39094,-0.409558 0.198572,-0.186162 0.428172,-0.310269 0.2296,-0.124109 0.496432,-0.186163 0.266832,-0.06825 0.589513,-0.06825 0.484022,0 0.843935,0.16134 0.3599137,0.155135 0.6019238,0.44679 0.2420101,0.285447 0.3599129,0.695004 0.1241085,0.403352 0.1241085,0.905988 v 4.232084 z"
           id="path43914" />
        <path
           style="color:#000000;font-weight:bold;font-size:10.5833px;font-family:Consolas;-inkscape-font-specification:'Consolas, Bold';fill:#2dc885;fill-opacity:1;stroke-width:0.317717;-inkscape-stroke:none"
           d="m -2.2408458,45.071497 q -0.4095524,0.09307 -0.8253131,0.14893 -0.4157606,0.05585 -0.7880876,0.05585 -0.6205369,0 -1.073535,-0.130314 -0.4467899,-0.130313 -0.7446539,-0.397145 -0.2916437,-0.266832 -0.4343734,-0.676388 -0.1365215,-0.415762 -0.1365215,-0.98666 v -3.077879 h -1.6940719 v -1.179026 h 1.6940719 v -1.613404 l 1.5513542,-0.403351 v 2.016755 h 2.4511303 v 1.179026 h -2.4511303 v 2.966183 q 0,0.539869 0.24821,0.819112 0.2482219,0.273038 0.8315333,0.273038 0.372315,0 0.7260291,-0.06206 0.3537022,-0.06206 0.6453579,-0.142725 z"
           id="path43916" />
      </g>
      <text
         xml:space="preserve"
         style="font-style:normal;font-variant:normal;font-weight:bold;font-stretch:normal;font-size:13.0528px;line-height:1.25;font-family:Consolas;-inkscape-font-specification:'Consolas, Bold';font-variant-ligatures:normal;font-variant-caps:normal;font-variant-numeric:normal;font-variant-east-asian:normal;fill:#2dc885;fill-opacity:1;stroke:none;stroke-width:0.416057"
         x="-32.770226"
         y="3.1510139"
         id="text1911"><tspan
           sodipodi:role="line"
           id="tspan1909"
           style="font-style:normal;font-variant:normal;font-weight:bold;font-stretch:normal;font-size:13.0528px;font-family:Consolas;-inkscape-font-specification:'Consolas, Bold';font-variant-ligatures:normal;font-variant-caps:normal;font-variant-numeric:normal;font-variant-east-asian:normal;fill:#2dc885;fill-opacity:1;stroke-width:0.416057"
           x="-32.770226"
           y="3.1510139">.</tspan></text>
    </g>
    <g
       aria-label="Self-Motivated."
       id="text42132"
       style="font-weight:bold;font-size:12.7087px;line-height:1.25;font-family:Consolas;-inkscape-font-specification:'Consolas, Bold';fill:#2dc885;stroke-width:0.317717">
      <path
         d="m 119.70942,-0.67661264 q 0,0.66397994 -0.24822,1.15420812 -0.24201,0.49022818 -0.68259,0.81291002 -0.44059,0.3164764 -1.04872,0.4716119 -0.60813,0.1551355 -1.32796,0.1551355 -0.63916,0 -1.23488,-0.074465 -0.59572,-0.074465 -1.17903,-0.2482168 V 0.08665402 q 0.28545,0.09928672 0.59572,0.1861626 0.31027,0.0868759 0.62054,0.1551355 0.31648,0.0620542 0.62675,0.0992867 0.31027,0.0372325 0.60193,0.0372325 0.43438,0 0.73844,-0.074465 0.30407,-0.074465 0.49644,-0.20477886 0.19236,-0.13031382 0.27924,-0.310271 0.0869,-0.17995718 0.0869,-0.39714688 0,-0.29786016 -0.17376,-0.4964336 -0.16754,-0.20477888 -0.44679,-0.35991438 -0.27924,-0.1551355 -0.63915,-0.2792439 -0.35371,-0.1241084 -0.72604,-0.266833 -0.36612,-0.1427247 -0.72603,-0.3226819 -0.35371,-0.1799572 -0.63296,-0.4467902 -0.27924,-0.2668331 -0.45299,-0.6329529 -0.16755,-0.3723252 -0.16755,-0.8935804 0,-0.4778174 0.17375,-0.9059914 0.17376,-0.4281739 0.54608,-0.7446504 0.37233,-0.3226818 0.95564,-0.5088444 0.5833,-0.192368 1.40863,-0.192368 0.24201,0 0.50263,0.024822 0.26684,0.018616 0.52126,0.055849 0.26063,0.031027 0.49643,0.080671 0.24202,0.043438 0.44059,0.093081 v 1.3962195 q -0.19857,-0.074465 -0.43438,-0.1365192 -0.23581,-0.062054 -0.49023,-0.1054922 -0.24822,-0.049643 -0.50264,-0.074465 -0.25442,-0.024822 -0.48402,-0.024822 -0.40335,0 -0.6826,0.06826 -0.27924,0.062054 -0.4592,0.1799572 -0.17996,0.1116976 -0.26063,0.2792439 -0.0807,0.1675463 -0.0807,0.3723252 0,0.2544222 0.16755,0.4405848 0.17375,0.1799572 0.453,0.3288873 0.28545,0.1427246 0.63915,0.2730385 0.35992,0.1241084 0.73224,0.2730384 0.37853,0.1427247 0.73224,0.3288873 0.35992,0.1861626 0.63916,0.4529957 0.28545,0.266833 0.453,0.6329528 0.17375,0.3599144 0.17375,0.85634796 z"
         id="path2483" />
      <path
         d="m 126.72154,-1.8618479 q 0,0.1551355 -0.0124,0.4033523 -0.006,0.2482168 -0.0248,0.46540654 h -4.14522 q 0,0.41576314 0.12411,0.73223956 0.13031,0.31647642 0.35991,0.53366612 0.23581,0.21098428 0.55849,0.32268184 0.32889,0.11169756 0.72603,0.11169756 0.45921,0 0.98046,-0.0682596 0.52746,-0.074465 1.09216,-0.23580596 V 1.6069819 q -0.24202,0.06826 -0.52747,0.1241084 -0.28544,0.055849 -0.5833,0.099287 -0.29787,0.043438 -0.60193,0.062054 -0.30407,0.024822 -0.58952,0.024822 -0.71982,0 -1.29072,-0.2047788 -0.5709,-0.2047789 -0.96805,-0.6019258 -0.39715,-0.40335228 -0.60813,-0.99286718 -0.21098,-0.5895149 -0.21098,-1.36519242 0,-0.7694721 0.21098,-1.3962195 0.21098,-0.6329528 0.59572,-1.0797431 0.38474,-0.4529956 0.93081,-0.695007 0.55229,-0.2482168 1.22868,-0.2482168 0.67018,0 1.18523,0.2109843 0.51505,0.2047788 0.86256,0.577104 0.3475,0.3723252 0.52746,0.8873751 0.17995,0.5150499 0.17995,1.1293864 z m -1.53894,-0.2171897 q 0.006,-0.3723252 -0.0931,-0.6453636 -0.0993,-0.2792439 -0.27304,-0.4592011 -0.16755,-0.1799572 -0.39715,-0.2668331 -0.22339,-0.086876 -0.48402,-0.086876 -0.5709,0 -0.93702,0.3847361 -0.36612,0.3785306 -0.43438,1.0735376 z"
         id="path2485" />
      <path
         d="m 130.25243,-5.8147004 h -1.78096 v -1.1790298 h 3.33231 v 7.58922866 h 1.81819 V 1.7745283 h -5.36769 V 0.59549846 h 1.99815 z"
         id="path2487" />
      <path
         d="m 140.8637,-5.7092083 q -0.27304,-0.086876 -0.65157,-0.1427246 -0.37233,-0.062054 -0.76327,-0.062054 -0.26683,0 -0.49643,0.074465 -0.2296,0.06826 -0.39715,0.2233951 -0.16755,0.1551355 -0.26683,0.3971469 -0.0931,0.235806 -0.0931,0.5771041 v 1.0176889 h 2.47597 v 1.1790298 h -2.47597 v 4.2196856 h -1.52653 v -4.2196856 h -1.8306 v -1.1790298 h 1.8306 v -0.9556347 q 0,-0.6701854 0.19237,-1.1480027 0.19857,-0.4840228 0.55228,-0.7880884 0.35992,-0.310271 0.86256,-0.4529956 0.50263,-0.1427247 1.12318,-0.1427247 0.40955,0 0.77567,0.055849 0.37233,0.049643 0.68881,0.1241084 z m -6.5219,1.1790298 z"
         id="path2489" />
      <path
         d="M 142.89287,-0.93103486 V -2.277611 h 3.85977 v 1.34657614 z"
         id="path2491" />
      <path
         d="m 153.67789,1.7745283 -0.14893,-4.5858054 -0.0559,-1.8305989 -0.39094,1.241084 -0.89979,2.76141188 h -0.95563 l -0.81291,-2.76141188 -0.3413,-1.241084 -0.0434,1.7933664 -0.13652,4.6230379 h -1.29693 l 0.39715,-8.110484 h 1.7251 l 0.71363,2.3022108 0.3413,1.2969328 0.34129,-1.2224677 0.75086,-2.3766759 h 1.75613 l 0.40336,8.110484 z"
         id="path2493" />
      <path
         d="m 161.84422,-1.4274685 q 0,0.74465044 -0.21098,1.36519244 -0.21099,0.61433658 -0.60814,1.0549214 -0.39714,0.44058486 -0.97425,0.68259616 -0.5771,0.2420114 -1.31555,0.2420114 -0.70121,0 -1.25349,-0.2047788 -0.55228,-0.2047789 -0.93702,-0.6081312 -0.38473,-0.40955772 -0.58951,-1.01768888 -0.20478,-0.61433658 -0.20478,-1.42724662 0,-0.7508558 0.21098,-1.3651924 0.21719,-0.6143366 0.61434,-1.048716 0.40335,-0.4343794 0.98045,-0.6701853 0.57711,-0.2420114 1.30314,-0.2420114 0.70742,0 1.2597,0.2109843 0.55229,0.2047788 0.93702,0.6143366 0.38474,0.4095577 0.58331,1.0176888 0.20478,0.6019258 0.20478,1.3962195 z m -1.57618,0.037233 q 0,-0.9804564 -0.37232,-1.4706846 -0.36612,-0.4964336 -1.08595,-0.4964336 -0.39715,0 -0.67639,0.1551355 -0.27925,0.1551355 -0.4592,0.428174 -0.17996,0.2668331 -0.26684,0.6267474 -0.0807,0.3599144 -0.0807,0.7694721 0,0.98666178 0.39715,1.4893008 0.39715,0.4964336 1.08595,0.4964336 0.37853,0 0.65777,-0.14893008 0.27925,-0.1551355 0.453,-0.42196856 0.17375,-0.27303848 0.26063,-0.63915826 0.0869,-0.36611978 0.0869,-0.7880883 z"
         id="path2495" />
      <path
         d="m 168.3537,1.7124741 q -0.40955,0.093081 -0.82532,0.14893 -0.41576,0.055849 -0.78809,0.055849 -0.62054,0 -1.07353,-0.1303138 -0.44679,-0.1303138 -0.74465,-0.3971469 -0.29166,-0.266833 -0.43438,-0.67639076 -0.13652,-0.41576314 -0.13652,-0.98666178 V -3.3511487 h -1.69408 v -1.1790298 h 1.69408 v -1.6134092 l 1.55135,-0.4033523 v 2.0167615 h 2.45114 v 1.1790298 h -2.45114 v 2.9661908 q 0,0.53987154 0.24822,0.81911544 0.24822,0.27303848 0.83153,0.27303848 0.37232,0 0.72603,-0.0620542 0.35371,-0.0620542 0.64536,-0.14272466 z"
         id="path2497" />
      <path
         d="m 173.85171,-6.2552852 q 0,0.2047788 -0.0745,0.384736 -0.0745,0.1799572 -0.21098,0.3164764 -0.13032,0.1303139 -0.31027,0.2109843 -0.17996,0.074465 -0.39094,0.074465 -0.21099,0 -0.39715,-0.074465 -0.17996,-0.08067 -0.31648,-0.2109843 -0.13031,-0.1365192 -0.20478,-0.3164764 -0.0745,-0.1799572 -0.0745,-0.384736 0,-0.2047789 0.0745,-0.3847361 0.0745,-0.1799571 0.20478,-0.3164764 0.13652,-0.1365192 0.31648,-0.2109843 0.18616,-0.08067 0.39715,-0.08067 0.21098,0 0.39094,0.08067 0.17995,0.074465 0.31027,0.2109843 0.13652,0.1365193 0.21098,0.3164764 0.0745,0.1799572 0.0745,0.3847361 z m -1.67547,2.9041365 h -1.78095 v -1.1790298 h 3.33231 v 5.12567696 h 1.81819 V 1.7745283 H 170.1781 V 0.59549846 h 1.99814 z"
         id="path2499" />
      <path
         d="m 180.65285,1.7745283 h -1.74372 l -2.50079,-6.3047068 h 1.68788 l 1.30934,3.57432196 0.39094,1.15420812 0.38474,-1.10456476 1.32175,-3.62396532 h 1.62582 z"
         id="path2501" />
      <path
         d="m 188.06833,1.7745283 -0.0372,-0.8253209 q -0.19858,0.2109843 -0.41577,0.3909415 -0.21719,0.1737517 -0.47782,0.3040655 -0.26062,0.1303139 -0.57089,0.1985735 -0.30407,0.074465 -0.67019,0.074465 -0.48402,0 -0.85014,-0.1427246 -0.36612,-0.1427247 -0.61434,-0.3971469 -0.24821,-0.2544222 -0.37853,-0.6143366 -0.12411,-0.35991436 -0.12411,-0.79429376 0,-0.44679024 0.18617,-0.82532086 0.19236,-0.37853058 0.5771,-0.65156908 0.39094,-0.2730385 0.96805,-0.428174 0.5833,-0.1551355 1.36519,-0.1551355 h 0.82532 V -2.469979 q 0,-0.2420114 -0.0683,-0.4343794 -0.0683,-0.1985735 -0.2234,-0.3350927 -0.14893,-0.1365192 -0.39094,-0.2109843 -0.24201,-0.074465 -0.59572,-0.074465 -0.55849,0 -1.10456,0.1303138 -0.53987,0.1241084 -1.04872,0.3537089 v -1.2100569 q 0.453,-0.1799571 1.04251,-0.2978601 0.59572,-0.117903 1.23488,-0.117903 0.70121,0 1.20385,0.1365192 0.50264,0.1303139 0.82532,0.3971469 0.32889,0.2668331 0.48403,0.6701854 0.15513,0.3971469 0.15513,0.930813 v 4.3065615 z m -0.21719,-2.7862336 h -0.92461 q -0.38474,0 -0.65157,0.074465 -0.26683,0.074465 -0.43438,0.20477886 -0.16754,0.13031382 -0.24821,0.30406558 -0.0745,0.16754634 -0.0745,0.35991436 0,0.38473604 0.24822,0.5895149 0.24821,0.19857344 0.67639,0.19857344 0.31647,0 0.65777,-0.22960054 0.3413,-0.22960054 0.75086,-0.65777452 z"
         id="path2503" />
      <path
         d="m 196.30291,1.7124741 q -0.40955,0.093081 -0.82532,0.14893 -0.41576,0.055849 -0.78808,0.055849 -0.62055,0 -1.07354,-0.1303138 -0.44679,-0.1303138 -0.74465,-0.3971469 -0.29166,-0.266833 -0.43438,-0.67639076 -0.13652,-0.41576314 -0.13652,-0.98666178 V -3.3511487 h -1.69408 v -1.1790298 h 1.69408 v -1.6134092 l 1.55135,-0.4033523 v 2.0167615 h 2.45114 v 1.1790298 h -2.45114 v 2.9661908 q 0,0.53987154 0.24822,0.81911544 0.24822,0.27303848 0.83153,0.27303848 0.37232,0 0.72603,-0.0620542 0.35371,-0.0620542 0.64536,-0.14272466 z"
         id="path2505" />
      <path
         d="m 203.58187,-1.8618479 q 0,0.1551355 -0.0124,0.4033523 -0.006,0.2482168 -0.0248,0.46540654 h -4.14522 q 0,0.41576314 0.12411,0.73223956 0.13031,0.31647642 0.35991,0.53366612 0.23581,0.21098428 0.55849,0.32268184 0.32889,0.11169756 0.72604,0.11169756 0.4592,0 0.98045,-0.0682596 0.52746,-0.074465 1.09216,-0.23580596 V 1.6069819 q -0.24202,0.06826 -0.52746,0.1241084 -0.28545,0.055849 -0.58331,0.099287 -0.29786,0.043438 -0.60193,0.062054 -0.30407,0.024822 -0.58952,0.024822 -0.71982,0 -1.29072,-0.2047788 -0.5709,-0.2047789 -0.96805,-0.6019258 -0.39714,-0.40335228 -0.60813,-0.99286718 -0.21098,-0.5895149 -0.21098,-1.36519242 0,-0.7694721 0.21098,-1.3962195 0.21099,-0.6329528 0.59572,-1.0797431 0.38474,-0.4529956 0.93081,-0.695007 0.55229,-0.2482168 1.22868,-0.2482168 0.67018,0 1.18523,0.2109843 0.51505,0.2047788 0.86256,0.577104 0.3475,0.3723252 0.52746,0.8873751 0.17995,0.5150499 0.17995,1.1293864 z m -1.53894,-0.2171897 q 0.006,-0.3723252 -0.0931,-0.6453636 -0.0993,-0.2792439 -0.27304,-0.4592011 -0.16755,-0.1799572 -0.39715,-0.2668331 -0.22339,-0.086876 -0.48402,-0.086876 -0.5709,0 -0.93702,0.3847361 -0.36612,0.3785306 -0.43438,1.0735376 z"
         id="path2507" />
      <path
         d="m 209.04265,1.7745283 -0.0372,-0.93081304 q -0.19857,0.24201134 -0.40955,0.44058484 -0.21099,0.1985734 -0.453,0.3412981 -0.24201,0.1365192 -0.52126,0.2109843 -0.27303,0.08067 -0.60813,0.08067 -0.55848,0 -0.99286,-0.2233951 -0.43438,-0.2233951 -0.73224,-0.6329528 -0.29166,-0.41576318 -0.44679,-1.00527808 -0.15514,-0.5895149 -0.15514,-1.31554902 0,-0.8687588 0.24201,-1.5017117 0.24822,-0.6391582 0.6826,-1.0549214 0.43438,-0.4219685 1.0301,-0.620542 0.59572,-0.2047788 1.29693,-0.2047788 0.23581,0 0.47161,0.031027 0.24201,0.031027 0.42818,0.08067 v -2.4635517 h 1.51412 v 8.7682585 z m -2.76762,-3.10271 q 0,0.52125524 0.0683,0.89358044 0.0745,0.36611978 0.21098,0.60192574 0.14273,0.23580596 0.34751,0.34750352 0.20477,0.10549214 0.4654,0.10549214 0.38474,0 0.73224,-0.310271 0.3475,-0.3102709978 0.73845,-0.85014254 v -2.7552065 q -0.17996,-0.06826 -0.44679,-0.1116975 -0.26063,-0.043438 -0.52746,-0.043438 -0.36612,0 -0.65778,0.1489301 -0.29165,0.1489301 -0.50264,0.4219686 -0.20478,0.2730384 -0.31647,0.6701853 -0.1117,0.3909415 -0.1117,0.8811697 z"
         id="path2509" />
      <path
         d="m 214.65854,-0.51527172 q 0.26063,0 0.48403,0.0992867 0.22339,0.0930813 0.38473,0.26062764 0.16755,0.16134092 0.26063,0.38473604 0.0931,0.22339512 0.0931,0.47781734 0,0.2482168 -0.0931,0.47161188 -0.0931,0.2171897 -0.26063,0.3847361 -0.16134,0.1613409 -0.38473,0.2544222 -0.2234,0.099287 -0.48403,0.099287 -0.24821,0 -0.4654,-0.099287 -0.21719,-0.093081 -0.37853,-0.2544222 -0.16134,-0.1675464 -0.25442,-0.3847361 -0.0931,-0.22339508 -0.0931,-0.47161188 0,-0.25442222 0.0931,-0.47781734 0.0931,-0.22339512 0.25442,-0.38473604 0.16134,-0.16754634 0.37853,-0.26062764 0.21719,-0.0992867 0.4654,-0.0992867 z"
         id="path2511" />
    </g>
    <g
       aria-label="Self-Disciplined."
       id="text41216"
       style="font-weight:bold;font-size:12.7087px;line-height:1.25;font-family:Consolas;-inkscape-font-specification:'Consolas, Bold';fill:#2dc885;stroke-width:0.317717">
      <path
         d="m -9.2007221,-0.67661264 q 0,0.66397994 -0.2482168,1.15420812 -0.2420114,0.49022818 -0.6825961,0.81291002 -0.440585,0.3164764 -1.048716,0.4716119 -0.608131,0.1551355 -1.32796,0.1551355 -0.639158,0 -1.234879,-0.074465 -0.59572,-0.074465 -1.179029,-0.2482168 V 0.08665402 q 0.285449,0.09928672 0.59572,0.1861626 0.310271,0.0868759 0.620542,0.1551355 0.316476,0.0620542 0.626747,0.0992867 0.310271,0.0372325 0.601926,0.0372325 0.434379,0 0.738445,-0.074465 0.304066,-0.074465 0.496434,-0.20477886 0.192368,-0.13031382 0.279244,-0.310271 0.08687,-0.17995718 0.08687,-0.39714688 0,-0.29786016 -0.173751,-0.4964336 -0.167547,-0.20477888 -0.446791,-0.35991438 -0.279243,-0.1551355 -0.639158,-0.2792439 -0.353709,-0.1241084 -0.726034,-0.266833 -0.36612,-0.1427247 -0.726034,-0.3226819 -0.353709,-0.1799572 -0.632953,-0.4467902 -0.279244,-0.2668331 -0.452996,-0.6329529 -0.167546,-0.3723252 -0.167546,-0.8935804 0,-0.4778174 0.173752,-0.9059914 0.173752,-0.4281739 0.546077,-0.7446504 0.372325,-0.3226818 0.955634,-0.5088444 0.58331,-0.192368 1.408631,-0.192368 0.242011,0 0.502639,0.024822 0.266833,0.018616 0.521255,0.055849 0.260628,0.031027 0.496434,0.080671 0.2420111,0.043438 0.4405845,0.093081 v 1.3962195 q -0.1985734,-0.074465 -0.4343795,-0.1365192 -0.235806,-0.062054 -0.490228,-0.1054922 -0.248217,-0.049643 -0.502639,-0.074465 -0.254422,-0.024822 -0.484023,-0.024822 -0.403352,0 -0.682596,0.06826 -0.279244,0.062054 -0.459201,0.1799572 -0.179957,0.1116976 -0.260628,0.2792439 -0.08067,0.1675463 -0.08067,0.3723252 0,0.2544222 0.167546,0.4405848 0.173752,0.1799572 0.452996,0.3288873 0.285449,0.1427246 0.639158,0.2730385 0.359914,0.1241084 0.73224,0.2730384 0.37853,0.1427247 0.732239,0.3288873 0.359915,0.1861626 0.6391584,0.4529957 0.2854494,0.266833 0.4529957,0.6329528 0.1737518,0.3599144 0.1737518,0.85634796 z"
         id="path2430" />
      <path
         d="m -2.1885977,-1.8618479 q 0,0.1551355 -0.012411,0.4033523 -0.00621,0.2482168 -0.024822,0.46540654 h -4.1452206 q 0,0.41576314 0.1241084,0.73223956 0.1303139,0.31647642 0.3599144,0.53366612 0.235806,0.21098428 0.5584878,0.32268184 0.3288873,0.11169756 0.7260341,0.11169756 0.4592011,0 0.9804564,-0.0682596 0.5274607,-0.074465 1.0921539,-0.23580596 V 1.6069819 q -0.2420114,0.06826 -0.5274607,0.1241084 -0.2854493,0.055849 -0.5833095,0.099287 -0.2978601,0.043438 -0.6019257,0.062054 -0.3040656,0.024822 -0.5895149,0.024822 -0.7198287,0 -1.2907274,-0.2047788 -0.5708986,-0.2047789 -0.9680455,-0.6019258 -0.3971469,-0.40335228 -0.6081311,-0.99286718 -0.2109843,-0.5895149 -0.2109843,-1.36519242 0,-0.7694721 0.2109843,-1.3962195 0.2109842,-0.6329528 0.5957203,-1.0797431 0.384736,-0.4529956 0.930813,-0.695007 0.5522824,-0.2482168 1.2286731,-0.2482168 0.6701854,0 1.1852353,0.2109843 0.5150498,0.2047788 0.8625533,0.577104 0.3475036,0.3723252 0.5274607,0.8873751 0.1799572,0.5150499 0.1799572,1.1293864 z m -1.5389441,-0.2171897 q 0.00621,-0.3723252 -0.093081,-0.6453636 -0.099287,-0.2792439 -0.2730385,-0.4592011 -0.1675464,-0.1799572 -0.3971469,-0.2668331 -0.2233951,-0.086876 -0.4840228,-0.086876 -0.5708986,0 -0.9370184,0.3847361 -0.3661198,0.3785306 -0.4343794,1.0735376 z"
         id="path2432" />
      <path
         d="M 1.3422862,-5.8147004 H -0.43866939 V -6.9937302 H 2.8936412 v 7.58922866 h 1.818188 V 1.7745283 H -0.65585909 V 0.59549846 H 1.3422862 Z"
         id="path2434" />
      <path
         d="m 11.953554,-5.7092083 q -0.273038,-0.086876 -0.651569,-0.1427246 -0.372325,-0.062054 -0.763267,-0.062054 -0.266833,0 -0.496433,0.074465 -0.2296007,0.06826 -0.397147,0.2233951 -0.1675464,0.1551355 -0.2668331,0.3971469 -0.093081,0.235806 -0.093081,0.5771041 v 1.0176889 h 2.4759624 v 1.1790298 H 9.2852236 V 1.7745283 H 7.7586903 V -2.4451573 H 5.9280914 v -1.1790298 h 1.8305989 v -0.9556347 q 0,-0.6701854 0.192368,-1.1480027 0.1985735,-0.4840228 0.5522824,-0.7880884 0.3599144,-0.310271 0.8625534,-0.4529956 0.502639,-0.1427247 1.1231809,-0.1427247 0.409558,0 0.775678,0.055849 0.372325,0.049643 0.688801,0.1241084 z m -6.5218962,1.1790298 z"
         id="path2436" />
      <path
         d="M 13.982726,-0.93103486 V -2.277611 h 3.859772 v 1.34657614 z"
         id="path2438" />
      <path
         d="m 26.064681,-2.3831031 q 0,0.9432238 -0.235806,1.71269588 -0.229601,0.76947208 -0.726034,1.31554904 -0.490228,0.53987158 -1.2597,0.83773168 -0.769473,0.2916548 -1.84301,0.2916548 h -2.0602 v -8.110484 h 2.401498 q 0.930813,0 1.62582,0.235806 0.701212,0.2296005 1.166619,0.7136233 0.465406,0.4840227 0.695007,1.2286731 0.235806,0.7446504 0.235806,1.7747502 z m -1.638231,0.099287 q 0,-0.6577745 -0.105492,-1.1728244 -0.105492,-0.5150499 -0.359914,-0.8687588 -0.248217,-0.3599144 -0.670186,-0.546077 -0.421968,-0.1861626 -1.048716,-0.1861626 h -0.775677 v 5.55385094 h 0.670185 q 1.123181,0 1.706491,-0.67018536 0.583309,-0.67018536 0.583309,-2.10984278 z"
         id="path2440" />
      <path
         d="m 30.966961,-6.2552852 q 0,0.2047788 -0.07447,0.384736 -0.07447,0.1799572 -0.210985,0.3164764 -0.130313,0.1303139 -0.310271,0.2109843 -0.179957,0.074465 -0.390941,0.074465 -0.210984,0 -0.397147,-0.074465 -0.179957,-0.08067 -0.316476,-0.2109843 -0.130314,-0.1365192 -0.204779,-0.3164764 -0.07447,-0.1799572 -0.07447,-0.384736 0,-0.2047789 0.07447,-0.3847361 0.07447,-0.1799571 0.204779,-0.3164764 0.136519,-0.1365192 0.316476,-0.2109843 0.186163,-0.08067 0.397147,-0.08067 0.210984,0 0.390941,0.08067 0.179958,0.074465 0.310271,0.2109843 0.13652,0.1365193 0.210985,0.3164764 0.07447,0.1799572 0.07447,0.3847361 z m -1.675464,2.9041365 h -1.780955 v -1.1790298 h 3.33231 V 0.59549846 H 32.66104 V 1.7745283 H 27.293352 V 0.59549846 h 1.998145 z"
         id="path2442" />
      <path
         d="m 39.443562,-0.08089232 q 0,0.53987154 -0.242011,0.92460758 -0.235806,0.37853064 -0.632953,0.62054204 -0.390941,0.2358059 -0.89358,0.3412981 -0.496434,0.1116975 -1.017689,0.1116975 -0.695007,0 -1.253495,-0.06826 -0.558488,-0.062054 -1.054921,-0.1861626 V 0.2976383 q 0.583309,0.24201138 1.160413,0.35370894 0.58331,0.10549214 1.098359,0.10549214 0.595721,0 0.887375,-0.1861626 0.297861,-0.19236802 0.297861,-0.4964336 0,-0.14272466 -0.06206,-0.26062764 -0.06205,-0.11790298 -0.235806,-0.22339512 -0.167546,-0.11169756 -0.477817,-0.22339512 -0.310271,-0.11790298 -0.81291,-0.26062764 -0.465406,-0.13031386 -0.819115,-0.29165476 -0.347504,-0.1675463 -0.577104,-0.3909414 -0.229601,-0.2233952 -0.347504,-0.5150499 -0.111697,-0.2978602 -0.111697,-0.695007 0,-0.3847361 0.173751,-0.7260342 0.173752,-0.3412981 0.51505,-0.5957203 0.347504,-0.2606276 0.862554,-0.4095577 0.515049,-0.1489301 1.203851,-0.1489301 0.59572,0 1.054921,0.062054 0.459201,0.062054 0.81291,0.1365192 v 1.2348786 q -0.539871,-0.1737517 -1.017688,-0.2420114 -0.471612,-0.074465 -0.937019,-0.074465 -0.465406,0 -0.750856,0.1675463 -0.279244,0.1675464 -0.279244,0.4654065 0,0.1427247 0.05585,0.2544223 0.05585,0.1116975 0.21719,0.2171897 0.167546,0.1054921 0.459201,0.2233951 0.29786,0.1116975 0.781883,0.2482168 0.546077,0.1551355 0.918402,0.3350927 0.372325,0.1737517 0.59572,0.3971468 0.229601,0.2233952 0.328888,0.50884448 0.09929,0.28544932 0.09929,0.6515691 z"
         id="path2444" />
      <path
         d="m 46.33158,1.5325169 q -0.44679,0.1799572 -0.924607,0.266833 -0.477818,0.086876 -0.999073,0.086876 -0.750856,0 -1.346576,-0.2047788 -0.59572,-0.2047789 -1.011483,-0.6081312 -0.415764,-0.4033523 -0.639159,-0.99907262 -0.217189,-0.59572032 -0.217189,-1.37760328 0,-0.7570612 0.235806,-1.3713978 0.242011,-0.6143366 0.67639,-1.048716 0.43438,-0.4343794 1.042511,-0.6701853 0.614336,-0.235806 1.365192,-0.235806 0.614337,0 1.0301,0.06826 0.421969,0.062054 0.757061,0.161341 v 1.4706845 q -0.384736,-0.192368 -0.837731,-0.2978602 -0.446791,-0.1054921 -0.850143,-0.1054921 -0.421969,0 -0.757061,0.1427247 -0.335093,0.1427246 -0.564693,0.3971468 -0.229601,0.2544223 -0.353709,0.620542 -0.117903,0.3599144 -0.117903,0.7942938 0,0.45299566 0.130313,0.81291002 0.130314,0.35991436 0.36612,0.61433658 0.242012,0.2482168 0.577104,0.38473604 0.335093,0.13031382 0.744651,0.13031382 0.198573,0 0.415763,-0.0248217 0.223395,-0.0310271 0.440585,-0.0806705 0.223395,-0.0558488 0.434379,-0.1241084 0.21719,-0.0682596 0.403352,-0.14893008 z"
         id="path2446" />
      <path
         d="m 51.928871,-6.2552852 q 0,0.2047788 -0.07447,0.384736 -0.07446,0.1799572 -0.210984,0.3164764 -0.130314,0.1303139 -0.310271,0.2109843 -0.179958,0.074465 -0.390942,0.074465 -0.210984,0 -0.397147,-0.074465 -0.179957,-0.08067 -0.316476,-0.2109843 -0.130314,-0.1365192 -0.204779,-0.3164764 -0.07446,-0.1799572 -0.07446,-0.384736 0,-0.2047789 0.07446,-0.3847361 0.07447,-0.1799571 0.204779,-0.3164764 0.136519,-0.1365192 0.316476,-0.2109843 0.186163,-0.08067 0.397147,-0.08067 0.210984,0 0.390942,0.08067 0.179957,0.074465 0.310271,0.2109843 0.136519,0.1365193 0.210984,0.3164764 0.07447,0.1799572 0.07447,0.3847361 z m -1.675463,2.9041365 h -1.780956 v -1.1790298 h 3.332311 v 5.12567696 h 1.818188 V 1.7745283 H 48.255262 V 0.59549846 h 1.998146 z"
         id="path2448" />
      <path
         d="m 60.877088,-1.4895227 q 0,0.86875884 -0.248216,1.50171168 -0.242012,0.63295284 -0.682597,1.05492142 -0.434379,0.4157631 -1.030099,0.620542 -0.595721,0.1985734 -1.296933,0.1985734 -0.235806,0 -0.471612,-0.031027 -0.235806,-0.031027 -0.428174,-0.08067 V 4.23808 h -1.514123 v -8.7682585 h 1.309344 l 0.03723,0.930813 q 0.192368,-0.2420113 0.397146,-0.4405848 0.210985,-0.1985734 0.452996,-0.3350927 0.242012,-0.1427246 0.521255,-0.2171897 0.279244,-0.074465 0.626748,-0.074465 0.558488,0 0.992867,0.2233951 0.434379,0.2233951 0.726034,0.6391583 0.29786,0.4095577 0.452996,0.9990726 0.155135,0.5833095 0.155135,1.315549 z m -1.588587,0.062054 q 0,-0.5212552 -0.07446,-0.887375 -0.07447,-0.3661198 -0.21719,-0.6019258 -0.136519,-0.2358059 -0.341298,-0.3412981 -0.198573,-0.1116975 -0.459201,-0.1116975 -0.384736,0 -0.738445,0.310271 -0.347504,0.310271 -0.738445,0.8439371 v 2.75520648 q 0.179957,0.0682596 0.440585,0.11169756 0.266833,0.0434379 0.539871,0.0434379 0.359915,0 0.651569,-0.14893008 0.297861,-0.14893008 0.502639,-0.42196856 0.210985,-0.27303848 0.322682,-0.66397994 0.111698,-0.39714688 0.111698,-0.8873751 z"
         id="path2450" />
      <path
         d="m 64.228009,-5.8147004 h -1.780955 v -1.1790298 h 3.33231 v 7.58922866 h 1.818188 V 1.7745283 H 62.229864 V 0.59549846 h 1.998145 z"
         id="path2452" />
      <path
         d="m 72.890777,-6.2552852 q 0,0.2047788 -0.07447,0.384736 -0.07446,0.1799572 -0.210984,0.3164764 -0.130314,0.1303139 -0.310271,0.2109843 -0.179957,0.074465 -0.390941,0.074465 -0.210985,0 -0.397147,-0.074465 -0.179957,-0.08067 -0.316477,-0.2109843 -0.130314,-0.1365192 -0.204779,-0.3164764 -0.07447,-0.1799572 -0.07447,-0.384736 0,-0.2047789 0.07447,-0.3847361 0.07446,-0.1799571 0.204779,-0.3164764 0.13652,-0.1365192 0.316477,-0.2109843 0.186162,-0.08067 0.397147,-0.08067 0.210984,0 0.390941,0.08067 0.179957,0.074465 0.310271,0.2109843 0.136519,0.1365193 0.210984,0.3164764 0.07447,0.1799572 0.07447,0.3847361 z m -1.675463,2.9041365 h -1.780956 v -1.1790298 h 3.332311 v 5.12567696 h 1.818188 V 1.7745283 H 69.217169 V 0.59549846 h 1.998145 z"
         id="path2454" />
      <path
         d="m 79.927725,1.7745283 v -4.1079881 q 0,-1.0363051 -0.769472,-1.0363051 -0.384736,0 -0.738445,0.310271 -0.347503,0.310271 -0.738445,0.8439371 v 3.9900851 h -1.514122 v -6.3047068 h 1.309344 l 0.03723,0.930813 q 0.192368,-0.2420113 0.397147,-0.4405848 0.210984,-0.1985734 0.452996,-0.3350927 0.242011,-0.1427246 0.521255,-0.2171897 0.279244,-0.074465 0.626747,-0.074465 0.484023,0 0.843937,0.1613409 0.359915,0.1551355 0.601926,0.4467903 0.242012,0.2854493 0.359914,0.695007 0.124109,0.4033523 0.124109,0.9059913 v 4.2320965 z"
         id="path2456" />
      <path
         d="m 88.646335,-1.8618479 q 0,0.1551355 -0.01241,0.4033523 -0.0062,0.2482168 -0.02482,0.46540654 h -4.14522 q 0,0.41576314 0.124108,0.73223956 0.130314,0.31647642 0.359914,0.53366612 0.235806,0.21098428 0.558488,0.32268184 0.328887,0.11169756 0.726034,0.11169756 0.459201,0 0.980457,-0.0682596 0.52746,-0.074465 1.092154,-0.23580596 V 1.6069819 q -0.242012,0.06826 -0.527461,0.1241084 -0.285449,0.055849 -0.58331,0.099287 -0.29786,0.043438 -0.601925,0.062054 -0.304066,0.024822 -0.589515,0.024822 -0.719829,0 -1.290728,-0.2047788 Q 84.1412,1.5076952 83.744053,1.1105483 83.346906,0.70719602 83.135922,0.11768112 q -0.210985,-0.5895149 -0.210985,-1.36519242 0,-0.7694721 0.210985,-1.3962195 0.210984,-0.6329528 0.59572,-1.0797431 0.384736,-0.4529956 0.930813,-0.695007 0.552282,-0.2482168 1.228673,-0.2482168 0.670186,0 1.185235,0.2109843 0.51505,0.2047788 0.862554,0.577104 0.347503,0.3723252 0.52746,0.8873751 0.179958,0.5150499 0.179958,1.1293864 z M 87.10739,-2.0790376 q 0.0062,-0.3723252 -0.09308,-0.6453636 -0.09929,-0.2792439 -0.273038,-0.4592011 -0.167547,-0.1799572 -0.397147,-0.2668331 -0.223395,-0.086876 -0.484023,-0.086876 -0.570899,0 -0.937018,0.3847361 -0.36612,0.3785306 -0.43438,1.0735376 z"
         id="path2458" />
      <path
         d="M 94.107106,1.7745283 94.069873,0.84371526 Q 93.8713,1.0857266 93.660316,1.2843001 93.449331,1.4828735 93.20732,1.6255982 q -0.242011,0.1365192 -0.521255,0.2109843 -0.273039,0.08067 -0.608131,0.08067 -0.558488,0 -0.992868,-0.2233951 -0.434379,-0.2233951 -0.732239,-0.6329528 -0.291655,-0.41576318 -0.44679,-1.00527808 -0.155136,-0.5895149 -0.155136,-1.31554902 0,-0.8687588 0.242012,-1.5017117 0.248216,-0.6391582 0.682596,-1.0549214 0.434379,-0.4219685 1.030099,-0.620542 0.595721,-0.2047788 1.296933,-0.2047788 0.235806,0 0.471612,0.031027 0.242012,0.031027 0.428174,0.08067 v -2.4635517 h 1.514123 v 8.7682585 z m -2.767617,-3.10271 q 0,0.52125524 0.06826,0.89358044 0.07447,0.36611978 0.210985,0.60192574 0.142724,0.23580596 0.347503,0.34750352 0.204779,0.10549214 0.465407,0.10549214 0.384736,0 0.732239,-0.310271 0.347504,-0.3102709978 0.738445,-0.85014254 v -2.7552065 q -0.179957,-0.06826 -0.44679,-0.1116975 -0.260628,-0.043438 -0.527461,-0.043438 -0.36612,0 -0.657774,0.1489301 -0.291655,0.1489301 -0.502639,0.4219686 -0.204779,0.2730384 -0.316477,0.6701853 -0.111697,0.3909415 -0.111697,0.8811697 z"
         id="path2460" />
      <path
         d="m 99.723013,-0.51527172 q 0.260628,0 0.484027,0.0992867 0.22339,0.0930813 0.38473,0.26062764 0.16755,0.16134092 0.26063,0.38473604 0.0931,0.22339512 0.0931,0.47781734 0,0.2482168 -0.0931,0.47161188 -0.0931,0.2171897 -0.26063,0.3847361 -0.16134,0.1613409 -0.38473,0.2544222 -0.223399,0.099287 -0.484027,0.099287 -0.248217,0 -0.465407,-0.099287 -0.217189,-0.093081 -0.37853,-0.2544222 -0.161341,-0.1675464 -0.254422,-0.3847361 -0.09308,-0.22339508 -0.09308,-0.47161188 0,-0.25442222 0.09308,-0.47781734 0.09308,-0.22339512 0.254422,-0.38473604 0.161341,-0.16754634 0.37853,-0.26062764 0.21719,-0.0992867 0.465407,-0.0992867 z"
         id="path2462" />
    </g>
  </g>
</svg>
