<?xml version="1.0" encoding="UTF-8" standalone="no"?>
<!-- Created with Inkscape (http://www.inkscape.org/) -->

<svg
   width="143.14682mm"
   height="119.78497mm"
   viewBox="0 0 143.14681 119.78495"
   version="1.1"
   id="svg845"
   sodipodi:docname="greetings-banner-pic.svg"
   inkscape:version="1.1 (c68e22c387, 2021-05-23)"
   xmlns:inkscape="http://www.inkscape.org/namespaces/inkscape"
   xmlns:sodipodi="http://sodipodi.sourceforge.net/DTD/sodipodi-0.dtd"
   xmlns="http://www.w3.org/2000/svg"
   xmlns:svg="http://www.w3.org/2000/svg">
  <sodipodi:namedview
     id="namedview12"
     pagecolor="#ffffff"
     bordercolor="#666666"
     borderopacity="1.0"
     inkscape:pageshadow="2"
     inkscape:pageopacity="0.0"
     inkscape:pagecheckerboard="0"
     inkscape:document-units="mm"
     showgrid="false"
     inkscape:zoom="1.2182039"
     inkscape:cx="56.230323"
     inkscape:cy="334.50886"
     inkscape:window-width="1920"
     inkscape:window-height="1017"
     inkscape:window-x="-8"
     inkscape:window-y="-8"
     inkscape:window-maximized="1"
     inkscape:current-layer="svg845"
     fit-margin-top="0"
     fit-margin-left="0"
     fit-margin-right="0"
     fit-margin-bottom="0"
     lock-margins="true"
     showguides="false" />
  <defs
     id="defs842">
    <rect
       x="-1213.2616"
       y="-1.6417613"
       width="339.84457"
       height="183.87726"
       id="rect7937" />
    <rect
       x="-243.20866"
       y="71.97583"
       width="214.7666"
       height="171.81328"
       id="rect7878" />
    <rect
       x="-772.1474"
       y="214.20863"
       width="513.10443"
       height="371.9592"
       id="rect16165" />
    <filter
       inkscape:collect="always"
       style="color-interpolation-filters:sRGB"
       id="filter1265"
       x="-0.26390236"
       y="-2.3751213"
       width="1.5278047"
       height="5.7502427">
      <feGaussianBlur
         inkscape:collect="always"
         stdDeviation="5.457531"
         id="feGaussianBlur1267" />
    </filter>
    <filter
       inkscape:collect="always"
       style="color-interpolation-filters:sRGB"
       id="filter2716"
       x="-0.018563898"
       y="-0.007395295"
       width="1.0312456"
       height="1.0172846">
      <feGaussianBlur
         inkscape:collect="always"
         stdDeviation="0.099227635"
         id="feGaussianBlur2718" />
    </filter>
    <filter
       inkscape:collect="always"
       style="color-interpolation-filters:sRGB"
       id="filter2816"
       x="-0.0053371102"
       y="-0.0095701358"
       width="1.0106993"
       height="1.0191197">
      <feGaussianBlur
         inkscape:collect="always"
         stdDeviation="0.22402336"
         id="feGaussianBlur2818" />
    </filter>
  </defs>
  <path
     sodipodi:type="spiral"
     style="fill:none;fill-rule:evenodd;stroke:#000000;stroke-width:4.06783;stroke-miterlimit:4;stroke-dasharray:none;filter:url(#filter2716)"
     id="path10905"
     sodipodi:cx="-1035.9514"
     sodipodi:cy="121.49033"
     sodipodi:expansion="1"
     sodipodi:revolution="0.31"
     sodipodi:radius="221.35179"
     sodipodi:argument="-16.409349"
     sodipodi:t0="0"
     d="m -1035.9514,121.49033 c -44.7595,37.80657 -102.347,-6.48306 -116.3933,-52.063373 -8.5662,-27.797506 -7.4246,-56.656055 1.2052,-84.308686 8.6283,-27.648172 24.4847,-52.740466 44.6354,-73.434843"
     transform="matrix(-0.01934558,0.11266267,0.11266267,0.01934558,67.878168,193.83872)" />
  <path
     sodipodi:type="spiral"
     style="opacity:1;mix-blend-mode:normal;fill:none;fill-rule:evenodd;stroke:#000000;stroke-width:2.74824;stroke-miterlimit:4;stroke-dasharray:none;filter:url(#filter2816)"
     id="path11113"
     sodipodi:cx="-1180.4264"
     sodipodi:cy="116.56505"
     sodipodi:expansion="1"
     sodipodi:revolution="0.70999998"
     sodipodi:radius="263.60367"
     sodipodi:argument="-1.2594287"
     sodipodi:t0="0"
     d="m -1180.4264,116.56505 c 16.7965,-52.189668 79.368,-5.96364 88.3551,28.43585 22.3729,85.63616 -69.7585,148.51569 -145.2268,148.2743 -106.9575,-0.3421 -189.8929,-91.43223 -206.257,-192.52742"
     transform="matrix(0.17174642,0,0,0.17174642,328.14805,12.655056)" />
  <g
     id="g1498"
     transform="translate(123.79906,-60.596382)"
     style="fill:#ececec">
    <rect
       style="fill:#ececec;fill-opacity:1;stroke:#000000;stroke-width:0.394798;stroke-linejoin:round;stroke-miterlimit:4;stroke-dasharray:none;paint-order:markers fill stroke"
       id="rect4620"
       width="73.277"
       height="49.337185"
       x="-77.926056"
       y="91.547424"
       ry="2.7259538"
       transform="rotate(15.807581)" />
    <path
       sodipodi:type="star"
       style="opacity:1;fill:#ececec;fill-opacity:1;stroke:#000000;stroke-width:2.02205;stroke-linejoin:round;stroke-miterlimit:4;stroke-dasharray:none;paint-order:markers fill stroke"
       id="path4848"
       inkscape:flatsided="true"
       sodipodi:sides="3"
       sodipodi:cx="-840.58179"
       sodipodi:cy="-295.51703"
       sodipodi:r1="154.32556"
       sodipodi:r2="77.162781"
       sodipodi:arg1="1.5707963"
       sodipodi:arg2="2.6179939"
       inkscape:rounded="-3.1225e-17"
       inkscape:randomized="0.015"
       transform="matrix(0.24549471,0.06998015,-0.03871957,0.13583068,127.15041,186.46088)"
       inkscape:transform-center-x="-0.072314444"
       inkscape:transform-center-y="7.513796"
       d="m -841.70205,-139.83518 -132.97842,-231.66237 268.5757,-1.34353 z" />
  </g>
  <ellipse
     style="font-variation-settings:'wght' 300;opacity:0.736607;mix-blend-mode:normal;fill:#000000;fill-opacity:1;stroke:#000000;stroke-width:1.526;stroke-linejoin:round;stroke-miterlimit:4;stroke-dasharray:none;paint-order:markers fill stroke;filter:url(#filter1265)"
     id="path999"
     cx="45.351696"
     cy="105.55099"
     rx="26.261747"
     ry="2.9179718" />
  <path
     style="opacity:1;fill:#f0f0f0;fill-opacity:1;stroke:#000000;stroke-width:0.434758;stroke-linejoin:round;paint-order:markers fill stroke"
     d="m 62.364707,109.3267 c -0.13822,-0.0876 -0.13366,-0.17028 0.0265,-0.47993 0.1064,-0.20575 0.27937,-0.40707 0.38438,-0.44736 0.15975,-0.0613 0.19093,-0.37077 0.19093,-1.89478 v -1.82151 l -0.41791,-0.39414 c -1.01131,-0.95379 -4.83197,-2.50365 -7.84287,-3.18148 -1.11272,-0.2505 -1.28901,-0.37341 -2.25063,-1.569004 -0.51755,-0.64347 -1.14523,-1.29975 -1.39485,-1.45839 -0.24962,-0.15864 -0.55572,-0.40238 -0.68023,-0.54165 -0.1245,-0.13926 -0.37938,-0.31658 -0.56638,-0.39404 -0.39642,-0.1642 -0.7034,-0.63308 -0.81932,-1.25139 -0.0724,-0.38609 -0.1786,-0.4879 -0.8982,-0.861 -1.54893,-0.80308 -3.979465,-3.42656 -4.750997,-5.12814 -0.61963,-1.36656 -1.07784,-3.527717 -1.317201,-6.212623 -0.04113,-0.461173 -0.129592,-0.838497 -0.196614,-0.838497 -0.12553,0 -0.07444,0.909969 0.156913,2.795 0.145536,1.185787 0.500357,2.74956 0.848868,3.74114 0.139076,0.39569 0.211159,0.75717 0.160189,0.80331 -0.376423,0.3407 -2.523374,0.63765 -4.751009,0.65713 -2.003327,0.0175 -2.199161,-0.0207 -4.580666,-0.89536 -1.7468,-0.64152 -1.790609,-0.63198 -1.949033,0.42445 -0.06322,0.4216 -0.02831,0.60982 0.163997,0.88384 0.803383,1.14482 0.746151,3.37226 -0.16033,6.23975 -0.224263,0.70941 -0.382851,1.61854 -0.491935,2.820044 -0.157569,1.7356 -0.154522,1.80019 0.14402,3.05242 0.167743,0.70361 0.281522,1.47495 0.25284,1.71407 -0.03099,0.25817 0.07337,0.82109 0.25686,1.38579 0.307641,0.94679 0.307979,0.95308 0.07579,1.42054 -0.370108,0.74513 -0.715314,0.9251 -1.788403,0.93237 -0.511094,0.003 -1.416583,0.11369 -2.012198,0.24497 -0.925087,0.2039 -1.25101,0.22099 -2.236001,0.11722 -0.634185,-0.0668 -1.504232,-0.12243 -1.933441,-0.12362 -0.785434,-0.002 -1.641956,-0.25583 -1.641956,-0.48627 0,-0.0683 0.34261,-0.22027 0.761358,-0.33777 0.418749,-0.11749 1.171604,-0.48144 1.673013,-0.80876 0.91774,-0.5991 2.81533,-2.31339 3.053625,-2.75864 0.18481,-0.34532 0.598568,-2.14022 0.600751,-2.60609 0.0038,-0.82691 -0.520602,-5.394804 -0.694426,-6.047974 -0.22498,-0.8454 -0.423058,-2.62531 -0.42441,-3.81372 -0.0014,-1.15071 -0.210234,-2.11189 -0.56144,-2.58297 -0.655715,-0.87956 -0.714215,-2.243616 -0.162513,-3.789535 0.363648,-1.018978 0.623104,-1.159763 2.870198,-1.557384 0.902833,-0.159752 2.144613,-0.414466 2.759515,-0.566026 1.287378,-0.317313 2.670624,-0.357869 6.256909,-0.183453 2.215226,0.107731 2.279717,0.104046 2.210564,-0.126475 -0.236422,-0.788105 -0.352398,-1.456662 -0.300124,-1.730114 0.04564,-0.238826 -0.05485,-0.439223 -0.42081,-0.839098 -0.264433,-0.28894 -0.633865,-0.817365 -0.820952,-1.174285 -0.25393,-0.484427 -0.428166,-0.668265 -0.687289,-0.725178 -0.433454,-0.0952 -1.69856,-1.252424 -2.018346,-1.846231 -0.235704,-0.437674 -0.251141,-0.44435 -1.049473,-0.453661 -0.445641,-0.0052 -1.005902,-0.07969 -1.245034,-0.165546 -0.59013,-0.211877 -1.16773,-1.004649 -1.512983,-2.076615 -0.156635,-0.486343 -0.369418,-0.911237 -0.472849,-0.94421 -1.154989,-0.36824 -1.616612,-0.744701 -1.616612,-1.318361 0,-0.09831 -0.10599,-0.309627 -0.235526,-0.469605 -0.222079,-0.274255 -0.256784,-0.280359 -0.607812,-0.106929 -0.218403,0.107905 -0.649734,0.594469 -1.043498,1.17712 -0.36917,0.546251 -0.759673,1.010218 -0.86778,1.03104 -0.357967,0.06894 -0.599385,-0.326233 -0.599385,-0.981108 0,-0.629757 -0.01441,-0.647711 -0.625663,-0.780012 -0.218881,-0.04737 -0.363291,-0.201449 -0.472891,-0.50455 -0.121585,-0.336233 -0.220293,-0.429842 -0.430226,-0.408006 -0.213529,0.02221 -0.280941,-0.04554 -0.311749,-0.31327 -0.04789,-0.416181 -0.348389,-0.450008 -0.805247,-0.09064 l -0.31906,0.250972 -0.318805,-0.417974 c -0.189083,-0.247897 -0.318806,-0.58006 -0.318806,-0.816313 0,-0.330727 -0.06852,-0.428007 -0.40372,-0.573168 -0.226567,-0.09812 -0.567257,-0.422279 -0.776391,-0.738728 -0.396645,-0.600164 -0.559754,-0.676543 -0.807445,-0.378094 -0.21936,0.264315 -0.342943,0.235168 -0.756522,-0.178411 l -0.364747,-0.364749 0.318773,-0.469736 c 0.175306,-0.258357 0.494976,-1.045477 0.710355,-1.749157 l 0.391602,-1.279425 0.953971,-0.80504 c 0.524687,-0.442773 1.04652,-1.000062 1.159627,-1.238424 0.113108,-0.238356 0.329163,-0.498404 0.480122,-0.577877 0.150959,-0.07947 0.302702,-0.187148 0.33721,-0.239276 0.07437,-0.112352 1.797244,-0.364916 2.489261,-0.364916 0.69851,0 1.74308,0.503775 2.203989,1.062938 0.476183,0.577694 0.74171,1.318614 0.84946,2.370303 0.08009,0.781715 0.295092,1.108615 0.29512,0.448707 l 1.4e-5,-0.341609 1.645932,0.0023 c 0.90526,0.0014 2.070615,-0.06436 2.589668,-0.146132 0.732737,-0.115441 1.093474,-0.115432 1.61349,4.7e-5 l 0.669759,0.148729 -0.464436,0.287039 c -0.43706,0.270118 -0.604249,0.515217 -0.351442,0.515217 0.06215,0 0.600363,-0.363352 1.196033,-0.807444 0.70236,-0.52364 1.200084,-0.807445 1.416041,-0.807445 0.183152,0 0.441514,-0.08207 0.574139,-0.182382 0.340088,-0.257231 1.111719,-0.233033 2.577466,0.08082 0.69636,0.149114 1.377908,0.26163 1.514556,0.250038 0.136644,-0.0116 0.807444,-0.07951 1.490668,-0.150935 0.683219,-0.07143 1.346883,-0.131001 1.474804,-0.13239 0.282936,-0.0033 1.914466,0.759433 2.697516,1.260706 0.67857,0.434387 0.9378,0.447393 2.05286,0.102985 1.02055,-0.315219 2.28332,-0.247291 3.12134,0.167903 0.51996,0.257611 0.53994,0.258179 1.55278,0.04409 0.56432,-0.119272 1.15146,-0.246681 1.30474,-0.283123 l 0.27871,-0.06627 -0.31452,0.686985 c -0.32811,0.716694 -0.32155,1.179858 0.0208,1.463934 0.27512,0.228333 0.33816,0.04395 0.10607,-0.310256 -0.23823,-0.363577 -0.1421,-0.801594 0.31758,-1.447164 0.20037,-0.281391 0.32798,-0.350718 0.5452,-0.296199 0.26056,0.0654 0.28954,0.02094 0.35684,-0.54727 0.0602,-0.508419 0.009,-0.770931 -0.28686,-1.475512 -0.3279,-0.78042 -0.38408,-1.401984 -0.12673,-1.401984 0.05,0 0.1917,0.2236 0.31493,0.496888 0.23775,0.527217 0.27587,0.55442 0.54131,0.38623 0.13188,-0.08356 0.14237,-0.229999 0.0481,-0.671913 -0.12691,-0.59507 -0.0207,-1.628481 0.21208,-2.063432 0.16171,-0.302166 0.51314,-0.508 0.86733,-0.508 0.14114,0 0.25661,0.01704 0.25661,0.03789 0,0.02085 0.16846,0.808642 0.37435,1.750645 0.4278,1.95725 0.40922,2.153544 -0.31724,3.352914 -0.24372,0.402372 -0.5759,0.98932 -0.73819,1.304337 -0.16229,0.315017 -0.58317,0.817421 -0.93529,1.116461 -0.58777,0.49916 -0.75603,0.568153 -2.05361,0.842042 -1.0721,0.226295 -1.62847,0.420213 -2.30415,0.803101 -1.55323,0.880156 -1.85351,0.976925 -2.41887,0.779509 -0.35437,-0.123737 -0.58853,-0.136709 -0.85099,-0.04713 -0.26828,0.09156 -0.54921,0.07108 -1.08425,-0.07905 -0.67277,-0.188768 -0.76269,-0.188153 -1.3149,0.009 -1.41989,0.506898 -3.00345,0.483798 -4.236878,-0.0618 L 44.0594,68.445459 43.519384,68.833272 c -0.619334,0.444773 -0.812529,0.79828 -1.203657,2.202451 -0.154358,0.554149 -0.341553,1.007964 -0.415988,1.008481 -0.07444,4.69e-4 -0.195012,0.126718 -0.267944,0.280442 -0.07983,0.16827 -0.421458,0.399302 -0.858437,0.580535 -0.952859,0.395184 -3.055362,1.888157 -3.821024,2.713269 -0.8789,0.947144 -0.592617,0.956408 0.393184,0.01272 1.006718,-0.963708 2.559008,-2.061192 3.54545,-2.506674 1.028467,-0.464459 1.369569,-0.856592 1.622293,-1.864992 0.301124,-1.201535 0.637705,-1.842142 1.137997,-2.165901 l 0.433843,-0.280762 0.741235,0.249705 c 0.407682,0.137338 0.928336,0.249704 1.157012,0.249704 h 0.415776 l 0.313416,1.086948 0.313407,1.086944 -0.329769,1.560126 -0.329773,1.560126 0.547142,1.785341 c 0.43143,1.407768 0.62364,1.856799 0.90883,2.123218 0.2365,0.220915 0.3617,0.460943 0.3617,0.693393 0,0.283649 0.13879,0.463919 0.68655,0.89172 0.73869,0.576928 1.88173,1.989227 2.00389,2.475945 0.13871,0.552688 -0.0576,1.608194 -0.44401,2.386956 -0.42818,0.863006 -0.43055,0.870856 -0.26284,0.870856 0.0661,0 0.19192,-0.135846 0.2795,-0.301881 0.15714,-0.297889 0.16569,-0.291147 0.64677,0.510354 0.60399,1.006264 0.81681,1.800881 0.81681,3.04969 0,1.2284 0.39192,3.00052 0.87539,3.95829 0.28861,0.57172 1.27398,2.27229 1.41238,2.4375 0.0123,0.0147 0.40891,-0.0334 0.88133,-0.107 1.05769,-0.16467 2.29425,0.0111 3.15813,0.44883 0.79896,0.40486 1.58637,1.31158 2.22963,2.56745 0.60516,1.1815 0.91167,1.47172 2.3298,2.205954 1.3901,0.71972 2.40714,1.97062 3.54575,4.36105 0.39526,0.82984 1.21961,2.81478 1.21961,2.93671 0,0.0127 -0.39622,0.25158 -0.88047,0.53078 -0.7193,0.4147 -0.99786,0.50764 -1.52172,0.50769 -0.3527,3e-5 -0.93534,0.11183 -1.29476,0.24844 -0.6931,0.26343 -1.22652,0.31274 -1.50105,0.13875 z M 50.635187,67.799705 c 0.22083,-0.134094 0.52176,-0.412687 0.66874,-0.619108 0.27209,-0.382109 0.78158,-1.833996 0.67943,-1.936146 -0.1202,-0.120197 -0.32111,0.121606 -0.32111,0.386461 0,0.153358 -0.14662,0.573065 -0.32582,0.932679 -0.33512,0.672501 -0.92233,1.169013 -1.56857,1.326286 -0.18789,0.04573 -0.34161,0.137424 -0.34161,0.203764 0,0.173641 0.73204,-0.0042 1.20894,-0.293936 z"
     id="path7867" />
</svg>
