<?xml version="1.0" encoding="UTF-8" standalone="no"?>
<!-- Created with Inkscape (http://www.inkscape.org/) -->

<svg
   width="162.99852mm"
   height="91.377953mm"
   viewBox="0 0 162.99852 91.377953"
   version="1.1"
   id="svg5"
   inkscape:version="1.1 (c68e22c387, 2021-05-23)"
   sodipodi:docname="live-icon.svg"
   xmlns:inkscape="http://www.inkscape.org/namespaces/inkscape"
   xmlns:sodipodi="http://sodipodi.sourceforge.net/DTD/sodipodi-0.dtd"
   xmlns="http://www.w3.org/2000/svg"
   xmlns:svg="http://www.w3.org/2000/svg">
  <sodipodi:namedview
     id="namedview7"
     pagecolor="#ffffff"
     bordercolor="#666666"
     borderopacity="1.0"
     inkscape:pageshadow="2"
     inkscape:pageopacity="0.0"
     inkscape:pagecheckerboard="0"
     inkscape:document-units="mm"
     showgrid="false"
     fit-margin-top="0"
     fit-margin-left="0"
     fit-margin-right="0"
     fit-margin-bottom="0"
     inkscape:zoom="0.60221661"
     inkscape:cx="530.54"
     inkscape:cy="327.95509"
     inkscape:window-width="1920"
     inkscape:window-height="1017"
     inkscape:window-x="-8"
     inkscape:window-y="-8"
     inkscape:window-maximized="1"
     inkscape:current-layer="g8602" />
  <defs
     id="defs2">
    <rect
       x="-468.27005"
       y="117.89778"
       width="174.35587"
       height="131.18204"
       id="rect6210" />
    <rect
       x="-483.21484"
       y="107.93459"
       width="436.71994"
       height="380.26184"
       id="rect3834" />
  </defs>
  <g
     inkscape:label="Layer 1"
     inkscape:groupmode="layer"
     id="layer1"
     transform="translate(-25.622849,-75.046669)">
    <path
       id="rect846"
       style="fill:#333333;stroke-width:0.67737;stroke-linejoin:round;paint-order:markers fill stroke"
       d="M 42.583141,75.046669 H 171.66108 c 9.396,0 16.96029,7.564291 16.96029,16.960293 v 57.457368 c 0,9.396 -7.56429,16.96029 -16.96029,16.96029 H 42.583141 c -9.396002,0 -16.960292,-7.56429 -16.960292,-16.96029 V 92.006962 c 0,-9.396002 7.56429,-16.960293 16.960292,-16.960293 z" />
    <g
       id="g8602"
       style="fill:#ffffff">
      <g
         aria-label="LIVE"
         transform="matrix(1.2779335,0,0,1.2779335,676.12948,-44.379849)"
         id="text3832"
         style="font-weight:bold;font-size:40px;line-height:1.25;font-family:Candara;-inkscape-font-specification:'Candara, Bold';white-space:pre;shape-inside:url(#rect3834)">
        <path
           d="m -464.01562,137.66211 -0.15625,4.25781 h -16.23047 q 0.23437,-5.29297 0.23437,-13.30078 0,-7.34375 -0.23437,-12.12891 h 5.48828 q -0.23438,4.4336 -0.23438,12.12891 0,5.87891 -0.2539,9.33594 5.39062,0 11.38672,-0.29297 z"
           id="path2084" />
        <path
           d="m -455.46094,141.91992 h -5.52734 q 0.25391,-6.05469 0.25391,-13.30078 0,-7.12891 -0.25391,-12.12891 h 5.52734 q -0.2539,4.92188 -0.2539,12.12891 0,7.36328 0.2539,13.30078 z"
           id="path2086" />
        <path
           d="m -429.91406,116.49023 q 0,1.60157 -4.47266,12.73438 -4.45312,11.13281 -4.45312,12.69531 h -5.3711 q 0,-1.5039 -4.12109,-12.7539 -4.10156,-11.25 -4.10156,-12.67579 h 6.1914 q 0,1.42579 2.61719,10.11719 2.61719,8.69141 2.61719,9.86328 h 0.33203 q 0,-1.13281 2.61719,-9.51172 2.63672,-8.3789 2.63672,-10.46875 z"
           id="path2088" />
        <path
           d="m -410.10937,137.62305 -0.15625,4.29687 h -16.6211 q 0.25391,-5.89844 0.25391,-13.30078 0,-7.10937 -0.25391,-12.12891 h 15.85938 l -0.21485,4.27735 q -5.85937,-0.3125 -10.625,-0.3125 0.19532,2.71484 0.19532,6.40625 4.08203,0 8.73046,-0.21485 v 4.08204 q -4.57031,-0.19532 -8.73046,-0.19532 0,3.96485 0.15625,7.42188 5.35156,0 11.40625,-0.33203 z"
           id="path2090" />
      </g>
    </g>
  </g>
</svg>
