<?xml version="1.0" encoding="UTF-8" standalone="no"?>
<svg
   width="18"
   height="14.32421"
   viewBox="0 0 18 14.32421"
   fill="none"
   version="1.1"
   id="svg4"
   sodipodi:docname="mail-nav.svg"
   inkscape:version="1.1 (c68e22c387, 2021-05-23)"
   xmlns:inkscape="http://www.inkscape.org/namespaces/inkscape"
   xmlns:sodipodi="http://sodipodi.sourceforge.net/DTD/sodipodi-0.dtd"
   xmlns="http://www.w3.org/2000/svg"
   xmlns:svg="http://www.w3.org/2000/svg">
  <defs
     id="defs8" />
  <sodipodi:namedview
     id="namedview6"
     pagecolor="#ffffff"
     bordercolor="#666666"
     borderopacity="1.0"
     inkscape:pageshadow="2"
     inkscape:pageopacity="0.0"
     inkscape:pagecheckerboard="0"
     showgrid="false"
     inkscape:zoom="1"
     inkscape:cx="8"
     inkscape:cy="7.5"
     inkscape:window-width="1920"
     inkscape:window-height="1017"
     inkscape:window-x="-8"
     inkscape:window-y="-8"
     inkscape:window-maximized="1"
     inkscape:current-layer="svg4"
     fit-margin-top="0"
     fit-margin-left="0"
     fit-margin-right="0"
     fit-margin-bottom="0"
     lock-margins="true" />
  <rect
     style="fill:#ffffff;stroke-width:8.72977;stroke-linejoin:round;paint-order:markers fill stroke"
     id="rect847"
     width="16.224852"
     height="13.100592"
     x="0.83431911"
     y="0.52305698" />
  <path
     fill-rule="evenodd"
     clip-rule="evenodd"
     d="m 0.00977,1 c 0,-0.55228 0.44771,-1 1,-1 H 17 c 0.5523,0 1,0.44772 1,1 v 11.32421 c 0,1.1046 -0.8954,2 -2,2 H 2 c -1.10457,0 -2,-0.8954 -2,-2 V 1.32422 C 0,1.2766 0.0033,1.22976 0.0098,1.18391 Z M 2,3.22376 v 9.10045 H 16 V 3.2241 l -4.8785,4.87851 c -1.1716,1.1716 -3.0711,1.1716 -4.24265,0 z M 3.57232,1.96765 H 14.428 L 9.7073,6.68841 c -0.3905,0.3905 -1.0237,0.3905 -1.4142,0 z"
     fill="currentColor"
     id="path2"
     style="fill:#333333" />
</svg>
