<?xml version="1.0" encoding="UTF-8" standalone="no"?>
<svg
   width="38"
   height="34.324211"
   viewBox="0 0 38 34.324211"
   fill="none"
   version="1.1"
   id="svg4"
   sodipodi:docname="mail.svg"
   inkscape:version="1.1 (c68e22c387, 2021-05-23)"
   xmlns:inkscape="http://www.inkscape.org/namespaces/inkscape"
   xmlns:sodipodi="http://sodipodi.sourceforge.net/DTD/sodipodi-0.dtd"
   xmlns="http://www.w3.org/2000/svg"
   xmlns:svg="http://www.w3.org/2000/svg">
  <defs
     id="defs8" />
  <sodipodi:namedview
     id="namedview6"
     pagecolor="#ffffff"
     bordercolor="#666666"
     borderopacity="1.0"
     inkscape:pageshadow="2"
     inkscape:pageopacity="0.0"
     inkscape:pagecheckerboard="0"
     showgrid="false"
     inkscape:zoom="1"
     inkscape:cx="18"
     inkscape:cy="17.5"
     inkscape:window-width="1920"
     inkscape:window-height="1017"
     inkscape:window-x="-8"
     inkscape:window-y="-8"
     inkscape:window-maximized="1"
     inkscape:current-layer="svg4"
     fit-margin-top="10"
     fit-margin-left="10"
     fit-margin-right="10"
     fit-margin-bottom="10"
     lock-margins="true" />
  <rect
     style="fill:#ffffff;stroke-width:8.72977;stroke-linejoin:round;paint-order:markers fill stroke"
     id="rect847"
     width="16.224852"
     height="13.100592"
     x="10.834319"
     y="10.523057" />
  <path
     fill-rule="evenodd"
     clip-rule="evenodd"
     d="m 10.00977,11 c 0,-0.55228 0.44771,-1 1,-1 H 27 c 0.5523,0 1,0.44772 1,1 v 11.32421 c 0,1.1046 -0.8954,2 -2,2 H 12 c -1.10457,0 -2,-0.8954 -2,-2 V 11.32422 c 0,-0.04762 0.0033,-0.09446 0.0098,-0.14031 z M 12,13.22376 v 9.10045 H 26 V 13.2241 l -4.8785,4.87851 c -1.1716,1.1716 -3.0711,1.1716 -4.24265,0 z m 1.57232,-1.25611 H 24.428 l -4.7207,4.72076 c -0.3905,0.3905 -1.0237,0.3905 -1.4142,0 z"
     fill="currentColor"
     id="path2"
     style="fill:#333333" />
</svg>
