<?xml version="1.0" encoding="UTF-8" standalone="no"?>
<svg
   width="32"
   height="38"
   viewBox="0 0 32 38"
   fill="none"
   version="1.1"
   id="svg6"
   sodipodi:docname="user-green.svg"
   inkscape:version="1.1 (c68e22c387, 2021-05-23)"
   xmlns:inkscape="http://www.inkscape.org/namespaces/inkscape"
   xmlns:sodipodi="http://sodipodi.sourceforge.net/DTD/sodipodi-0.dtd"
   xmlns="http://www.w3.org/2000/svg"
   xmlns:svg="http://www.w3.org/2000/svg">
  <defs
     id="defs10" />
  <sodipodi:namedview
     id="namedview8"
     pagecolor="#ffffff"
     bordercolor="#666666"
     borderopacity="1.0"
     inkscape:pageshadow="2"
     inkscape:pageopacity="0.0"
     inkscape:pagecheckerboard="0"
     showgrid="false"
     lock-margins="true"
     fit-margin-top="10"
     fit-margin-left="10"
     fit-margin-right="10"
     fit-margin-bottom="10"
     inkscape:zoom="28.166667"
     inkscape:cx="15.035503"
     inkscape:cy="22.775148"
     inkscape:window-width="1920"
     inkscape:window-height="1017"
     inkscape:window-x="-8"
     inkscape:window-y="-8"
     inkscape:window-maximized="1"
     inkscape:current-layer="svg6" />
  <path
     fill-rule="evenodd"
     clip-rule="evenodd"
     d="m 20,14 c 0,2.20914 -1.7909,4 -4,4 -2.20914,0 -4,-1.79086 -4,-4 0,-2.20914 1.79086,-4 4,-4 2.2091,0 4,1.79086 4,4 z m -2,0 c 0,1.10457 -0.8954,2 -2,2 -1.1046,0 -2,-0.89543 -2,-2 0,-1.10457 0.8954,-2 2,-2 1.1046,0 2,0.89543 2,2 z"
     fill="currentColor"
     id="path2"
     style="fill:#2dc882;fill-opacity:1" />
  <path
     d="m 20,22 c 0,-0.5523 -0.4477,-1 -1,-1 h -6 c -0.55228,0 -1,0.4477 -1,1 v 6 h -2 v -6 c 0,-1.6569 1.34315,-3 3,-3 h 6 c 1.6569,0 3,1.3431 3,3 v 6 h -2 z"
     fill="currentColor"
     id="path4"
     style="fill:#2dc882;fill-opacity:1" />
</svg>
